SplineFontDB: 1.0
FontName: THKodchasal-BoldItalic
FullName: THKodchasal-BoldItalic
FamilyName: TH Kodchasal
Weight: Bold
Copyright: Copyright (c) 2006 by Department of Intellectual Property (DIP), Ministry of Commerce and Software Industry Promotion Agency (Public Organization) (SIPA). All rights reserved.
Version: 1.1
ItalicAngle: -12
UnderlinePosition: -35
UnderlineWidth: 30
Ascent: 800
Descent: 200
Order2: 1
XUID: [1021 375 425136265 16286807]
FSType: 0
OS2Version: 3
OS2_WeightWidthSlopeOnly: 0
OS2_UseTypoMetrics: 1
CreationTime: 1157457032
ModificationTime: 1174462376
PfmFamily: 17
TTFWeight: 700
TTFWidth: 5
LineGap: 60
VLineGap: 0
Panose: 2 0 5 6 0 0 0 2 0 4
OS2TypoAscent: 0
OS2TypoAOffset: 1
OS2TypoDescent: 0
OS2TypoDOffset: 1
OS2TypoLinegap: 0
OS2WinAscent: 18
OS2WinAOffset: 1
OS2WinDescent: 4
OS2WinDOffset: 1
HheadAscent: -111
HheadAOffset: 1
HheadDescent: 316
HheadDOffset: 1
OS2SubXSize: 700
OS2SubYSize: 650
OS2SubXOff: 0
OS2SubYOff: 140
OS2SupXSize: 700
OS2SupYSize: 650
OS2SupXOff: 0
OS2SupYOff: 477
OS2StrikeYSize: 30
OS2StrikeYPos: 250
OS2FamilyClass: 773
OS2Vendor: 'IPTH'
ScriptLang: 2
 1 latn 1 dflt 
 0 
ChainSub: coverage 0 0 'liga' 0 0 0 1
 1 0 1
  Coverage: 64 uni0E48.alt2 uni0E49.alt2 uni0E4A.alt2 uni0E4B.alt2 uni0E4C.alt2
  FCoverage: 7 uni0E33
 1
  SeqLookup: 0 'L027'
EndFPST
ChainSub: coverage 0 0 'liga' 0 0 0 1
 1 1 0
  Coverage: 7 uni0E47
  BCoverage: 12 uni0E2C.alt1
 1
  SeqLookup: 0 'L026'
EndFPST
ChainSub: coverage 0 0 'liga' 0 0 0 1
 1 0 1
  Coverage: 7 uni0E2C
  FCoverage: 39 uni0E34 uni0E35 uni0E36 uni0E37 uni0E47
 1
  SeqLookup: 0 'L026'
EndFPST
ChainSub: coverage 0 0 'liga' 0 0 0 1
 1 0 1
  Coverage: 15 uni0E0E uni0E0F
  FCoverage: 38 uni0E38.alt1 uni0E39.alt1 uni0E3A.alt1
 1
  SeqLookup: 0 'L026'
EndFPST
ChainSub: coverage 0 0 'liga' 0 0 0 1
 1 1 0
  Coverage: 5 a b c
  BCoverage: 23 uni0E1B uni0E1D uni0E1F
 1
  SeqLookup: 0 'L026'
EndFPST
ChainSub: coverage 0 0 'liga' 0 0 0 1
 1 0 1
  Coverage: 5 a b c

StartChar: .notdef
Encoding: 65536 -1 0
Width: 500
Flags: W
Fore
409 35 m 1,0,-1
 542 660 l 1,1,-1
 237 660 l 1,2,-1
 104 35 l 1,3,-1
 409 35 l 1,0,-1
436 0 m 1,4,-1
 63 0 l 1,5,-1
 210 695 l 1,6,-1
 583 695 l 1,7,-1
 436 0 l 1,4,-1
EndSplineSet
EndChar
StartChar: numbersign
Encoding: 35 35 4
Width: 474
Flags: W
Fore
485 328 m 0,0,1
 483 321 483 321 474 312.5 c 128,-1,2
 465 304 465 304 444 304 c 2,3,-1
 408 304 l 1,4,-1
 368 194 l 1,5,-1
 404 194 l 2,6,7
 418 194 418 194 426 187.5 c 128,-1,8
 434 181 434 181 429 167 c 0,9,10
 426 160 426 160 417.5 151.5 c 128,-1,11
 409 143 409 143 388 143 c 2,12,-1
 352 143 l 1,13,-1
 308 26 l 2,14,15
 300 6 300 6 289.5 0 c 128,-1,16
 279 -6 279 -6 272 -6 c 0,17,18
 261 -6 261 -6 257 2 c 0,19,20
 251 11 251 11 258 29 c 2,21,-1
 300 143 l 1,22,-1
 206 143 l 1,23,-1
 162 26 l 2,24,25
 154 5 154 5 143.5 -0.5 c 128,-1,26
 133 -6 133 -6 126 -6 c 256,27,28
 119 -6 119 -6 115.5 -3.5 c 128,-1,29
 112 -1 112 -1 110 1 c 0,30,31
 104 9 104 9 112 29 c 2,32,-1
 154 143 l 1,33,-1
 115 143 l 2,34,35
 101 143 101 143 93 148 c 128,-1,36
 85 153 85 153 90 169 c 0,37,38
 94 178 94 178 103 186 c 128,-1,39
 112 194 112 194 132 194 c 2,40,-1
 173 194 l 1,41,-1
 214 304 l 1,42,-1
 176 304 l 2,43,44
 162 304 162 304 154 310 c 128,-1,45
 146 316 146 316 151 331 c 0,46,47
 154 339 154 339 163 347.5 c 128,-1,48
 172 356 172 356 192 356 c 2,49,-1
 233 356 l 1,50,-1
 272 458 l 2,51,52
 279 478 279 478 289 483.5 c 128,-1,53
 299 489 299 489 308 489 c 0,54,55
 322 489 322 489 324.5 479 c 128,-1,56
 327 469 327 469 322 455 c 2,57,-1
 285 356 l 1,58,-1
 376 356 l 1,59,-1
 414 458 l 2,60,61
 421 478 421 478 431 483.5 c 128,-1,62
 441 489 441 489 450 489 c 0,63,64
 465 489 465 489 467 479 c 128,-1,65
 469 469 469 469 464 455 c 2,66,-1
 427 356 l 1,67,-1
 461 356 l 2,68,69
 475 356 475 356 482.5 349 c 128,-1,70
 490 342 490 342 485 328 c 0,0,1
266 304 m 1,71,-1
 225 194 l 1,72,-1
 317 194 l 1,73,-1
 357 304 l 1,74,-1
 266 304 l 1,71,-1
EndSplineSet
EndChar
StartChar: dollar
Encoding: 36 36 5
Width: 440
Flags: W
Fore
446 144 m 0,0,1
 438 109 438 109 418.5 82.5 c 128,-1,2
 399 56 399 56 371.5 37.5 c 128,-1,3
 344 19 344 19 311 9 c 128,-1,4
 278 -1 278 -1 243 -4 c 1,5,-1
 237 -29 l 2,6,7
 235 -40 235 -40 225 -48.5 c 128,-1,8
 215 -57 215 -57 203 -57 c 256,9,10
 191 -57 191 -57 185 -48.5 c 128,-1,11
 179 -40 179 -40 181 -29 c 2,12,-1
 187 -3 l 1,13,14
 135 3 135 3 98 25.5 c 128,-1,15
 61 48 61 48 47 83 c 0,16,17
 42 97 42 97 49.5 111.5 c 128,-1,18
 57 126 57 126 72 134 c 256,19,20
 87 142 87 142 101.5 138.5 c 128,-1,21
 116 135 116 135 121 121 c 0,22,23
 127 104 127 104 149.5 91.5 c 128,-1,24
 172 79 172 79 203 74 c 1,25,-1
 231 206 l 1,26,27
 201 209 201 209 174 218.5 c 128,-1,28
 147 228 147 228 127.5 244.5 c 128,-1,29
 108 261 108 261 99 284.5 c 128,-1,30
 90 308 90 308 97 340 c 0,31,32
 104 374 104 374 122.5 400 c 128,-1,33
 141 426 141 426 167 444.5 c 128,-1,34
 193 463 193 463 225 473.5 c 128,-1,35
 257 484 257 484 291 487 c 1,36,-1
 297 513 l 2,37,38
 299 524 299 524 308.5 532.5 c 128,-1,39
 318 541 318 541 330 541 c 256,40,41
 342 541 342 541 348.5 532.5 c 128,-1,42
 355 524 355 524 353 513 c 2,43,-1
 347 487 l 1,44,45
 403 483 403 483 442 460 c 128,-1,46
 481 437 481 437 495 401 c 0,47,48
 500 387 500 387 493 372 c 128,-1,49
 486 357 486 357 471 349 c 256,50,51
 456 341 456 341 441.5 345 c 128,-1,52
 427 349 427 349 422 363 c 0,53,54
 414 382 414 382 390 395 c 128,-1,55
 366 408 366 408 331 411 c 1,56,-1
 303 279 l 1,57,58
 336 277 336 277 365.5 269 c 128,-1,59
 395 261 395 261 415.5 244.5 c 128,-1,60
 436 228 436 228 444.5 203 c 128,-1,61
 453 178 453 178 446 144 c 0,0,1
275 411 m 1,62,63
 257 409 257 409 239.5 404.5 c 128,-1,64
 222 400 222 400 207.5 392 c 128,-1,65
 193 384 193 384 183 371.5 c 128,-1,66
 173 359 173 359 169 341 c 0,67,68
 166 324 166 324 172 313.5 c 128,-1,69
 178 303 178 303 189.5 296.5 c 128,-1,70
 201 290 201 290 216.5 286.5 c 128,-1,71
 232 283 232 283 247 281 c 1,72,-1
 275 411 l 1,62,63
370 144 m 0,73,74
 374 162 374 162 368 173 c 128,-1,75
 362 184 362 184 350 190 c 128,-1,76
 338 196 338 196 321.5 198.5 c 128,-1,77
 305 201 305 201 287 203 c 1,78,-1
 259 72 l 1,79,80
 278 75 278 75 296.5 79.5 c 128,-1,81
 315 84 315 84 330 91.5 c 128,-1,82
 345 99 345 99 355.5 111.5 c 128,-1,83
 366 124 366 124 370 144 c 0,73,74
EndSplineSet
EndChar
StartChar: percent
Encoding: 37 37 6
Width: 473
Flags: W
Fore
314 404 m 0,0,1
 309 383 309 383 297.5 364.5 c 128,-1,2
 286 346 286 346 269.5 332.5 c 128,-1,3
 253 319 253 319 233 311 c 128,-1,4
 213 303 213 303 192 303 c 0,5,6
 150 303 150 303 126.5 332.5 c 128,-1,7
 103 362 103 362 112 404 c 0,8,9
 116 425 116 425 128 443 c 128,-1,10
 140 461 140 461 157 474.5 c 128,-1,11
 174 488 174 488 194 496 c 128,-1,12
 214 504 214 504 235 504 c 256,13,14
 256 504 256 504 272.5 496 c 128,-1,15
 289 488 289 488 300 474.5 c 128,-1,16
 311 461 311 461 314.5 443 c 128,-1,17
 318 425 318 425 314 404 c 0,0,1
503 498 m 0,18,19
 504 490 504 490 498 482 c 2,20,-1
 89 -11 l 2,21,22
 83 -19 83 -19 74 -21 c 128,-1,23
 65 -23 65 -23 59 -18 c 0,24,25
 52 -13 52 -13 52 -4.5 c 128,-1,26
 52 4 52 4 58 11 c 0,27,28
 76 32 76 32 125 92 c 0,29,30
 146 117 146 117 176 153.5 c 128,-1,31
 206 190 206 190 248 240.5 c 128,-1,32
 290 291 290 291 344 356 c 128,-1,33
 398 421 398 421 467 504 c 0,34,35
 473 512 473 512 481.5 514 c 128,-1,36
 490 516 490 516 497 511 c 0,37,38
 503 506 503 506 503 498 c 0,18,19
463 102 m 0,39,40
 458 81 458 81 446.5 63 c 128,-1,41
 435 45 435 45 418.5 31.5 c 128,-1,42
 402 18 402 18 382 10 c 128,-1,43
 362 2 362 2 341 2 c 0,44,45
 299 2 299 2 276 31 c 128,-1,46
 253 60 253 60 262 102 c 0,47,48
 266 123 266 123 278 141.5 c 128,-1,49
 290 160 290 160 306.5 173.5 c 128,-1,50
 323 187 323 187 343 195 c 128,-1,51
 363 203 363 203 384 203 c 0,52,53
 426 203 426 203 449 173.5 c 128,-1,54
 472 144 472 144 463 102 c 0,39,40
261 404 m 0,55,56
 266 424 266 424 254.5 438.5 c 128,-1,57
 243 453 243 453 223 453 c 0,58,59
 202 453 202 453 184.5 438.5 c 128,-1,60
 167 424 167 424 162 404 c 0,61,62
 157 383 157 383 169 368.5 c 128,-1,63
 181 354 181 354 202 354 c 0,64,65
 222 354 222 354 239 368.5 c 128,-1,66
 256 383 256 383 261 404 c 0,55,56
410 102 m 0,67,68
 415 123 415 123 403.5 137.5 c 128,-1,69
 392 152 392 152 372 152 c 256,70,71
 352 152 352 152 334.5 137.5 c 128,-1,72
 317 123 317 123 312 102 c 0,73,74
 307 82 307 82 319 67.5 c 128,-1,75
 331 53 331 53 351 53 c 256,76,77
 371 53 371 53 388 67.5 c 128,-1,78
 405 82 405 82 410 102 c 0,67,68
EndSplineSet
EndChar
StartChar: ampersand
Encoding: 38 38 7
Width: 543
Flags: W
Fore
513 55 m 1,0,1
 518 43 518 43 513 30 c 128,-1,2
 508 17 508 17 495 9 c 0,3,4
 483 1 483 1 468.5 -0.5 c 128,-1,5
 454 -2 454 -2 443 7 c 0,6,7
 442 8 442 8 435 16.5 c 128,-1,8
 428 25 428 25 420 35.5 c 128,-1,9
 412 46 412 46 405 54.5 c 128,-1,10
 398 63 398 63 397 64 c 1,11,12
 379 52 379 52 358 39 c 128,-1,13
 337 26 337 26 316 17 c 0,14,15
 293 8 293 8 265.5 2 c 128,-1,16
 238 -4 238 -4 210 -4 c 128,-1,17
 182 -4 182 -4 155.5 4.5 c 128,-1,18
 129 13 129 13 108 34 c 0,19,20
 76 65 76 65 72 103.5 c 128,-1,21
 68 142 68 142 83.5 179.5 c 128,-1,22
 99 217 99 217 131 249 c 128,-1,23
 163 281 163 281 205 300 c 1,24,25
 193 319 193 319 184 340.5 c 128,-1,26
 175 362 175 362 180 388 c 0,27,28
 185 411 185 411 199.5 432.5 c 128,-1,29
 214 454 214 454 236 470.5 c 128,-1,30
 258 487 258 487 287.5 496.5 c 128,-1,31
 317 506 317 506 352 506 c 0,32,33
 401 505 401 505 427.5 486 c 128,-1,34
 454 467 454 467 462 445 c 0,35,36
 471 413 471 413 460 382 c 0,37,38
 451 356 451 356 421.5 327 c 128,-1,39
 392 298 392 298 327 278 c 1,40,-1
 409 184 l 1,41,42
 419 198 419 198 428 215 c 128,-1,43
 437 232 437 232 449 261 c 0,44,45
 459 286 459 286 479 289.5 c 128,-1,46
 499 293 499 293 509 284 c 0,47,48
 525 266 525 266 515 239 c 0,49,50
 511 227 511 227 503 211 c 128,-1,51
 495 195 495 195 486.5 178.5 c 128,-1,52
 478 162 478 162 469.5 148.5 c 128,-1,53
 461 135 461 135 455 129 c 1,54,55
 473 105 473 105 484.5 90.5 c 128,-1,56
 496 76 496 76 502 68 c 0,57,58
 509 58 509 58 513 55 c 1,0,1
389 397 m 0,59,60
 394 414 394 414 381 429.5 c 128,-1,61
 368 445 368 445 339 445 c 0,62,63
 309 445 309 445 290.5 432 c 128,-1,64
 272 419 272 419 267 408 c 0,65,66
 258 386 258 386 267 363.5 c 128,-1,67
 276 341 276 341 301 325 c 1,68,69
 303 323 303 323 315.5 328 c 128,-1,70
 328 333 328 333 343 343 c 128,-1,71
 358 353 358 353 371.5 366.5 c 128,-1,72
 385 380 385 380 389 397 c 0,59,60
244 249 m 1,73,74
 207 234 207 234 186.5 211.5 c 128,-1,75
 166 189 166 189 158.5 165.5 c 128,-1,76
 151 142 151 142 155.5 122 c 128,-1,77
 160 102 160 102 172 91 c 0,78,79
 196 69 196 69 225.5 69 c 128,-1,80
 255 69 255 69 282 78.5 c 128,-1,81
 309 88 309 88 329 102.5 c 128,-1,82
 349 117 349 117 355 125 c 1,83,-1
 244 249 l 1,73,74
EndSplineSet
EndChar
StartChar: quotesingle
Encoding: 39 39 8
Width: 179
Flags: W
Fore
198 340 m 1,0,1
 193 315 193 315 179 305.5 c 128,-1,2
 165 296 165 296 152 296 c 0,3,4
 132 296 132 296 125.5 308.5 c 128,-1,5
 119 321 119 321 124 340 c 2,6,-1
 146 443 l 2,7,8
 150 462 150 462 161 475 c 128,-1,9
 172 488 172 488 193 488 c 0,10,11
 211 488 211 488 217.5 474.5 c 128,-1,12
 224 461 224 461 220 443 c 2,13,-1
 198 340 l 1,14,-1
 198 340 l 1,0,1
EndSplineSet
EndChar
StartChar: parenleft
Encoding: 40 40 9
Width: 300
Flags: W
Fore
198 -85 m 0,0,1
 198 -87 198 -87 198 -93.5 c 128,-1,2
 198 -100 198 -100 194.5 -107 c 128,-1,3
 191 -114 191 -114 182.5 -120.5 c 128,-1,4
 174 -127 174 -127 158 -130 c 0,5,6
 151 -132 151 -132 144.5 -128.5 c 128,-1,7
 138 -125 138 -125 133.5 -120 c 128,-1,8
 129 -115 129 -115 126 -109 c 128,-1,9
 123 -103 123 -103 123 -99 c 0,10,11
 123 -98 123 -98 120.5 -76.5 c 128,-1,12
 118 -55 118 -55 118 -17 c 128,-1,13
 118 21 118 21 123 75 c 128,-1,14
 128 129 128 129 142 196 c 256,15,16
 156 263 156 263 174 317.5 c 128,-1,17
 192 372 192 372 208.5 410 c 128,-1,18
 225 448 225 448 236.5 469 c 128,-1,19
 248 490 248 490 249 492 c 0,20,21
 251 496 251 496 255.5 501.5 c 128,-1,22
 260 507 260 507 266.5 512.5 c 128,-1,23
 273 518 273 518 281 521 c 128,-1,24
 289 524 289 524 297 523 c 0,25,26
 309 521 309 521 314.5 515 c 128,-1,27
 320 509 320 509 321.5 502 c 128,-1,28
 323 495 323 495 321.5 488.5 c 128,-1,29
 320 482 320 482 318 478 c 2,30,31
 307 458 l 130,-1,32
 296 438 296 438 281 401 c 128,-1,33
 266 364 266 364 248.5 312 c 128,-1,34
 231 260 231 260 217 196 c 256,35,36
 203 132 203 132 198.5 80 c 128,-1,37
 194 28 194 28 194 -8.5 c 128,-1,38
 194 -45 194 -45 196 -65 c 128,-1,39
 198 -84 198 -84 198 -85 c 0,0,1
EndSplineSet
EndChar
StartChar: parenright
Encoding: 41 41 10
Width: 300
Flags: W
Fore
240 196 m 256,0,1
 226 129 226 129 208 75 c 128,-1,2
 190 21 190 21 174 -17 c 128,-1,3
 158 -55 158 -55 146.5 -76.5 c 128,-1,4
 135 -98 135 -98 134 -99 c 2,5,6
 132 -103 132 -103 126.5 -109 c 128,-1,7
 121 -115 121 -115 114.5 -120 c 128,-1,8
 108 -125 108 -125 100.5 -128.5 c 128,-1,9
 93 -132 93 -132 86 -130 c 0,10,11
 71 -127 71 -127 65.5 -120.5 c 128,-1,12
 60 -114 60 -114 59.5 -107 c 128,-1,13
 59 -100 59 -100 61.5 -93.5 c 128,-1,14
 64 -87 64 -87 65 -85 c 2,15,16
 76 -65 l 130,-1,17
 87 -45 87 -45 102.5 -8.5 c 128,-1,18
 118 28 118 28 135 80 c 128,-1,19
 152 132 152 132 166 196 c 256,20,21
 180 260 180 260 184.5 312 c 128,-1,22
 189 364 189 364 189 401 c 128,-1,23
 189 438 189 438 187 458 c 128,-1,24
 185 477 185 477 185 478 c 0,25,26
 184 482 184 482 185 488.5 c 128,-1,27
 186 495 186 495 190.5 502 c 128,-1,28
 195 509 195 509 203 515 c 128,-1,29
 211 521 211 521 225 523 c 0,30,31
 234 524 234 524 240.5 521 c 128,-1,32
 247 518 247 518 251 512.5 c 128,-1,33
 255 507 255 507 257 501.5 c 128,-1,34
 259 496 259 496 260 492 c 1,35,36
 260 490 260 490 262.5 469 c 128,-1,37
 265 448 265 448 264.5 410 c 128,-1,38
 264 372 264 372 259 317.5 c 128,-1,39
 254 263 254 263 240 196 c 256,0,1
EndSplineSet
EndChar
StartChar: asterisk
Encoding: 42 42 11
Width: 458
Flags: W
Fore
413 301 m 1,0,1
 413 289 413 289 403 280 c 0,2,3
 383 262 383 262 363 272 c 1,4,5
 352 282 352 282 341 293 c 128,-1,6
 330 304 330 304 320 316 c 1,7,8
 318 299 318 299 316.5 281.5 c 128,-1,9
 315 264 315 264 311 248 c 0,10,11
 309 237 309 237 298.5 229 c 128,-1,12
 288 221 288 221 277 221 c 256,13,14
 266 221 266 221 259 229 c 128,-1,15
 252 237 252 237 254 248 c 0,16,17
 258 265 258 265 263.5 282 c 128,-1,18
 269 299 269 299 275 316 c 1,19,20
 258 305 258 305 243 294 c 128,-1,21
 228 283 228 283 212 272 c 0,22,23
 203 266 203 266 191.5 268.5 c 128,-1,24
 180 271 180 271 176 280 c 0,25,26
 171 292 171 292 176 303 c 128,-1,27
 181 314 181 314 189 319 c 0,28,29
 210 330 210 330 228 339.5 c 128,-1,30
 246 349 246 349 269 360 c 1,31,32
 250 371 250 371 237 380.5 c 128,-1,33
 224 390 224 390 207 401 c 0,34,35
 199 407 199 407 200 418.5 c 128,-1,36
 201 430 201 430 210 440 c 0,37,38
 218 449 218 449 230 451.5 c 128,-1,39
 242 454 242 454 250 448 c 1,40,41
 261 437 261 437 271.5 426 c 128,-1,42
 282 415 282 415 293 404 c 1,43,44
 295 421 295 421 296.5 438.5 c 128,-1,45
 298 456 298 456 302 472 c 0,46,47
 304 485 304 485 314.5 492 c 128,-1,48
 325 499 325 499 337 499 c 0,49,50
 348 499 348 499 355 492.5 c 128,-1,51
 362 486 362 486 359 472 c 0,52,53
 355 455 355 455 349 437.5 c 128,-1,54
 343 420 343 420 338 403 c 1,55,56
 354 416 354 416 369.5 426.5 c 128,-1,57
 385 437 385 437 401 448 c 1,58,59
 426 459 426 459 437 440 c 0,60,61
 444 428 444 428 437.5 416.5 c 128,-1,62
 431 405 431 405 424 401 c 0,63,64
 404 387 404 387 385.5 380 c 128,-1,65
 367 373 367 373 344 360 c 1,66,67
 361 347 361 347 376.5 340 c 128,-1,68
 392 333 392 333 406 319 c 0,69,70
 415 312 415 312 413 301 c 1,0,1
EndSplineSet
EndChar
StartChar: plus
Encoding: 43 43 12
Width: 489
Flags: W
Fore
465 174 m 0,0,1
 463 160 463 160 450 148 c 128,-1,2
 437 136 437 136 412 136 c 2,3,-1
 308 136 l 1,4,-1
 291 53 l 2,5,6
 286 28 286 28 272 18 c 128,-1,7
 258 8 258 8 244 8 c 0,8,9
 224 8 224 8 217.5 21 c 128,-1,10
 211 34 211 34 216 53 c 2,11,-1
 233 136 l 1,12,-1
 130 136 l 2,13,14
 111 136 111 136 100 145 c 128,-1,15
 89 154 89 154 93 174 c 0,16,17
 98 193 98 193 112.5 201.5 c 128,-1,18
 127 210 127 210 146 210 c 2,19,-1
 249 210 l 1,20,-1
 267 296 l 2,21,22
 272 315 272 315 283.5 327.5 c 128,-1,23
 295 340 295 340 315 340 c 0,24,25
 333 340 333 340 340 327 c 128,-1,26
 347 314 347 314 342 296 c 2,27,-1
 324 210 l 1,28,-1
 428 210 l 2,29,30
 447 210 447 210 458.5 201.5 c 128,-1,31
 470 193 470 193 465 174 c 0,0,1
EndSplineSet
EndChar
StartChar: comma
Encoding: 44 44 13
Width: 235
Flags: W
Fore
64 54 m 1,0,1
 67 70 67 70 80 85 c 128,-1,2
 93 100 93 100 110 108 c 0,3,4
 128 115 128 115 142.5 113.5 c 128,-1,5
 157 112 157 112 167.5 104.5 c 128,-1,6
 178 97 178 97 184 85 c 128,-1,7
 190 73 190 73 190 58 c 0,8,9
 190 30 190 30 178.5 4.5 c 128,-1,10
 167 -21 167 -21 149 -42 c 128,-1,11
 131 -63 131 -63 109 -78 c 128,-1,12
 87 -93 87 -93 67 -100 c 0,13,14
 52 -105 52 -105 42.5 -102 c 128,-1,15
 33 -99 33 -99 29.5 -92.5 c 128,-1,16
 26 -86 26 -86 29 -78 c 128,-1,17
 32 -70 32 -70 43 -65 c 0,18,19
 66 -56 66 -56 85 -44 c 128,-1,20
 104 -32 104 -32 120 -6 c 1,21,22
 118 -6 118 -6 115 -6.5 c 128,-1,23
 112 -7 112 -7 110 -7 c 0,24,25
 84 -7 84 -7 71.5 10.5 c 128,-1,26
 59 28 59 28 64 52 c 1,27,-1
 64 54 l 1,0,1
EndSplineSet
EndChar
StartChar: hyphen
Encoding: 45 45 14
Width: 410
Flags: W
Fore
389 174 m 0,0,1
 386 160 386 160 374 148 c 128,-1,2
 362 136 362 136 337 136 c 2,3,-1
 128 136 l 2,4,5
 109 136 109 136 98.5 145 c 128,-1,6
 88 154 88 154 92 174 c 0,7,8
 97 193 97 193 111.5 201.5 c 128,-1,9
 126 210 126 210 144 210 c 2,10,-1
 353 210 l 2,11,12
 371 210 371 210 382.5 201.5 c 128,-1,13
 394 193 394 193 389 174 c 0,0,1
EndSplineSet
EndChar
StartChar: period
Encoding: 46 46 15
Width: 228
Flags: W
Fore
63 51 m 0,0,1
 69 77 69 77 90 94.5 c 128,-1,2
 111 112 111 112 137 112 c 256,3,4
 163 112 163 112 177 94.5 c 128,-1,5
 191 77 191 77 185 51 c 0,6,7
 180 25 180 25 158.5 7.5 c 128,-1,8
 137 -10 137 -10 111 -10 c 256,9,10
 85 -10 85 -10 71.5 7.5 c 128,-1,11
 58 25 58 25 63 51 c 0,0,1
EndSplineSet
EndChar
StartChar: slash
Encoding: 47 47 16
Width: 374
Flags: W
Fore
426 467 m 0,0,1
 429 455 429 455 420 440 c 2,2,-1
 96 -46 l 2,3,4
 88 -60 88 -60 72.5 -65 c 128,-1,5
 57 -70 57 -70 45 -64 c 0,6,7
 34 -58 34 -58 31.5 -44 c 128,-1,8
 29 -30 29 -30 37 -17 c 0,9,10
 50 3 50 3 90 62 c 0,11,12
 107 87 107 87 131 123 c 128,-1,13
 155 159 155 159 188 208.5 c 128,-1,14
 221 258 221 258 264 322.5 c 128,-1,15
 307 387 307 387 361 469 c 0,16,17
 370 483 370 483 385 488 c 128,-1,18
 400 493 400 493 412 487 c 256,19,20
 424 481 424 481 426 467 c 0,0,1
EndSplineSet
EndChar
StartChar: zero
Encoding: 48 48 17
Width: 481
Flags: W
Fore
493 241 m 0,0,1
 479 175 479 175 452.5 127.5 c 128,-1,2
 426 80 426 80 392 49.5 c 128,-1,3
 358 19 358 19 318.5 4.5 c 128,-1,4
 279 -10 279 -10 238 -10 c 0,5,6
 193 -10 193 -10 159.5 5 c 128,-1,7
 126 20 126 20 106 51 c 128,-1,8
 86 82 86 82 81.5 129.5 c 128,-1,9
 77 177 77 177 91 241 c 0,10,11
 109 326 109 326 142.5 375.5 c 128,-1,12
 176 425 176 425 213.5 451 c 128,-1,13
 251 477 251 477 287 484.5 c 128,-1,14
 323 492 323 492 345 492 c 0,15,16
 393 492 393 492 426.5 474 c 128,-1,17
 460 456 460 456 479 423 c 128,-1,18
 498 390 498 390 501.5 344 c 128,-1,19
 505 298 505 298 493 241 c 0,0,1
421 241 m 0,20,21
 458 419 458 419 330 419 c 0,22,23
 263 419 263 419 221.5 370 c 128,-1,24
 180 321 180 321 163 241 c 0,25,26
 143 150 143 150 167.5 106.5 c 128,-1,27
 192 63 192 63 254 63 c 256,28,29
 316 63 316 63 359 107.5 c 128,-1,30
 402 152 402 152 421 241 c 0,20,21
EndSplineSet
EndChar
StartChar: one
Encoding: 49 49 18
Width: 353
Flags: W
Fore
258 34 m 1,0,1
 254 19 254 19 241.5 8 c 128,-1,2
 229 -3 229 -3 214 -3 c 256,3,4
 199 -3 199 -3 190.5 8 c 128,-1,5
 182 19 182 19 186 34 c 2,6,-1
 265 405 l 1,7,-1
 181 376 l 2,8,9
 166 371 166 371 153.5 377 c 128,-1,10
 141 383 141 383 139 397 c 256,11,12
 137 411 137 411 146 425 c 128,-1,13
 155 439 155 439 170 444 c 0,14,15
 221 461 221 461 249 471 c 128,-1,16
 277 481 277 481 290 486 c 0,17,18
 305 491 305 491 308 492 c 0,19,20
 322 496 322 496 330.5 493.5 c 128,-1,21
 339 491 339 491 343 485 c 128,-1,22
 347 479 347 479 348 471.5 c 128,-1,23
 349 464 349 464 348 457 c 2,24,-1
 258 34 l 1,25,-1
 258 34 l 1,0,1
EndSplineSet
EndChar
StartChar: two
Encoding: 50 50 19
Width: 461
Flags: W
Fore
427 36 m 256,0,1
 424 21 424 21 411.5 10.5 c 128,-1,2
 399 0 399 0 384 0 c 2,3,-1
 80 0 l 2,4,5
 78 0 78 0 73 0.5 c 128,-1,6
 68 1 68 1 62.5 3 c 128,-1,7
 57 5 57 5 52 10 c 128,-1,8
 47 15 47 15 46 24 c 0,9,10
 43 36 43 36 51.5 50 c 128,-1,11
 60 64 60 64 66 69 c 2,12,-1
 360 269 l 2,13,14
 391 291 391 291 403 318.5 c 128,-1,15
 415 346 415 346 409.5 370 c 128,-1,16
 404 394 404 394 383.5 410 c 128,-1,17
 363 426 363 426 329 426 c 256,18,19
 295 426 295 426 271 415.5 c 128,-1,20
 247 405 247 405 230.5 389.5 c 128,-1,21
 214 374 214 374 203.5 355.5 c 128,-1,22
 193 337 193 337 187 322 c 0,23,24
 182 307 182 307 169 297 c 128,-1,25
 156 287 156 287 142 288 c 0,26,27
 127 289 127 289 119.5 300.5 c 128,-1,28
 112 312 112 312 116 327 c 0,29,30
 137 402 137 402 196.5 448.5 c 128,-1,31
 256 495 256 495 344 495 c 0,32,33
 403 495 403 495 439.5 465.5 c 128,-1,34
 476 436 476 436 485 393 c 128,-1,35
 494 350 494 350 473 301.5 c 128,-1,36
 452 253 452 253 396 215 c 2,37,-1
 187 72 l 1,38,-1
 399 72 l 2,39,40
 414 72 414 72 422 61.5 c 128,-1,41
 430 51 430 51 427 36 c 256,0,1
EndSplineSet
EndChar
StartChar: three
Encoding: 51 51 20
Width: 447
Flags: W
Fore
431 140 m 0,0,1
 423 103 423 103 401.5 75 c 128,-1,2
 380 47 380 47 350 28.5 c 128,-1,3
 320 10 320 10 284.5 0.5 c 128,-1,4
 249 -9 249 -9 213 -9 c 0,5,6
 180 -9 180 -9 149 0 c 128,-1,7
 118 9 118 9 96 28 c 128,-1,8
 74 47 74 47 65 77.5 c 128,-1,9
 56 108 56 108 65 151 c 0,10,11
 68 166 68 166 81 176.5 c 128,-1,12
 94 187 94 187 109 187 c 256,13,14
 124 187 124 187 132.5 176.5 c 128,-1,15
 141 166 141 166 138 151 c 0,16,17
 132 121 132 121 140.5 102.5 c 128,-1,18
 149 84 149 84 164 73 c 128,-1,19
 179 62 179 62 196.5 58 c 128,-1,20
 214 54 214 54 225 54 c 0,21,22
 245 54 245 54 266.5 60 c 128,-1,23
 288 66 288 66 307.5 77.5 c 128,-1,24
 327 89 327 89 341 106.5 c 128,-1,25
 355 124 355 124 360 147 c 256,26,27
 365 170 365 170 361 184 c 128,-1,28
 357 198 357 198 349.5 205.5 c 128,-1,29
 342 213 342 213 332.5 215 c 128,-1,30
 323 217 323 217 317 217 c 2,31,-1
 248 217 l 2,32,33
 233 217 233 217 224.5 227.5 c 128,-1,34
 216 238 216 238 219 253 c 0,35,36
 223 268 223 268 235.5 279 c 128,-1,37
 248 290 248 290 263 290 c 2,38,-1
 329 290 l 2,39,40
 337 290 337 290 347.5 295.5 c 128,-1,41
 358 301 358 301 367 311.5 c 128,-1,42
 376 322 376 322 382.5 337 c 128,-1,43
 389 352 389 352 389 370 c 0,44,45
 390 398 390 398 366 413.5 c 128,-1,46
 342 429 342 429 307 429 c 0,47,48
 276 429 276 429 254 421.5 c 128,-1,49
 232 414 232 414 217 403.5 c 128,-1,50
 202 393 202 393 194.5 381.5 c 128,-1,51
 187 370 187 370 185 362 c 0,52,53
 182 347 182 347 169.5 336.5 c 128,-1,54
 157 326 157 326 142 326 c 256,55,56
 127 326 127 326 118.5 336.5 c 128,-1,57
 110 347 110 347 113 362 c 0,58,59
 117 382 117 382 132.5 405.5 c 128,-1,60
 148 429 148 429 173.5 449.5 c 128,-1,61
 199 470 199 470 236 484 c 128,-1,62
 273 498 273 498 321 498 c 0,63,64
 357 498 357 498 384.5 489 c 128,-1,65
 412 480 412 480 430 464 c 128,-1,66
 448 448 448 448 457 427.5 c 128,-1,67
 466 407 466 407 464 383 c 0,68,69
 460 338 460 338 439.5 304.5 c 128,-1,70
 419 271 419 271 387 254 c 1,71,72
 417 246 417 246 429 216.5 c 128,-1,73
 441 187 441 187 431 140 c 0,0,1
EndSplineSet
EndChar
StartChar: four
Encoding: 52 52 21
Width: 489
Flags: W
Fore
477 122 m 0,0,1
 474 107 474 107 461.5 96.5 c 128,-1,2
 449 86 449 86 434 86 c 2,3,-1
 406 86 l 1,4,-1
 394 32 l 2,5,6
 391 17 391 17 378.5 6.5 c 128,-1,7
 366 -4 366 -4 351 -4 c 256,8,9
 336 -4 336 -4 327.5 6.5 c 128,-1,10
 319 17 319 17 322 32 c 2,11,-1
 334 86 l 1,12,-1
 79 86 l 2,13,14
 67 86 67 86 60 92 c 128,-1,15
 53 98 53 98 51 107 c 128,-1,16
 49 116 49 116 52 126.5 c 128,-1,17
 55 137 55 137 64 145 c 2,18,-1
 418 478 l 2,19,20
 431 490 431 490 444 492.5 c 128,-1,21
 457 495 457 495 466.5 491 c 128,-1,22
 476 487 476 487 481.5 477.5 c 128,-1,23
 487 468 487 468 484 456 c 2,24,-1
 421 158 l 1,25,-1
 449 158 l 2,26,27
 464 158 464 158 472.5 147.5 c 128,-1,28
 481 137 481 137 477 122 c 0,0,1
395 376 m 1,29,-1
 165 158 l 1,30,-1
 349 158 l 1,31,-1
 395 376 l 1,29,-1
EndSplineSet
EndChar
StartChar: five
Encoding: 53 53 22
Width: 470
Flags: W
Fore
443 112 m 0,0,1
 420 65 420 65 379 34 c 128,-1,2
 338 3 338 3 287 -8 c 0,3,4
 246 -17 246 -17 207 -13 c 128,-1,5
 168 -9 168 -9 137.5 8 c 128,-1,6
 107 25 107 25 89 55 c 128,-1,7
 71 85 71 85 71 129 c 0,8,9
 71 144 71 144 82 156.5 c 128,-1,10
 93 169 93 169 108 172 c 0,11,12
 124 175 124 175 134.5 166.5 c 128,-1,13
 145 158 145 158 145 143 c 0,14,15
 145 94 145 94 175 73.5 c 128,-1,16
 205 53 205 53 268 58 c 0,17,18
 304 61 304 61 335 86 c 128,-1,19
 366 111 366 111 381.5 143.5 c 128,-1,20
 397 176 397 176 391.5 209.5 c 128,-1,21
 386 243 386 243 350 264 c 0,22,23
 333 274 333 274 308 276 c 128,-1,24
 283 278 283 278 258 273.5 c 128,-1,25
 233 269 233 269 210.5 258.5 c 128,-1,26
 188 248 188 248 175 235 c 0,27,28
 166 226 166 226 154 223 c 128,-1,29
 142 220 142 220 132 223.5 c 128,-1,30
 122 227 122 227 116 235.5 c 128,-1,31
 110 244 110 244 115 258 c 2,32,-1
 198 488 l 1,33,-1
 478 488 l 2,34,35
 493 488 493 488 501.5 477.5 c 128,-1,36
 510 467 510 467 507 452 c 0,37,38
 503 437 503 437 490.5 426.5 c 128,-1,39
 478 416 478 416 463 416 c 2,40,-1
 246 416 l 1,41,-1
 213 326 l 1,42,43
 243 337 243 337 276.5 341.5 c 128,-1,44
 310 346 310 346 341 342.5 c 128,-1,45
 372 339 372 339 399 327 c 128,-1,46
 426 315 426 315 443 293 c 0,47,48
 455 277 455 277 461 255.5 c 128,-1,49
 467 234 467 234 467 210 c 128,-1,50
 467 186 467 186 461 161 c 128,-1,51
 455 136 455 136 443 112 c 0,0,1
EndSplineSet
EndChar
StartChar: six
Encoding: 54 54 23
Width: 473
Flags: W
Fore
468 169 m 0,0,1
 459 131 459 131 438.5 97.5 c 128,-1,2
 418 64 418 64 388 40 c 128,-1,3
 358 16 358 16 319.5 2 c 128,-1,4
 281 -12 281 -12 238 -11 c 0,5,6
 185 -10 185 -10 150.5 9.5 c 128,-1,7
 116 29 116 29 99 63.5 c 128,-1,8
 82 98 82 98 80.5 144.5 c 128,-1,9
 79 191 79 191 92 245 c 0,10,11
 105 304 105 304 130.5 351.5 c 128,-1,12
 156 399 156 399 191.5 432.5 c 128,-1,13
 227 466 227 466 271 484 c 128,-1,14
 315 502 315 502 365 502 c 0,15,16
 395 502 395 502 420 494 c 128,-1,17
 445 486 445 486 463.5 472.5 c 128,-1,18
 482 459 482 459 493.5 441.5 c 128,-1,19
 505 424 505 424 508 405 c 0,20,21
 510 390 510 390 502.5 376 c 128,-1,22
 495 362 495 362 478 357 c 0,23,24
 462 352 462 352 449.5 358.5 c 128,-1,25
 437 365 437 365 435 380 c 0,26,27
 433 397 433 397 408 413.5 c 128,-1,28
 383 430 383 430 348 430 c 0,29,30
 281 430 281 430 240 391 c 128,-1,31
 199 352 199 352 177 285 c 1,32,33
 208 310 208 310 244.5 325.5 c 128,-1,34
 281 341 281 341 316 341 c 0,35,36
 357 341 357 341 389.5 329 c 128,-1,37
 422 317 422 317 442.5 294.5 c 128,-1,38
 463 272 463 272 470 240.5 c 128,-1,39
 477 209 477 209 468 169 c 0,0,1
396 166 m 0,40,41
 401 189 401 189 395.5 208.5 c 128,-1,42
 390 228 390 228 376.5 242.5 c 128,-1,43
 363 257 363 257 343.5 265 c 128,-1,44
 324 273 324 273 302 273 c 0,45,46
 279 273 279 273 256 265 c 128,-1,47
 233 257 233 257 214 242.5 c 128,-1,48
 195 228 195 228 181 208.5 c 128,-1,49
 167 189 167 189 162 166 c 256,50,51
 157 143 157 143 162.5 123.5 c 128,-1,52
 168 104 168 104 181 90 c 128,-1,53
 194 76 194 76 213.5 68 c 128,-1,54
 233 60 233 60 256 60 c 0,55,56
 280 60 280 60 303 68.5 c 128,-1,57
 326 77 326 77 345 91 c 128,-1,58
 364 105 364 105 377.5 124.5 c 128,-1,59
 391 144 391 144 396 166 c 0,40,41
EndSplineSet
EndChar
StartChar: seven
Encoding: 55 55 24
Width: 442
Flags: W
Fore
170 2 m 2,0,1
 159 -11 159 -11 144 -15 c 128,-1,2
 129 -19 129 -19 117 -11 c 0,3,4
 106 -3 106 -3 105 11 c 128,-1,5
 104 25 104 25 115 38 c 2,6,-1
 409 414 l 1,7,-1
 154 414 l 2,8,9
 139 414 139 414 131 424.5 c 128,-1,10
 123 435 123 435 126 450 c 256,11,12
 129 465 129 465 142 475.5 c 128,-1,13
 155 486 155 486 170 486 c 2,14,-1
 506 486 l 1,15,-1
 489 409 l 1,16,-1
 170 2 l 2,0,1
EndSplineSet
EndChar
StartChar: eight
Encoding: 56 56 25
Width: 452
Flags: W
Fore
450 145 m 256,0,1
 442 107 442 107 419 77 c 128,-1,2
 396 47 396 47 364.5 26 c 128,-1,3
 333 5 333 5 296 -6 c 128,-1,4
 259 -17 259 -17 223 -17 c 256,5,6
 187 -17 187 -17 155 -6 c 128,-1,7
 123 5 123 5 100.5 26 c 128,-1,8
 78 47 78 47 67.5 77 c 128,-1,9
 57 107 57 107 65 145 c 0,10,11
 74 185 74 185 100.5 218 c 128,-1,12
 127 251 127 251 167 274 c 1,13,14
 150 291 150 291 143.5 315.5 c 128,-1,15
 137 340 137 340 142 366 c 0,16,17
 148 394 148 394 166 419 c 128,-1,18
 184 444 184 444 210.5 462.5 c 128,-1,19
 237 481 237 481 268.5 491.5 c 128,-1,20
 300 502 300 502 333 502 c 0,21,22
 363 502 363 502 390 492.5 c 128,-1,23
 417 483 417 483 436.5 465.5 c 128,-1,24
 456 448 456 448 465 422.5 c 128,-1,25
 474 397 474 397 467 366 c 0,26,27
 462 340 462 340 445.5 315.5 c 128,-1,28
 429 291 429 291 404 274 c 1,29,30
 433 254 433 254 445.5 218.5 c 128,-1,31
 458 183 458 183 450 145 c 256,0,1
393 366 m 0,32,33
 400 400 400 400 376.5 417 c 128,-1,34
 353 434 353 434 319 434 c 0,35,36
 304 434 304 434 287 429.5 c 128,-1,37
 270 425 270 425 255.5 416.5 c 128,-1,38
 241 408 241 408 230 395 c 128,-1,39
 219 382 219 382 215 366 c 0,40,41
 210 345 210 345 217.5 332 c 128,-1,42
 225 319 225 319 238 312 c 128,-1,43
 251 305 251 305 265.5 302.5 c 128,-1,44
 280 300 280 300 290 300 c 0,45,46
 302 300 302 300 318 303 c 128,-1,47
 334 306 334 306 349 313.5 c 128,-1,48
 364 321 364 321 376.5 333.5 c 128,-1,49
 389 346 389 346 393 366 c 0,32,33
379 145 m 0,50,51
 385 172 385 172 376 190.5 c 128,-1,52
 367 209 367 209 350.5 220 c 128,-1,53
 334 231 334 231 314 235.5 c 128,-1,54
 294 240 294 240 278 240 c 0,55,56
 275 240 275 240 255.5 238 c 128,-1,57
 236 236 236 236 212 227 c 128,-1,58
 188 218 188 218 165.5 199 c 128,-1,59
 143 180 143 180 136 145 c 0,60,61
 130 118 130 118 138.5 100 c 128,-1,62
 147 82 147 82 162.5 71.5 c 128,-1,63
 178 61 178 61 198 57 c 128,-1,64
 218 53 218 53 235 53 c 0,65,66
 255 53 255 53 278 58 c 128,-1,67
 301 63 301 63 322 74 c 128,-1,68
 343 85 343 85 358.5 102.5 c 128,-1,69
 374 120 374 120 379 145 c 0,50,51
EndSplineSet
EndChar
StartChar: nine
Encoding: 57 57 26
Width: 466
Flags: W
Fore
475 236 m 0,0,1
 447 118 447 118 375.5 52 c 128,-1,2
 304 -14 304 -14 203 -14 c 0,3,4
 169 -14 169 -14 143.5 -6 c 128,-1,5
 118 2 118 2 100 15.5 c 128,-1,6
 82 29 82 29 72.5 46 c 128,-1,7
 63 63 63 63 60 82 c 0,8,9
 57 97 57 97 65 111 c 128,-1,10
 73 125 73 125 89 130 c 0,11,12
 106 135 106 135 117.5 128.5 c 128,-1,13
 129 122 129 122 132 107 c 0,14,15
 136 87 136 87 156 72.5 c 128,-1,16
 176 58 176 58 220 58 c 0,17,18
 287 58 287 58 326.5 93.5 c 128,-1,19
 366 129 366 129 389 196 c 1,20,21
 357 172 357 172 321 156.5 c 128,-1,22
 285 141 285 141 250 141 c 0,23,24
 211 141 211 141 179 153 c 128,-1,25
 147 165 147 165 126 187 c 128,-1,26
 105 209 105 209 97 240.5 c 128,-1,27
 89 272 89 272 98 312 c 0,28,29
 107 350 107 350 127.5 383 c 128,-1,30
 148 416 148 416 178 440 c 128,-1,31
 208 464 208 464 245.5 478 c 128,-1,32
 283 492 283 492 325 492 c 0,33,34
 379 492 379 492 413.5 472.5 c 128,-1,35
 448 453 448 453 466 418.5 c 128,-1,36
 484 384 484 384 485.5 337 c 128,-1,37
 487 290 487 290 475 236 c 0,0,1
404 315 m 0,38,39
 409 338 409 338 403.5 357.5 c 128,-1,40
 398 377 398 377 385 391.5 c 128,-1,41
 372 406 372 406 352.5 414 c 128,-1,42
 333 422 333 422 310 422 c 0,43,44
 286 422 286 422 262.5 413.5 c 128,-1,45
 239 405 239 405 220.5 390.5 c 128,-1,46
 202 376 202 376 188.5 356.5 c 128,-1,47
 175 337 175 337 170 315 c 0,48,49
 160 268 160 268 187 238.5 c 128,-1,50
 214 209 214 209 265 209 c 0,51,52
 315 209 315 209 354.5 238.5 c 128,-1,53
 394 268 394 268 404 315 c 0,38,39
EndSplineSet
EndChar
StartChar: colon
Encoding: 58 58 27
Width: 233
Flags: W
Fore
114 291 m 0,0,1
 120 317 120 317 141 334.5 c 128,-1,2
 162 352 162 352 188 352 c 256,3,4
 214 352 214 352 228 334.5 c 128,-1,5
 242 317 242 317 236 291 c 0,6,7
 231 265 231 265 209.5 247.5 c 128,-1,8
 188 230 188 230 162 230 c 256,9,10
 136 230 136 230 122.5 247.5 c 128,-1,11
 109 265 109 265 114 291 c 0,0,1
64 55 m 0,12,13
 70 81 70 81 91 98.5 c 128,-1,14
 112 116 112 116 138 116 c 256,15,16
 164 116 164 116 178 98.5 c 128,-1,17
 192 81 192 81 186 55 c 0,18,19
 181 29 181 29 159.5 11.5 c 128,-1,20
 138 -6 138 -6 112 -6 c 256,21,22
 86 -6 86 -6 72.5 11.5 c 128,-1,23
 59 29 59 29 64 55 c 0,12,13
EndSplineSet
EndChar
StartChar: semicolon
Encoding: 59 59 28
Width: 235
Flags: W
Fore
64 54 m 1,0,1
 67 70 67 70 80 85 c 128,-1,2
 93 100 93 100 110 108 c 0,3,4
 128 115 128 115 142.5 113.5 c 128,-1,5
 157 112 157 112 167.5 104.5 c 128,-1,6
 178 97 178 97 184 85 c 128,-1,7
 190 73 190 73 190 58 c 0,8,9
 190 30 190 30 178.5 4.5 c 128,-1,10
 167 -21 167 -21 149 -42 c 128,-1,11
 131 -63 131 -63 109 -78 c 128,-1,12
 87 -93 87 -93 67 -100 c 0,13,14
 52 -105 52 -105 42.5 -102 c 128,-1,15
 33 -99 33 -99 29.5 -92.5 c 128,-1,16
 26 -86 26 -86 29 -78 c 128,-1,17
 32 -70 32 -70 43 -65 c 0,18,19
 66 -56 66 -56 85 -44 c 128,-1,20
 104 -32 104 -32 120 -6 c 1,21,22
 118 -6 118 -6 115 -6.5 c 128,-1,23
 112 -7 112 -7 110 -7 c 0,24,25
 84 -7 84 -7 71.5 10.5 c 128,-1,26
 59 28 59 28 64 52 c 1,27,-1
 64 54 l 1,0,1
114 291 m 0,28,29
 120 317 120 317 141 334.5 c 128,-1,30
 162 352 162 352 188 352 c 256,31,32
 214 352 214 352 228 334.5 c 128,-1,33
 242 317 242 317 236 291 c 0,34,35
 231 265 231 265 209.5 247.5 c 128,-1,36
 188 230 188 230 162 230 c 256,37,38
 136 230 136 230 122.5 247.5 c 128,-1,39
 109 265 109 265 114 291 c 0,28,29
EndSplineSet
EndChar
StartChar: less
Encoding: 60 60 29
Width: 460
Flags: W
Fore
402 22 m 256,0,1
 391 8 391 8 374.5 4 c 128,-1,2
 358 0 358 0 345 8 c 2,3,-1
 113 149 l 2,4,5
 105 155 105 155 102.5 162.5 c 128,-1,6
 100 170 100 170 101 177 c 0,7,8
 104 203 104 203 129 216 c 2,9,-1
 419 356 l 2,10,11
 436 364 436 364 450.5 359.5 c 128,-1,12
 465 355 465 355 470 341 c 256,13,14
 475 327 475 327 467.5 311.5 c 128,-1,15
 460 296 460 296 444 288 c 0,16,17
 395 266 395 266 351 246 c 0,18,19
 313 229 313 229 273.5 211 c 128,-1,20
 234 193 234 193 210 182 c 1,21,-1
 399 76 l 2,22,23
 413 68 413 68 413 52 c 128,-1,24
 413 36 413 36 402 22 c 256,0,1
EndSplineSet
EndChar
StartChar: equal
Encoding: 61 61 30
Width: 470
Flags: W
Fore
461 245 m 0,0,1
 458 231 458 231 445.5 219 c 128,-1,2
 433 207 433 207 408 207 c 2,3,-1
 144 207 l 2,4,5
 125 207 125 207 114.5 216 c 128,-1,6
 104 225 104 225 109 245 c 0,7,8
 113 264 113 264 127 273 c 128,-1,9
 141 282 141 282 160 282 c 2,10,-1
 424 282 l 2,11,12
 443 282 443 282 454 272.5 c 128,-1,13
 465 263 465 263 461 245 c 0,0,1
430 103 m 0,14,15
 428 89 428 89 416 77.5 c 128,-1,16
 404 66 404 66 379 66 c 2,17,-1
 115 66 l 2,18,19
 96 66 96 66 85 74.5 c 128,-1,20
 74 83 74 83 78 103 c 0,21,22
 83 123 83 123 97 131.5 c 128,-1,23
 111 140 111 140 130 140 c 2,24,-1
 394 140 l 2,25,26
 413 140 413 140 424 131 c 128,-1,27
 435 122 435 122 430 103 c 0,14,15
EndSplineSet
EndChar
StartChar: greater
Encoding: 62 62 31
Width: 460
Flags: W
Fore
441 177 m 0,0,1
 439 170 439 170 433.5 162.5 c 128,-1,2
 428 155 428 155 417 149 c 2,3,-1
 125 8 l 2,4,5
 109 0 109 0 94 4 c 128,-1,6
 79 8 79 8 74 22 c 256,7,8
 69 36 69 36 76.5 52 c 128,-1,9
 84 68 84 68 101 76 c 2,10,-1
 334 182 l 1,11,12
 314 193 314 193 283 211 c 128,-1,13
 252 229 252 229 221 246 c 0,14,15
 185 266 185 266 146 288 c 0,16,17
 133 296 133 296 132 311.5 c 128,-1,18
 131 327 131 327 142 341 c 256,19,20
 153 355 153 355 170 359.5 c 128,-1,21
 187 364 187 364 199 356 c 2,22,-1
 429 216 l 2,23,24
 451 203 451 203 441 177 c 0,0,1
EndSplineSet
EndChar
StartChar: question
Encoding: 63 63 32
Width: 460
Flags: W
Fore
482 354 m 256,0,1
 475 322 475 322 459 297.5 c 128,-1,2
 443 273 443 273 421.5 256 c 128,-1,3
 400 239 400 239 373 228 c 128,-1,4
 346 217 346 217 318 211 c 0,5,6
 307 209 307 209 296.5 206.5 c 128,-1,7
 286 204 286 204 277 198 c 0,8,9
 266 192 266 192 259 184.5 c 128,-1,10
 252 177 252 177 249 160 c 0,11,12
 243 135 243 135 230 127.5 c 128,-1,13
 217 120 217 120 203 120 c 0,14,15
 182 120 182 120 177 132.5 c 128,-1,16
 172 145 172 145 175 164 c 0,17,18
 178 179 178 179 183 191.5 c 128,-1,19
 188 204 188 204 197 215.5 c 128,-1,20
 206 227 206 227 220 237.5 c 128,-1,21
 234 248 234 248 255 260 c 0,22,23
 269 268 269 268 284.5 272.5 c 128,-1,24
 300 277 300 277 315 280 c 0,25,26
 361 290 361 290 384 316 c 128,-1,27
 407 342 407 342 407.5 369 c 128,-1,28
 408 396 408 396 387 416.5 c 128,-1,29
 366 437 366 437 324 437 c 0,30,31
 292 437 292 437 259.5 422.5 c 128,-1,32
 227 408 227 408 198 383 c 0,33,34
 184 372 184 372 168.5 371.5 c 128,-1,35
 153 371 153 371 144 382 c 256,36,37
 135 393 135 393 138 408.5 c 128,-1,38
 141 424 141 424 154 435 c 0,39,40
 196 471 196 471 242.5 490.5 c 128,-1,41
 289 510 289 510 338 510 c 0,42,43
 383 510 383 510 413.5 497.5 c 128,-1,44
 444 485 444 485 461.5 464 c 128,-1,45
 479 443 479 443 484 414.5 c 128,-1,46
 489 386 489 386 482 354 c 256,0,1
237 38 m 0,47,48
 232 18 232 18 214 3.5 c 128,-1,49
 196 -11 196 -11 175 -11 c 256,50,51
 154 -11 154 -11 142 3.5 c 128,-1,52
 130 18 130 18 135 38 c 0,53,54
 139 58 139 58 157 72.5 c 128,-1,55
 175 87 175 87 196 87 c 256,56,57
 217 87 217 87 229 72.5 c 128,-1,58
 241 58 241 58 237 38 c 0,47,48
EndSplineSet
EndChar
StartChar: at
Encoding: 64 64 33
Width: 694
Flags: W
Fore
661 235 m 0,0,1
 641 188 641 188 610 155.5 c 128,-1,2
 579 123 579 123 538 102 c 0,3,4
 515 90 515 90 488 88 c 128,-1,5
 461 86 461 86 450 99 c 1,6,7
 446 102 446 102 443.5 108.5 c 128,-1,8
 441 115 441 115 443 125 c 1,9,10
 417 106 417 106 387 97.5 c 128,-1,11
 357 89 357 89 328 89 c 0,12,13
 271 89 271 89 245.5 123 c 128,-1,14
 220 157 220 157 236 206 c 0,15,16
 253 258 253 258 300 287 c 128,-1,17
 347 316 347 316 415 316 c 0,18,19
 449 316 449 316 470.5 304.5 c 128,-1,20
 492 293 492 293 501 277 c 1,21,22
 515 313 515 313 505 332 c 0,23,24
 493 362 493 362 432 362 c 0,25,26
 409 362 409 362 388.5 356.5 c 128,-1,27
 368 351 368 351 342 338 c 0,28,29
 325 329 325 329 318 333 c 128,-1,30
 311 337 311 337 309 341 c 0,31,32
 304 352 304 352 311.5 362.5 c 128,-1,33
 319 373 319 373 331 380 c 0,34,35
 391 413 391 413 451 413 c 0,36,37
 533 413 533 413 554 365 c 0,38,39
 565 341 565 341 560 314 c 128,-1,40
 555 287 555 287 545 265 c 2,41,-1
 538 250 l 2,42,43
 533 239 533 239 521.5 213.5 c 128,-1,44
 510 188 510 188 490 142 c 0,45,46
 486 134 486 134 490 132 c 128,-1,47
 494 130 494 130 500 131 c 0,48,49
 507 132 507 132 517 136 c 0,50,51
 545 148 545 148 572.5 175 c 128,-1,52
 600 202 600 202 617 244 c 1,53,54
 615 240 615 240 621.5 255.5 c 128,-1,55
 628 271 628 271 631.5 297.5 c 128,-1,56
 635 324 635 324 631.5 356 c 128,-1,57
 628 388 628 388 606 418 c 0,58,59
 585 447 585 447 552 463 c 128,-1,60
 519 479 519 479 480 481.5 c 128,-1,61
 441 484 441 484 398.5 473.5 c 128,-1,62
 356 463 356 463 317 441 c 128,-1,63
 278 419 278 419 245 384.5 c 128,-1,64
 212 350 212 350 192 305 c 0,65,66
 170 256 170 256 164 217.5 c 128,-1,67
 158 179 158 179 162 149.5 c 128,-1,68
 166 120 166 120 178 98.5 c 128,-1,69
 190 77 190 77 204 62.5 c 128,-1,70
 218 48 218 48 231.5 39.5 c 128,-1,71
 245 31 245 31 253 27 c 0,72,73
 280 13 280 13 321 9 c 128,-1,74
 362 5 362 5 406 10.5 c 128,-1,75
 450 16 450 16 490.5 32 c 128,-1,76
 531 48 531 48 556 75 c 0,77,78
 564 83 564 83 576.5 88.5 c 128,-1,79
 589 94 589 94 598 88 c 0,80,81
 606 82 606 82 607 71.5 c 128,-1,82
 608 61 608 61 599 51 c 0,83,84
 569 14 569 14 518.5 -8.5 c 128,-1,85
 468 -31 468 -31 413.5 -39.5 c 128,-1,86
 359 -48 359 -48 306.5 -43.5 c 128,-1,87
 254 -39 254 -39 220 -21 c 0,88,89
 181 -1 181 -1 154 31.5 c 128,-1,90
 127 64 127 64 115.5 106.5 c 128,-1,91
 104 149 104 149 110 202 c 128,-1,92
 116 255 116 255 143 317 c 0,93,94
 168 373 168 373 208 415 c 128,-1,95
 248 457 248 457 295.5 484.5 c 128,-1,96
 343 512 343 512 394.5 524.5 c 128,-1,97
 446 537 446 537 494.5 533.5 c 128,-1,98
 543 530 543 530 584.5 510.5 c 128,-1,99
 626 491 626 491 653 455 c 0,100,101
 673 427 673 427 680 396.5 c 128,-1,102
 687 366 687 366 685.5 336.5 c 128,-1,103
 684 307 684 307 677 280.5 c 128,-1,104
 670 254 670 254 661 235 c 0,0,1
468 204 m 0,105,106
 479 229 479 229 470 244 c 0,107,108
 456 266 456 266 402 266 c 0,109,110
 383 266 383 266 364 262 c 128,-1,111
 345 258 345 258 328.5 250.5 c 128,-1,112
 312 243 312 243 300 231 c 128,-1,113
 288 219 288 219 283 204 c 0,114,115
 272 170 272 170 291 154 c 128,-1,116
 310 138 310 138 343 138 c 256,117,118
 376 138 376 138 398.5 146 c 128,-1,119
 421 154 421 154 435.5 165 c 128,-1,120
 450 176 450 176 457.5 187 c 128,-1,121
 465 198 465 198 468 204 c 0,105,106
EndSplineSet
EndChar
StartChar: A
Encoding: 65 65 34
Width: 496
Flags: W
Fore
466 45 m 2,0,1
 461 20 461 20 448 10 c 128,-1,2
 435 0 435 0 421 0 c 0,3,4
 416 0 416 0 410 1.5 c 128,-1,5
 404 3 404 3 399 8 c 128,-1,6
 394 13 394 13 391.5 21.5 c 128,-1,7
 389 30 389 30 392 45 c 2,8,-1
 426 205 l 1,9,-1
 158 205 l 1,10,-1
 124 45 l 2,11,12
 119 20 119 20 105.5 10 c 128,-1,13
 92 0 92 0 78 0 c 0,14,15
 73 0 73 0 67 1.5 c 128,-1,16
 61 3 61 3 56 8 c 128,-1,17
 51 13 51 13 49 21.5 c 128,-1,18
 47 30 47 30 50 45 c 0,19,20
 59 89 59 89 69 134 c 0,21,22
 77 172 77 172 86 215.5 c 128,-1,23
 95 259 95 259 103 294 c 0,24,25
 111 333 111 333 129.5 368 c 128,-1,26
 148 403 148 403 178.5 430 c 128,-1,27
 209 457 209 457 252 473 c 128,-1,28
 295 489 295 489 353 489 c 0,29,30
 410 489 410 489 446 473.5 c 128,-1,31
 482 458 482 458 501 431.5 c 128,-1,32
 520 405 520 405 524 370 c 128,-1,33
 528 335 528 335 520 297 c 2,34,-1
 466 45 l 2,0,1
447 300 m 2,35,36
 452 322 452 322 450.5 343 c 128,-1,37
 449 364 449 364 437.5 381 c 128,-1,38
 426 398 426 398 402.5 408.5 c 128,-1,39
 379 419 379 419 339 419 c 0,40,41
 298 419 298 419 269.5 408.5 c 128,-1,42
 241 398 241 398 222 381 c 128,-1,43
 203 364 203 364 193 343 c 128,-1,44
 183 322 183 322 178 300 c 0,45,46
 177 295 177 295 176 291 c 0,47,48
 174 281 174 281 174 279 c 1,49,-1
 443 279 l 1,50,51
 443 281 443 281 445 289.5 c 128,-1,52
 447 298 447 298 447 300 c 2,35,36
EndSplineSet
EndChar
StartChar: B
Encoding: 66 66 35
Width: 496
Flags: W
Fore
216 0 m 2,0,1
 183 0 183 0 153 9 c 128,-1,2
 123 18 123 18 103 37.5 c 128,-1,3
 83 57 83 57 74 86.5 c 128,-1,4
 65 116 65 116 74 157 c 2,5,-1
 110 329 l 2,6,7
 120 375 120 375 145.5 406 c 128,-1,8
 171 437 171 437 204.5 456 c 128,-1,9
 238 475 238 475 277.5 483 c 128,-1,10
 317 491 317 491 355 491 c 0,11,12
 395 491 395 491 430.5 481 c 128,-1,13
 466 471 466 471 490.5 451.5 c 128,-1,14
 515 432 515 432 526.5 404 c 128,-1,15
 538 376 538 376 531 339 c 0,16,17
 516 274 516 274 455 243 c 1,18,19
 481 227 481 227 488 199.5 c 128,-1,20
 495 172 495 172 488 140 c 0,21,22
 476 82 476 82 423 40 c 0,23,24
 398 20 398 20 361 10 c 128,-1,25
 324 0 324 0 295 0 c 2,26,-1
 216 0 l 2,0,1
349 279 m 2,27,28
 387 277 387 277 418 293 c 128,-1,29
 449 309 449 309 456 343 c 0,30,31
 460 363 460 363 451 377 c 128,-1,32
 442 391 442 391 425 399.5 c 128,-1,33
 408 408 408 408 385 412 c 128,-1,34
 362 416 362 416 339 416 c 0,35,36
 317 416 317 416 292 413 c 128,-1,37
 267 410 267 410 245 400.5 c 128,-1,38
 223 391 223 391 206.5 373.5 c 128,-1,39
 190 356 190 356 184 327 c 2,40,-1
 149 160 l 2,41,42
 144 136 144 136 148.5 120 c 128,-1,43
 153 104 153 104 164 93.5 c 128,-1,44
 175 83 175 83 191 78 c 128,-1,45
 207 73 207 73 225 71 c 2,46,-1
 310 71 l 2,47,48
 344 71 344 71 374.5 88 c 128,-1,49
 405 105 405 105 413 140 c 0,50,51
 427 205 427 205 333 205 c 2,52,-1
 242 205 l 2,53,54
 217 205 217 205 209.5 217 c 128,-1,55
 202 229 202 229 205 243 c 0,56,57
 210 263 210 263 224.5 271 c 128,-1,58
 239 279 239 279 258 279 c 2,59,-1
 349 279 l 2,27,28
EndSplineSet
EndChar
StartChar: C
Encoding: 67 67 36
Width: 467
Flags: W
Fore
528 416 m 0,0,1
 536 405 536 405 532.5 389 c 128,-1,2
 529 373 529 373 515 362 c 256,3,4
 501 351 501 351 485.5 351.5 c 128,-1,5
 470 352 470 352 462 363 c 0,6,7
 444 388 444 388 416.5 401 c 128,-1,8
 389 414 389 414 356 414 c 0,9,10
 283 414 283 414 228.5 371 c 128,-1,11
 174 328 174 328 156 243 c 0,12,13
 147 201 147 201 152.5 171.5 c 128,-1,14
 158 142 158 142 171.5 122 c 128,-1,15
 185 102 185 102 202.5 90.5 c 128,-1,16
 220 79 220 79 236 75 c 0,17,18
 260 68 260 68 284.5 69.5 c 128,-1,19
 309 71 309 71 332 78.5 c 128,-1,20
 355 86 355 86 375 97.5 c 128,-1,21
 395 109 395 109 410 122 c 0,22,23
 421 131 421 131 438 133 c 128,-1,24
 455 135 455 135 464 123 c 0,25,26
 475 108 475 108 468 91.5 c 128,-1,27
 461 75 461 75 453 69 c 0,28,29
 386 13 386 13 320 1 c 128,-1,30
 254 -11 254 -11 202 2 c 0,31,32
 175 9 175 9 148 28 c 128,-1,33
 121 47 121 47 102.5 78 c 128,-1,34
 84 109 84 109 76.5 150.5 c 128,-1,35
 69 192 69 192 80 243 c 0,36,37
 91 296 91 296 118 341 c 128,-1,38
 145 386 145 386 183.5 419 c 128,-1,39
 222 452 222 452 270 470.5 c 128,-1,40
 318 489 318 489 372 489 c 0,41,42
 421 489 421 489 461.5 470 c 128,-1,43
 502 451 502 451 528 416 c 0,0,1
EndSplineSet
EndChar
StartChar: D
Encoding: 68 68 37
Width: 491
Flags: W
Fore
512 243 m 256,0,1
 489 135 489 135 408 70 c 0,2,3
 373 42 373 42 335.5 27.5 c 128,-1,4
 298 13 298 13 267.5 6.5 c 128,-1,5
 237 0 237 0 216.5 -0.5 c 128,-1,6
 196 -1 196 -1 194 -1 c 2,7,-1
 162 -1 l 2,8,9
 140 -1 140 -1 119.5 7 c 128,-1,10
 99 15 99 15 84.5 29 c 128,-1,11
 70 43 70 43 64 62.5 c 128,-1,12
 58 82 58 82 64 105 c 1,13,14
 63 103 63 103 69 130 c 0,15,16
 72 142 72 142 76 161 c 128,-1,17
 80 180 80 180 86 209.5 c 128,-1,18
 92 239 92 239 101 280.5 c 128,-1,19
 110 322 110 322 122 378 c 0,20,21
 127 402 127 402 140.5 422 c 128,-1,22
 154 442 154 442 173.5 456.5 c 128,-1,23
 193 471 193 471 217 479 c 128,-1,24
 241 487 241 487 267 487 c 2,25,-1
 298 487 l 2,26,27
 300 487 300 487 320 486.5 c 128,-1,28
 340 486 340 486 368.5 479.5 c 128,-1,29
 397 473 397 473 428 458.5 c 128,-1,30
 459 444 459 444 482 416 c 0,31,32
 535 351 535 351 512 243 c 256,0,1
438 243 m 256,33,34
 455 321 455 321 420 363 c 0,35,36
 403 382 403 382 380 392.5 c 128,-1,37
 357 403 357 403 335.5 407.5 c 128,-1,38
 314 412 314 412 298.5 412.5 c 128,-1,39
 284 413 284 413 283 413 c 2,40,-1
 252 413 l 2,41,42
 226 413 226 413 212 400.5 c 128,-1,43
 198 388 198 388 196 377 c 1,44,45
 196 379 196 379 191 353 c 0,46,47
 188 341 188 341 184 322 c 128,-1,48
 180 303 180 303 174 273.5 c 128,-1,49
 168 244 168 244 159 202.5 c 128,-1,50
 150 161 150 161 138 105 c 0,51,52
 134 88 134 88 148 80 c 128,-1,53
 162 72 162 72 179 72 c 0,54,55
 201 72 201 72 209 72.5 c 128,-1,56
 217 73 217 73 217.5 73 c 128,-1,57
 218 73 218 73 215 73 c 130,-1,58
 212 73 l 1,59,60
 227.5 73.5 l 130,-1,61
 243 74 243 74 266 78.5 c 128,-1,62
 289 83 289 83 316.5 93 c 128,-1,63
 344 103 344 103 369 123 c 0,64,65
 421 165 421 165 438 243 c 256,33,34
EndSplineSet
EndChar
StartChar: E
Encoding: 69 69 38
Width: 472
Flags: W
Fore
96 329 m 2,0,1
 106 375 106 375 132.5 406 c 128,-1,2
 159 437 159 437 194.5 456 c 128,-1,3
 230 475 230 475 270.5 483 c 128,-1,4
 311 491 311 491 349 491 c 0,5,6
 413 491 413 491 462 469 c 128,-1,7
 511 447 511 447 526 407 c 0,8,9
 531 393 531 393 526 379 c 128,-1,10
 521 365 521 365 505 357 c 0,11,12
 490 349 490 349 476.5 353.5 c 128,-1,13
 463 358 463 358 455 370 c 0,14,15
 444 390 444 390 414 403 c 128,-1,16
 384 416 384 416 333 416 c 0,17,18
 311 416 311 416 285 413 c 128,-1,19
 259 410 259 410 235.5 400.5 c 128,-1,20
 212 391 212 391 194 373.5 c 128,-1,21
 176 356 176 356 170 327 c 2,22,-1
 160 280 l 1,23,-1
 339 279 l 2,24,25
 358 279 358 279 369.5 271 c 128,-1,26
 381 263 381 263 376 243 c 0,27,28
 373 229 373 229 360.5 217 c 128,-1,29
 348 205 348 205 323 205 c 2,30,-1
 144 205 l 1,31,-1
 135 160 l 2,32,33
 128 129 128 129 138.5 111 c 128,-1,34
 149 93 149 93 168.5 84 c 128,-1,35
 188 75 188 75 212.5 72.5 c 128,-1,36
 237 70 237 70 259 70 c 0,37,38
 310 70 310 70 346 83 c 128,-1,39
 382 96 382 96 401 116 c 0,40,41
 414 128 414 128 429.5 132.5 c 128,-1,42
 445 137 445 137 457 129 c 256,43,44
 469 121 469 121 468 107 c 128,-1,45
 467 93 467 93 456 79 c 0,46,47
 424 39 424 39 365.5 17 c 128,-1,48
 307 -5 307 -5 243 -5 c 0,49,50
 205 -5 205 -5 168 3 c 128,-1,51
 131 11 131 11 103.5 30 c 128,-1,52
 76 49 76 49 63 80 c 128,-1,53
 50 111 50 111 60 157 c 2,54,-1
 96 329 l 2,0,1
EndSplineSet
EndChar
StartChar: F
Encoding: 70 70 39
Width: 476
Flags: W
Fore
111 329 m 0,0,1
 121 375 121 375 147.5 406 c 128,-1,2
 174 437 174 437 209.5 456 c 128,-1,3
 245 475 245 475 285.5 483 c 128,-1,4
 326 491 326 491 364 491 c 0,5,6
 428 491 428 491 477 469 c 128,-1,7
 526 447 526 447 541 407 c 0,8,9
 546 393 546 393 541 379 c 128,-1,10
 536 365 536 365 520 357 c 0,11,12
 505 349 505 349 491.5 353.5 c 128,-1,13
 478 358 478 358 470 370 c 0,14,15
 459 390 459 390 429 403 c 128,-1,16
 399 416 399 416 348 416 c 0,17,18
 326 416 326 416 300 413 c 128,-1,19
 274 410 274 410 250.5 400.5 c 128,-1,20
 227 391 227 391 209 373.5 c 128,-1,21
 191 356 191 356 185 327 c 2,22,-1
 175 279 l 1,23,-1
 354 279 l 2,24,25
 373 279 373 279 384.5 271 c 128,-1,26
 396 263 396 263 391 243 c 0,27,28
 388 229 388 229 375.5 217 c 128,-1,29
 363 205 363 205 338 205 c 2,30,-1
 158 205 l 1,31,-1
 124 44 l 2,32,33
 119 19 119 19 105.5 9 c 128,-1,34
 92 -1 92 -1 78 -1 c 0,35,36
 57 -1 57 -1 52.5 12 c 128,-1,37
 48 25 48 25 51 44 c 0,38,39
 52 47 52 47 58 79 c 0,40,41
 63 105 63 105 75.5 163.5 c 128,-1,42
 88 222 88 222 111 329 c 0,0,1
EndSplineSet
EndChar
StartChar: G
Encoding: 71 71 40
Width: 519
Flags: W
Fore
379 491 m 0,0,1
 451 491 451 491 493.5 467.5 c 128,-1,2
 536 444 536 444 553 406 c 0,3,4
 559 392 559 392 553 377.5 c 128,-1,5
 547 363 547 363 532 355 c 256,6,7
 517 347 517 347 504 352 c 128,-1,8
 491 357 491 357 482 368 c 0,9,10
 466 387 466 387 440.5 401.5 c 128,-1,11
 415 416 415 416 364 416 c 0,12,13
 279 416 279 416 228.5 369.5 c 128,-1,14
 178 323 178 323 161 242 c 0,15,16
 144 160 144 160 178.5 115.5 c 128,-1,17
 213 71 213 71 291 71 c 0,18,19
 315 71 315 71 340.5 76.5 c 128,-1,20
 366 82 366 82 387.5 92.5 c 128,-1,21
 409 103 409 103 424 117.5 c 128,-1,22
 439 132 439 132 443 150 c 2,23,-1
 449 175 l 2,24,25
 451 186 451 186 451 195 c 128,-1,26
 451 204 451 204 436 204 c 2,27,-1
 258 204 l 2,28,29
 237 204 237 204 223 212.5 c 128,-1,30
 209 221 209 221 214 242 c 0,31,32
 219 262 219 262 236 270.5 c 128,-1,33
 253 279 253 279 274 279 c 2,34,-1
 452 279 l 2,35,36
 500 279 500 279 517 252 c 128,-1,37
 534 225 534 225 526 187 c 2,38,-1
 518 150 l 2,39,40
 511 116 511 116 493 93 c 128,-1,41
 475 70 475 70 452 51 c 0,42,43
 447 47 447 47 433 38 c 128,-1,44
 419 29 419 29 396 19.5 c 128,-1,45
 373 10 373 10 342.5 3 c 128,-1,46
 312 -4 312 -4 275 -4 c 0,47,48
 219 -4 219 -4 178.5 14 c 128,-1,49
 138 32 138 32 113 64.5 c 128,-1,50
 88 97 88 97 80.5 142 c 128,-1,51
 73 187 73 187 85 242 c 256,52,53
 97 297 97 297 122.5 343 c 128,-1,54
 148 389 148 389 186 422 c 128,-1,55
 224 455 224 455 273 473 c 128,-1,56
 322 491 322 491 379 491 c 0,0,1
EndSplineSet
EndChar
StartChar: H
Encoding: 72 72 41
Width: 507
Flags: W
Fore
472 44 m 1,0,1
 467 19 467 19 453.5 9.5 c 128,-1,2
 440 0 440 0 426 0 c 0,3,4
 406 0 406 0 400 12.5 c 128,-1,5
 394 25 394 25 398 44 c 2,6,-1
 432 205 l 1,7,-1
 163 205 l 1,8,-1
 129 44 l 2,9,10
 124 19 124 19 110.5 9.5 c 128,-1,11
 97 0 97 0 83 0 c 0,12,13
 63 0 63 0 57 13 c 128,-1,14
 51 26 51 26 55 44 c 2,15,-1
 140 443 l 2,16,17
 144 461 144 461 155 474 c 128,-1,18
 166 487 166 487 186 487 c 0,19,20
 205 487 205 487 211.5 474 c 128,-1,21
 218 461 218 461 214 443 c 2,22,-1
 179 279 l 1,23,-1
 448 279 l 1,24,-1
 483 443 l 2,25,26
 487 462 487 462 498 474.5 c 128,-1,27
 509 487 509 487 529 487 c 0,28,29
 548 487 548 487 554.5 474 c 128,-1,30
 561 461 561 461 557 443 c 2,31,-1
 472 44 l 1,32,-1
 472 44 l 1,0,1
EndSplineSet
EndChar
StartChar: I
Encoding: 73 73 42
Width: 166
Flags: W
Fore
130 44 m 1,0,1
 125 19 125 19 111 9.5 c 128,-1,2
 97 0 97 0 84 0 c 0,3,4
 64 0 64 0 58 12.5 c 128,-1,5
 52 25 52 25 56 44 c 2,6,-1
 141 443 l 2,7,8
 145 462 145 462 156 474.5 c 128,-1,9
 167 487 167 487 187 487 c 0,10,11
 205 487 205 487 212 474 c 128,-1,12
 219 461 219 461 215 443 c 2,13,-1
 130 44 l 1,14,-1
 130 44 l 1,0,1
EndSplineSet
EndChar
StartChar: J
Encoding: 74 74 43
Width: 406
Flags: W
Fore
393 162 m 1,0,1
 382 111 382 111 356 78 c 128,-1,2
 330 45 330 45 300.5 26.5 c 128,-1,3
 271 8 271 8 242.5 1 c 128,-1,4
 214 -6 214 -6 199 -6 c 2,5,-1
 182 -6 l 2,6,7
 149 -6 149 -6 121.5 5 c 128,-1,8
 94 16 94 16 76 37 c 128,-1,9
 58 58 58 58 51 88 c 128,-1,10
 44 118 44 118 52 155 c 2,11,-1
 64 211 l 2,12,13
 68 229 68 229 79.5 242.5 c 128,-1,14
 91 256 91 256 111 256 c 0,15,16
 130 256 130 256 136 242.5 c 128,-1,17
 142 229 142 229 138 211 c 2,18,-1
 126 155 l 2,19,20
 118 117 118 117 140 92 c 128,-1,21
 162 67 162 67 207 67 c 0,22,23
 243 67 243 67 276 91.5 c 128,-1,24
 309 116 309 116 319 162 c 2,25,-1
 378 438 l 2,26,27
 382 457 382 457 393.5 469.5 c 128,-1,28
 405 482 405 482 423 482 c 0,29,30
 443 482 443 482 449.5 469.5 c 128,-1,31
 456 457 456 457 452 438 c 2,32,-1
 393 162 l 1,33,-1
 393 162 l 1,0,1
EndSplineSet
EndChar
StartChar: K
Encoding: 75 75 44
Width: 466
Flags: W
Fore
457 35 m 0,0,1
 457 20 457 20 445 7 c 128,-1,2
 433 -6 433 -6 418 -9 c 0,3,4
 401 -12 401 -12 390 -2.5 c 128,-1,5
 379 7 379 7 379 22 c 0,6,7
 380 77 380 77 365 119.5 c 128,-1,8
 350 162 350 162 329 192 c 128,-1,9
 308 222 308 222 286.5 240 c 128,-1,10
 265 258 265 258 253 265 c 1,11,-1
 165 214 l 1,12,-1
 129 45 l 2,13,14
 124 20 124 20 110.5 10 c 128,-1,15
 97 0 97 0 84 0 c 0,16,17
 64 0 64 0 57.5 13 c 128,-1,18
 51 26 51 26 55 44 c 2,19,-1
 140 443 l 2,20,21
 144 462 144 462 155.5 475 c 128,-1,22
 167 488 167 488 187 488 c 0,23,24
 205 488 205 488 211.5 474.5 c 128,-1,25
 218 461 218 461 214 443 c 2,26,-1
 183 301 l 1,27,28
 188 303 188 303 222 323 c 0,29,30
 237 332 237 332 259.5 345 c 128,-1,31
 282 358 282 358 315 377.5 c 128,-1,32
 348 397 348 397 393 423 c 128,-1,33
 438 449 438 449 498 484 c 1,34,35
 511 489 511 489 519.5 486 c 128,-1,36
 528 483 528 483 532 478 c 0,37,38
 537 470 537 470 537.5 461.5 c 128,-1,39
 538 453 538 453 535.5 446.5 c 128,-1,40
 533 440 533 440 529 435 c 128,-1,41
 525 430 525 430 521 428 c 2,42,-1
 324 308 l 1,43,44
 344 293 344 293 368 269.5 c 128,-1,45
 392 246 392 246 412 212 c 128,-1,46
 432 178 432 178 445 134 c 128,-1,47
 458 90 458 90 457 35 c 0,0,1
EndSplineSet
EndChar
StartChar: L
Encoding: 76 76 45
Width: 451
Flags: W
Fore
443 37 m 0,0,1
 440 23 440 23 427.5 11 c 128,-1,2
 415 -1 415 -1 390 -1 c 2,3,-1
 143 -1 l 2,4,5
 101 -1 101 -1 80.5 26.5 c 128,-1,6
 60 54 60 54 69 95 c 2,7,-1
 142 442 l 2,8,9
 147 461 147 461 158.5 473.5 c 128,-1,10
 170 486 170 486 190 486 c 0,11,12
 208 486 208 486 214.5 473 c 128,-1,13
 221 460 221 460 216 442 c 2,14,-1
 142 93 l 2,15,16
 140 84 140 84 144.5 77.5 c 128,-1,17
 149 71 149 71 159 73 c 1,18,-1
 406 73 l 2,19,20
 424 73 424 73 435.5 64 c 128,-1,21
 447 55 447 55 443 37 c 0,0,1
EndSplineSet
EndChar
StartChar: M
Encoding: 77 77 46
Width: 696
Flags: W
Fore
658 40 m 1,0,1
 653 15 653 15 639 5 c 128,-1,2
 625 -5 625 -5 612 -5 c 0,3,4
 591 -5 591 -5 585.5 8 c 128,-1,5
 580 21 580 21 584 40 c 2,6,-1
 646 332 l 2,7,8
 665 419 665 419 568 419 c 2,9,10
 553 417.5 l 130,-1,11
 538 416 538 416 518.5 407.5 c 128,-1,12
 499 399 499 399 481 381.5 c 128,-1,13
 463 364 463 364 456 332 c 2,14,-1
 394 40 l 2,15,16
 389 15 389 15 374.5 5 c 128,-1,17
 360 -5 360 -5 346 -5 c 0,18,19
 327 -5 327 -5 321 8.5 c 128,-1,20
 315 22 315 22 319 40 c 2,21,-1
 381 332 l 2,22,23
 389 371 389 371 367 395 c 128,-1,24
 345 419 345 419 307 419 c 0,25,26
 275 419 275 419 254 410.5 c 128,-1,27
 233 402 233 402 220 389.5 c 128,-1,28
 207 377 207 377 200.5 361.5 c 128,-1,29
 194 346 194 346 191 332 c 2,30,-1
 129 40 l 2,31,32
 124 15 124 15 109.5 5 c 128,-1,33
 95 -5 95 -5 81 -5 c 0,34,35
 62 -5 62 -5 56 8 c 128,-1,36
 50 21 50 21 54 40 c 2,37,-1
 116 332 l 2,38,39
 125 373 125 373 144.5 403.5 c 128,-1,40
 164 434 164 434 192 454 c 128,-1,41
 220 474 220 474 253 483.5 c 128,-1,42
 286 493 286 493 322 493 c 0,43,44
 339 493 339 493 357.5 488.5 c 128,-1,45
 376 484 376 484 392.5 475.5 c 128,-1,46
 409 467 409 467 421.5 454.5 c 128,-1,47
 434 442 434 442 439 427 c 1,48,49
 451 442 451 442 468 454.5 c 128,-1,50
 485 467 485 467 504.5 475.5 c 128,-1,51
 524 484 524 484 544.5 488.5 c 128,-1,52
 565 493 565 493 583 493 c 0,53,54
 620 493 620 493 649.5 482.5 c 128,-1,55
 679 472 679 472 697.5 452 c 128,-1,56
 716 432 716 432 722.5 402 c 128,-1,57
 729 372 729 372 720 332 c 2,58,-1
 658 40 l 1,59,-1
 658 40 l 1,0,1
EndSplineSet
EndChar
StartChar: N
Encoding: 78 78 47
Width: 487
Flags: W
Fore
451 44 m 1,0,1
 446 20 446 20 432.5 10 c 128,-1,2
 419 0 419 0 405 0 c 0,3,4
 385 0 385 0 379 12.5 c 128,-1,5
 373 25 373 25 377 44 c 2,6,-1
 407 187 l 1,7,8
 401 210 401 210 387.5 246.5 c 128,-1,9
 374 283 374 283 355.5 318.5 c 128,-1,10
 337 354 337 354 314 382 c 128,-1,11
 291 410 291 410 265 416 c 0,12,13
 248 420 248 420 235.5 415.5 c 128,-1,14
 223 411 223 411 214.5 400.5 c 128,-1,15
 206 390 206 390 201 376 c 128,-1,16
 196 362 196 362 193 348 c 2,17,-1
 129 44 l 2,18,19
 124 20 124 20 110.5 10 c 128,-1,20
 97 0 97 0 83 0 c 0,21,22
 63 0 63 0 56.5 12.5 c 128,-1,23
 50 25 50 25 54 44 c 2,24,-1
 121 358 l 2,25,26
 127 386 127 386 142.5 412.5 c 128,-1,27
 158 439 158 439 181.5 458 c 128,-1,28
 205 477 205 477 234.5 485.5 c 128,-1,29
 264 494 264 494 298 485 c 0,30,31
 324 479 324 479 345.5 461.5 c 128,-1,32
 367 444 367 444 384 421 c 128,-1,33
 401 398 401 398 414 372.5 c 128,-1,34
 427 347 427 347 436 324 c 1,35,-1
 462 443 l 2,36,37
 466 462 466 462 477 475 c 128,-1,38
 488 488 488 488 508 488 c 0,39,40
 527 488 527 488 533.5 474.5 c 128,-1,41
 540 461 540 461 536 443 c 2,42,-1
 451 44 l 1,43,-1
 451 44 l 1,0,1
EndSplineSet
EndChar
StartChar: O
Encoding: 79 79 48
Width: 535
Flags: W
Fore
561 242 m 0,0,1
 550 192 550 192 522 147.5 c 128,-1,2
 494 103 494 103 454 69 c 128,-1,3
 414 35 414 35 365.5 15 c 128,-1,4
 317 -5 317 -5 267 -5 c 256,5,6
 217 -5 217 -5 177.5 15 c 128,-1,7
 138 35 138 35 112.5 69 c 128,-1,8
 87 103 87 103 77.5 147.5 c 128,-1,9
 68 192 68 192 79 242 c 0,10,11
 89 291 89 291 117.5 336 c 128,-1,12
 146 381 146 381 185.5 415 c 128,-1,13
 225 449 225 449 273.5 469 c 128,-1,14
 322 489 322 489 372 489 c 256,15,16
 422 489 422 489 462 469 c 128,-1,17
 502 449 502 449 527.5 415 c 128,-1,18
 553 381 553 381 562 336 c 128,-1,19
 571 291 571 291 561 242 c 0,0,1
485 242 m 256,20,21
 492 276 492 276 485.5 307 c 128,-1,22
 479 338 479 338 462 361.5 c 128,-1,23
 445 385 445 385 417.5 399 c 128,-1,24
 390 413 390 413 356 413 c 0,25,26
 321 413 321 413 288 399 c 128,-1,27
 255 385 255 385 228 362 c 128,-1,28
 201 339 201 339 181.5 307.5 c 128,-1,29
 162 276 162 276 155 242 c 0,30,31
 147 207 147 207 153.5 176 c 128,-1,32
 160 145 160 145 177 122 c 128,-1,33
 194 99 194 99 221.5 85 c 128,-1,34
 249 71 249 71 284 71 c 0,35,36
 318 71 318 71 351.5 85 c 128,-1,37
 385 99 385 99 412 122.5 c 128,-1,38
 439 146 439 146 458.5 177 c 128,-1,39
 478 208 478 208 485 242 c 256,20,21
EndSplineSet
EndChar
StartChar: P
Encoding: 80 80 49
Width: 491
Flags: W
Fore
211 203 m 0,0,1
 200 211 200 211 194 222.5 c 128,-1,2
 188 234 188 234 199 251 c 0,3,4
 211 269 211 269 226 271.5 c 128,-1,5
 241 274 241 274 255 266 c 0,6,7
 277 254 277 254 306.5 248.5 c 128,-1,8
 336 243 336 243 365 247 c 128,-1,9
 394 251 394 251 418 267 c 128,-1,10
 442 283 442 283 451 315 c 0,11,12
 457 333 457 333 455.5 351.5 c 128,-1,13
 454 370 454 370 441.5 385 c 128,-1,14
 429 400 429 400 403.5 409.5 c 128,-1,15
 378 419 378 419 337 419 c 0,16,17
 268 419 268 419 228 392.5 c 128,-1,18
 188 366 188 366 174 304 c 2,19,-1
 119 44 l 2,20,21
 115 26 115 26 104.5 12.5 c 128,-1,22
 94 -1 94 -1 74 -1 c 0,23,24
 53 -1 53 -1 47.5 12.5 c 128,-1,25
 42 26 42 26 46 44 c 2,26,-1
 106 329 l 2,27,28
 115 372 115 372 140.5 403 c 128,-1,29
 166 434 166 434 200.5 453 c 128,-1,30
 235 472 235 472 274.5 481 c 128,-1,31
 314 490 314 490 352 490 c 0,32,33
 392 490 392 490 428.5 481 c 128,-1,34
 465 472 465 472 491 451.5 c 128,-1,35
 517 431 517 431 528 399.5 c 128,-1,36
 539 368 539 368 529 323 c 0,37,38
 519 280 519 280 496.5 251.5 c 128,-1,39
 474 223 474 223 444.5 206 c 128,-1,40
 415 189 415 189 381.5 182 c 128,-1,41
 348 175 348 175 315.5 175.5 c 128,-1,42
 283 176 283 176 255.5 183.5 c 128,-1,43
 228 191 228 191 211 203 c 0,0,1
EndSplineSet
EndChar
StartChar: Q
Encoding: 81 81 50
Width: 545
Flags: W
Fore
565 243 m 0,0,1
 548 160 548 160 485 95 c 1,2,3
 492 79 492 79 499.5 57.5 c 128,-1,4
 507 36 507 36 509 16 c 0,5,6
 512 -14 512 -14 481 -26 c 0,7,8
 462 -33 462 -33 452 -24.5 c 128,-1,9
 442 -16 442 -16 440 -1 c 0,10,11
 439 10 439 10 434 23.5 c 128,-1,12
 429 37 429 37 426 45 c 1,13,14
 391 23 391 23 350 9.5 c 128,-1,15
 309 -4 309 -4 272 -4 c 0,16,17
 222 -4 222 -4 182 16 c 128,-1,18
 142 36 142 36 116.5 70 c 128,-1,19
 91 104 91 104 81.5 148.5 c 128,-1,20
 72 193 72 193 83 243 c 0,21,22
 94 294 94 294 120.5 338.5 c 128,-1,23
 147 383 147 383 185.5 417 c 128,-1,24
 224 451 224 451 273 470.5 c 128,-1,25
 322 490 322 490 377 490 c 0,26,27
 427 490 427 490 466.5 470 c 128,-1,28
 506 450 506 450 531.5 416 c 128,-1,29
 557 382 557 382 566 337 c 128,-1,30
 575 292 575 292 565 243 c 0,0,1
489 243 m 0,31,32
 496 277 496 277 490 308.5 c 128,-1,33
 484 340 484 340 467 363 c 128,-1,34
 450 386 450 386 422.5 400 c 128,-1,35
 395 414 395 414 360 414 c 0,36,37
 320 414 320 414 286 400 c 128,-1,38
 252 386 252 386 226.5 362 c 128,-1,39
 201 338 201 338 183.5 307 c 128,-1,40
 166 276 166 276 159 243 c 0,41,42
 146 181 146 181 176 134 c 1,43,44
 202 160 202 160 244.5 180 c 128,-1,45
 287 200 287 200 343 197 c 0,46,47
 350 197 350 197 362 195.5 c 128,-1,48
 374 194 374 194 388.5 189.5 c 128,-1,49
 403 185 403 185 418.5 177.5 c 128,-1,50
 434 170 434 170 448 158 c 1,51,52
 465 178 465 178 474.5 198.5 c 128,-1,53
 484 219 484 219 489 243 c 0,31,32
403 106 m 1,54,55
 385 122 385 122 363.5 128 c 128,-1,56
 342 134 342 134 320 134 c 0,57,58
 278 134 278 134 251.5 120 c 128,-1,59
 225 106 225 106 210 91 c 1,60,61
 217 85 217 85 234 77 c 128,-1,62
 251 69 251 69 286 67 c 0,63,64
 323 65 323 65 348.5 75.5 c 128,-1,65
 374 86 374 86 403 106 c 1,54,55
EndSplineSet
EndChar
StartChar: R
Encoding: 82 82 51
Width: 507
Flags: W
Fore
216 203 m 0,0,1
 205 211 205 211 199 222.5 c 128,-1,2
 193 234 193 234 204 251 c 0,3,4
 216 269 216 269 231 271.5 c 128,-1,5
 246 274 246 274 260 266 c 0,6,7
 279 255 279 255 308 249 c 128,-1,8
 337 243 337 243 366 246.5 c 128,-1,9
 395 250 395 250 420 266 c 128,-1,10
 445 282 445 282 457 317 c 0,11,12
 463 336 463 336 460 355 c 128,-1,13
 457 374 457 374 443.5 388.5 c 128,-1,14
 430 403 430 403 404.5 411.5 c 128,-1,15
 379 420 379 420 342 419 c 0,16,17
 272 417 272 417 232.5 391.5 c 128,-1,18
 193 366 193 366 179 304 c 2,19,-1
 124 44 l 2,20,21
 120 26 120 26 109.5 12.5 c 128,-1,22
 99 -1 99 -1 79 -1 c 0,23,24
 58 -1 58 -1 52.5 12.5 c 128,-1,25
 47 26 47 26 51 44 c 2,26,-1
 111 329 l 2,27,28
 120 372 120 372 145.5 403 c 128,-1,29
 171 434 171 434 205.5 453 c 128,-1,30
 240 472 240 472 279.5 481 c 128,-1,31
 319 490 319 490 357 490 c 0,32,33
 390 490 390 490 425.5 482.5 c 128,-1,34
 461 475 461 475 489 456.5 c 128,-1,35
 517 438 517 438 531 406 c 128,-1,36
 545 374 545 374 535 325 c 0,37,38
 527 289 527 289 508.5 261.5 c 128,-1,39
 490 234 490 234 465.5 216 c 128,-1,40
 441 198 441 198 413.5 189 c 128,-1,41
 386 180 386 180 361 180 c 1,42,43
 386 159 386 159 410.5 125.5 c 128,-1,44
 435 92 435 92 450 49 c 0,45,46
 455 35 455 35 451 19.5 c 128,-1,47
 447 4 447 4 424 -4 c 0,48,49
 415 -8 415 -8 406 -6 c 0,50,51
 398 -5 398 -5 391 0.5 c 128,-1,52
 384 6 384 6 379 20 c 0,53,54
 367 51 367 51 346.5 78 c 128,-1,55
 326 105 326 105 303 128.5 c 128,-1,56
 280 152 280 152 256.5 170.5 c 128,-1,57
 233 189 233 189 216 203 c 0,0,1
EndSplineSet
EndChar
StartChar: S
Encoding: 83 83 52
Width: 465
Flags: W
Fore
466 143 m 0,0,1
 458 104 458 104 434.5 76 c 128,-1,2
 411 48 411 48 378.5 30 c 128,-1,3
 346 12 346 12 307.5 3 c 128,-1,4
 269 -6 269 -6 231 -6 c 0,5,6
 199 -6 199 -6 169.5 0 c 128,-1,7
 140 6 140 6 116 17 c 128,-1,8
 92 28 92 28 74.5 44 c 128,-1,9
 57 60 57 60 50 80 c 0,10,11
 45 93 45 93 52 108 c 128,-1,12
 59 123 59 123 74 131 c 0,13,14
 90 139 90 139 104 135.5 c 128,-1,15
 118 132 118 132 123 118 c 0,16,17
 127 107 127 107 139 98 c 128,-1,18
 151 89 151 89 168 83 c 128,-1,19
 185 77 185 77 205.5 73.5 c 128,-1,20
 226 70 226 70 247 70 c 0,21,22
 269 70 269 70 292.5 73.5 c 128,-1,23
 316 77 316 77 336.5 85 c 128,-1,24
 357 93 357 93 371.5 107.5 c 128,-1,25
 386 122 386 122 391 143 c 0,26,27
 395 162 395 162 385.5 174.5 c 128,-1,28
 376 187 376 187 358.5 194 c 128,-1,29
 341 201 341 201 319 203.5 c 128,-1,30
 297 206 297 206 276 206 c 0,31,32
 240 206 240 206 205.5 213.5 c 128,-1,33
 171 221 171 221 145 237.5 c 128,-1,34
 119 254 119 254 105.5 280 c 128,-1,35
 92 306 92 306 100 342 c 0,36,37
 108 381 108 381 132 409 c 128,-1,38
 156 437 156 437 188.5 455 c 128,-1,39
 221 473 221 473 260 481.5 c 128,-1,40
 299 490 299 490 337 490 c 0,41,42
 369 490 369 490 398 484 c 128,-1,43
 427 478 427 478 451 467 c 128,-1,44
 475 456 475 456 492 440.5 c 128,-1,45
 509 425 509 425 517 405 c 0,46,47
 522 391 522 391 515 376 c 128,-1,48
 508 361 508 361 493 353 c 0,49,50
 477 345 477 345 463 349 c 128,-1,51
 449 353 449 353 444 367 c 0,52,53
 440 378 440 378 428 387 c 128,-1,54
 416 396 416 396 399.5 402 c 128,-1,55
 383 408 383 408 362.5 411.5 c 128,-1,56
 342 415 342 415 321 415 c 0,57,58
 299 415 299 415 274.5 412 c 128,-1,59
 250 409 250 409 229 401 c 128,-1,60
 208 393 208 393 192.5 379 c 128,-1,61
 177 365 177 365 172 343 c 0,62,63
 168 323 168 323 178.5 311 c 128,-1,64
 189 299 189 299 207.5 292.5 c 128,-1,65
 226 286 226 286 249 284 c 128,-1,66
 272 282 272 282 292 282 c 0,67,68
 329 282 329 282 364 274.5 c 128,-1,69
 399 267 399 267 424.5 250.5 c 128,-1,70
 450 234 450 234 462 207.5 c 128,-1,71
 474 181 474 181 466 143 c 0,0,1
EndSplineSet
EndChar
StartChar: T
Encoding: 84 84 53
Width: 442
Flags: W
Fore
267 44 m 2,0,1
 262 19 262 19 248.5 9.5 c 128,-1,2
 235 0 235 0 222 0 c 0,3,4
 202 0 202 0 195 12 c 128,-1,5
 188 24 188 24 193 44 c 2,6,-1
 271 413 l 1,7,8
 234 408 234 408 202 397 c 128,-1,9
 170 386 170 386 153 370 c 0,10,11
 142 360 142 360 128 356 c 128,-1,12
 114 352 114 352 102 360 c 256,13,14
 90 368 90 368 89.5 383 c 128,-1,15
 89 398 89 398 100 412 c 0,16,17
 116 432 116 432 141 446.5 c 128,-1,18
 166 461 166 461 196.5 471 c 128,-1,19
 227 481 227 481 260.5 485.5 c 128,-1,20
 294 490 294 490 326 490 c 256,21,22
 358 490 358 490 389 485.5 c 128,-1,23
 420 481 420 481 446 471 c 128,-1,24
 472 461 472 461 490.5 446.5 c 128,-1,25
 509 432 509 432 517 412 c 0,26,27
 522 398 522 398 515 383 c 128,-1,28
 508 368 508 368 493 360 c 256,29,30
 478 352 478 352 465 356 c 128,-1,31
 452 360 452 360 446 370 c 0,32,33
 436 386 436 386 408 397 c 128,-1,34
 380 408 380 408 345 413 c 1,35,-1
 267 44 l 2,0,1
EndSplineSet
EndChar
StartChar: U
Encoding: 85 85 54
Width: 509
Flags: W
Fore
529 316 m 2,0,1
 519 270 l 128,-1,2
 514 247 514 247 510.5 229 c 128,-1,3
 507 211 507 211 504 200 c 128,-1,4
 501 189 501 189 501 188 c 0,5,6
 493 144 493 144 472.5 108.5 c 128,-1,7
 452 73 452 73 420 47.5 c 128,-1,8
 388 22 388 22 345.5 8.5 c 128,-1,9
 303 -5 303 -5 253 -5 c 0,10,11
 150 -5 150 -5 108.5 49 c 128,-1,12
 67 103 67 103 86 191 c 0,13,14
 94 226 94 226 103 269.5 c 128,-1,15
 112 313 112 313 120 351 c 0,16,17
 130 395 130 395 139 440 c 0,18,19
 143 459 143 459 154.5 471.5 c 128,-1,20
 166 484 166 484 186 484 c 0,21,22
 203 484 203 484 210 471 c 128,-1,23
 217 458 217 458 213 440 c 0,24,25
 211 434 211 434 205 404 c 0,26,27
 200 378 200 378 189 326 c 128,-1,28
 178 274 178 274 158 179 c 0,29,30
 133 61 133 61 266 61 c 0,31,32
 334 61 334 61 374 91.5 c 128,-1,33
 414 122 414 122 425 176 c 1,34,35
 425 178 425 178 428.5 195 c 128,-1,36
 432 212 432 212 437.5 238 c 128,-1,37
 443 264 443 264 450 295 c 128,-1,38
 457 326 457 326 463 354.5 c 128,-1,39
 469 383 469 383 474 406 c 128,-1,40
 479 429 479 429 481 440 c 0,41,42
 485 459 485 459 496.5 471.5 c 128,-1,43
 508 484 508 484 528 484 c 0,44,45
 545 484 545 484 552 471 c 128,-1,46
 559 458 559 458 555 440 c 2,47,-1
 529 316 l 2,0,1
EndSplineSet
EndChar
StartChar: V
Encoding: 86 86 55
Width: 445
Flags: W
Fore
521 435 m 0,0,1
 520 431 520 431 507 399 c 0,2,3
 496 372 496 372 470.5 312.5 c 128,-1,4
 445 253 445 253 398 144 c 0,5,6
 377 95 377 95 354 66 c 128,-1,7
 331 37 331 37 308 22 c 128,-1,8
 285 7 285 7 262.5 2.5 c 128,-1,9
 240 -2 240 -2 221 -2 c 256,10,11
 202 -2 202 -2 181.5 2.5 c 128,-1,12
 161 7 161 7 144.5 22 c 128,-1,13
 128 37 128 37 117.5 66 c 128,-1,14
 107 95 107 95 107 144 c 2,15,-1
 107 437 l 2,16,17
 107 472 107 472 142 484 c 0,18,19
 162 490 162 490 172.5 477 c 128,-1,20
 183 464 183 464 182 444 c 1,21,22
 181 439 181 439 181 407 c 0,23,24
 181 393 181 393 181 372 c 128,-1,25
 181 351 181 351 181 320.5 c 128,-1,26
 181 290 181 290 181.5 248.5 c 128,-1,27
 182 207 182 207 182 152 c 0,28,29
 182 121 182 121 187 103 c 128,-1,30
 192 85 192 85 199.5 75.5 c 128,-1,31
 207 66 207 66 216.5 63.5 c 128,-1,32
 226 61 226 61 234 61 c 256,33,34
 242 61 242 61 252.5 63.5 c 128,-1,35
 263 66 263 66 275 75.5 c 128,-1,36
 287 85 287 85 300 103 c 128,-1,37
 313 121 313 121 327 153 c 2,38,-1
 342 189 l 2,39,40
 353 216 353 216 378 275.5 c 128,-1,41
 403 335 403 335 450 445 c 0,42,43
 458 464 458 464 473.5 477.5 c 128,-1,44
 489 491 489 491 507 484 c 0,45,46
 536 473 536 473 521 435 c 0,0,1
EndSplineSet
EndChar
StartChar: W
Encoding: 87 87 56
Width: 677
Flags: W
Fore
732 445 m 2,0,-1
 670 153 l 2,1,2
 661 113 661 113 642 83 c 128,-1,3
 623 53 623 53 596 32.5 c 128,-1,4
 569 12 569 12 535.5 2 c 128,-1,5
 502 -8 502 -8 465 -8 c 256,6,7
 428 -8 428 -8 393.5 9.5 c 128,-1,8
 359 27 359 27 349 58 c 1,9,10
 337 43 337 43 319.5 30.5 c 128,-1,11
 302 18 302 18 282 9.5 c 128,-1,12
 262 1 262 1 241.5 -3.5 c 128,-1,13
 221 -8 221 -8 204 -8 c 0,14,15
 168 -8 168 -8 139 1.5 c 128,-1,16
 110 11 110 11 91 31 c 128,-1,17
 72 51 72 51 64.5 81.5 c 128,-1,18
 57 112 57 112 66 153 c 2,19,-1
 128 445 l 2,20,21
 132 464 132 464 144 477 c 128,-1,22
 156 490 156 490 175 490 c 0,23,24
 189 490 189 490 198.5 480 c 128,-1,25
 208 470 208 470 203 445 c 2,26,-1
 141 153 l 2,27,28
 138 139 138 139 138 123.5 c 128,-1,29
 138 108 138 108 145.5 95.5 c 128,-1,30
 153 83 153 83 170.5 74.5 c 128,-1,31
 188 66 188 66 220 66 c 0,32,33
 258 66 258 66 290.5 90 c 128,-1,34
 323 114 323 114 331 153 c 2,35,-1
 393 445 l 2,36,37
 397 463 397 463 409 476.5 c 128,-1,38
 421 490 421 490 440 490 c 0,39,40
 454 490 454 490 463.5 480 c 128,-1,41
 473 470 473 470 468 445 c 2,42,-1
 406 153 l 2,43,44
 399 121 399 121 410 103 c 128,-1,45
 421 85 421 85 436.5 77 c 128,-1,46
 452 69 452 69 466.5 67.5 c 128,-1,47
 480 66 480 66 481 66 c 0,48,49
 577 66 577 66 596 153 c 2,50,-1
 658 445 l 2,51,52
 662 464 662 464 673.5 477 c 128,-1,53
 685 490 685 490 706 490 c 0,54,55
 719 490 719 490 728 480 c 128,-1,56
 737 470 737 470 732 445 c 2,0,-1
EndSplineSet
EndChar
StartChar: X
Encoding: 88 88 57
Width: 467
Flags: W
Fore
537 462 m 0,0,1
 538 447 538 447 529 433 c 2,2,-1
 516 416 l 2,3,4
 506 403 506 403 486 376.5 c 128,-1,5
 466 350 466 350 428 301 c 0,6,7
 412 281 412 281 397 269.5 c 128,-1,8
 382 258 382 258 368 250 c 1,9,10
 379 241 379 241 388 229.5 c 128,-1,11
 397 218 397 218 405 197 c 2,12,13
 408.5 186 l 130,-1,14
 412 175 412 175 416.5 159 c 128,-1,15
 421 143 421 143 426.5 124 c 128,-1,16
 432 105 432 105 436.5 88.5 c 128,-1,17
 441 72 441 72 444 61 c 128,-1,18
 447 51 447 51 447 50 c 2,19,20
 452 36 452 36 443.5 21.5 c 128,-1,21
 435 7 435 7 420 0 c 256,22,23
 405 -7 405 -7 391 -2 c 128,-1,24
 377 3 377 3 373 17 c 0,25,26
 363 54 363 54 354 84 c 0,27,28
 346 110 346 110 340 132.5 c 128,-1,29
 334 155 334 155 333 160 c 1,30,31
 325 178 325 178 318.5 188 c 128,-1,32
 312 198 312 198 305.5 203.5 c 128,-1,33
 299 209 299 209 292 210 c 128,-1,34
 285 211 285 211 277 211 c 256,35,36
 269 211 269 211 262 210 c 128,-1,37
 255 209 255 209 246.5 203.5 c 128,-1,38
 238 198 238 198 227 188 c 128,-1,39
 216 178 216 178 201 160 c 2,40,-1
 99 17 l 2,41,42
 89 3 89 3 73.5 -2 c 128,-1,43
 58 -7 58 -7 46 0 c 0,44,45
 32 7 32 7 30 21.5 c 128,-1,46
 28 36 28 36 39 50 c 2,47,48
 40 52 40 52 51 68 c 0,49,50
 61 82 61 82 82 111.5 c 128,-1,51
 103 141 103 141 142 196 c 0,52,53
 158 216 158 216 173.5 228.5 c 128,-1,54
 189 241 189 241 204 250 c 1,55,56
 193 258 193 258 182.5 270 c 128,-1,57
 172 282 172 282 165 302 c 2,58,-1
 159 318 l 2,59,60
 154 330 154 330 145.5 356.5 c 128,-1,61
 137 383 137 383 120 432 c 0,62,63
 115 446 115 446 123.5 461 c 128,-1,64
 132 476 132 476 148 484 c 0,65,66
 163 491 163 491 177 486 c 128,-1,67
 191 481 191 481 195 467 c 2,68,-1
 200 450 l 2,69,70
 204 437 204 437 212.5 410 c 128,-1,71
 221 383 221 383 238 333 c 0,72,73
 244 315 244 315 250.5 305.5 c 128,-1,74
 257 296 257 296 263.5 291.5 c 128,-1,75
 270 287 270 287 277.5 286 c 128,-1,76
 285 285 285 285 293 285 c 256,77,78
 301 285 301 285 308.5 286 c 128,-1,79
 316 287 316 287 325 291.5 c 128,-1,80
 334 296 334 296 344.5 306 c 128,-1,81
 355 316 355 316 369 334 c 0,82,83
 370 335 370 335 381 350 c 0,84,85
 390 362 390 362 410.5 389 c 128,-1,86
 431 416 431 416 469 467 c 0,87,88
 479 481 479 481 494.5 486 c 128,-1,89
 510 491 510 491 522 484 c 0,90,91
 536 475 536 475 537 462 c 0,0,1
EndSplineSet
EndChar
StartChar: Y
Encoding: 89 89 58
Width: 471
Flags: W
Fore
461 138 m 1,0,1
 453 103 453 103 435 77 c 128,-1,2
 417 51 417 51 392.5 33.5 c 128,-1,3
 368 16 368 16 340 7 c 128,-1,4
 312 -2 312 -2 284 -2 c 2,5,-1
 147 -2 l 2,6,7
 128 -2 128 -2 117 6.5 c 128,-1,8
 106 15 106 15 111 35 c 0,9,10
 115 55 115 55 129.5 63.5 c 128,-1,11
 144 72 144 72 163 72 c 2,12,-1
 300 72 l 2,13,14
 329 72 329 72 354.5 90 c 128,-1,15
 380 108 380 108 387 138 c 2,16,-1
 396 182 l 1,17,18
 369 160 369 160 334.5 151 c 128,-1,19
 300 142 300 142 265 142 c 0,20,21
 215 142 215 142 181 156.5 c 128,-1,22
 147 171 147 171 128 197 c 128,-1,23
 109 223 109 223 104 258.5 c 128,-1,24
 99 294 99 294 108 337 c 0,25,26
 112 355 112 355 116 373.5 c 128,-1,27
 120 392 120 392 123 407 c 2,28,-1
 130 442 l 2,29,30
 135 461 135 461 146 473.5 c 128,-1,31
 157 486 157 486 177 486 c 0,32,33
 196 486 196 486 202.5 473.5 c 128,-1,34
 209 461 209 461 204 442 c 2,35,-1
 180 334 l 2,36,37
 175 312 175 312 178.5 291 c 128,-1,38
 182 270 182 270 194 253.5 c 128,-1,39
 206 237 206 237 227 226.5 c 128,-1,40
 248 216 248 216 280 216 c 0,41,42
 330 216 330 216 369 237.5 c 128,-1,43
 408 259 408 259 423 307 c 0,44,45
 423 308 423 308 426 323 c 0,46,47
 428 336 428 336 434 363 c 128,-1,48
 440 390 440 390 451 442 c 0,49,50
 456 461 456 461 467.5 473.5 c 128,-1,51
 479 486 479 486 499 486 c 0,52,53
 517 486 517 486 523.5 473.5 c 128,-1,54
 530 461 530 461 525 442 c 2,55,-1
 461 138 l 1,56,-1
 461 138 l 1,0,1
EndSplineSet
EndChar
StartChar: Z
Encoding: 90 90 59
Width: 462
Flags: W
Fore
429 361 m 2,0,1
 439 366 439 366 445 375.5 c 128,-1,2
 451 385 451 385 450 393 c 0,3,4
 450 413 450 413 428 413 c 2,5,-1
 158 413 l 2,6,7
 140 413 140 413 128.5 422 c 128,-1,8
 117 431 117 431 121 449 c 0,9,10
 124 463 124 463 136.5 475 c 128,-1,11
 149 487 149 487 174 487 c 2,12,-1
 445 487 l 2,13,14
 487 487 487 487 506.5 463 c 128,-1,15
 526 439 526 439 525 409 c 0,16,17
 525 399 525 399 522 386 c 128,-1,18
 519 373 519 373 512 359 c 128,-1,19
 505 345 505 345 492 331.5 c 128,-1,20
 479 318 479 318 460 309 c 2,21,-1
 140 125 l 2,22,23
 131 120 131 120 124.5 110.5 c 128,-1,24
 118 101 118 101 119 93 c 0,25,26
 120 84 120 84 124.5 78.5 c 128,-1,27
 129 73 129 73 141 73 c 2,28,-1
 411 73 l 2,29,30
 429 73 429 73 440.5 64 c 128,-1,31
 452 55 452 55 448 37 c 0,32,33
 445 23 445 23 432.5 11 c 128,-1,34
 420 -1 420 -1 395 -1 c 2,35,-1
 124 -1 l 2,36,37
 82 -1 82 -1 62.5 23 c 128,-1,38
 43 47 43 47 44 77 c 0,39,40
 44 87 44 87 47 100 c 128,-1,41
 50 113 50 113 57 127 c 128,-1,42
 64 141 64 141 76.5 154.5 c 128,-1,43
 89 168 89 168 109 177 c 2,44,-1
 429 361 l 2,0,1
EndSplineSet
EndChar
StartChar: bracketleft
Encoding: 91 91 60
Width: 300
Flags: W
Fore
239 -83 m 0,0,1
 235 -100 235 -100 223.5 -111 c 128,-1,2
 212 -122 212 -122 195 -122 c 2,3,-1
 67 -122 l 2,4,5
 47 -122 47 -122 42 -110.5 c 128,-1,6
 37 -99 37 -99 42 -84 c 2,7,-1
 161 479 l 2,8,9
 164 493 164 493 173 505 c 128,-1,10
 182 517 182 517 202 517 c 2,11,-1
 330 517 l 2,12,13
 347 517 347 517 354.5 506 c 128,-1,14
 362 495 362 495 358 478 c 0,15,16
 354 460 354 460 341 451.5 c 128,-1,17
 328 443 328 443 315 443 c 2,18,-1
 228 443 l 1,19,-1
 123 -48 l 1,20,-1
 210 -48 l 2,21,22
 223 -48 223 -48 233 -56.5 c 128,-1,23
 243 -65 243 -65 239 -83 c 0,0,1
EndSplineSet
EndChar
StartChar: backslash
Encoding: 92 92 61
Width: 249
Flags: W
Fore
264 47 m 1,0,1
 268 33 268 33 261 19.5 c 128,-1,2
 254 6 254 6 240 0 c 256,3,4
 226 -6 226 -6 212 -1 c 128,-1,5
 198 4 198 4 194 18 c 2,6,-1
 88 454 l 2,7,8
 85 468 85 468 91 481.5 c 128,-1,9
 97 495 97 495 112 501 c 0,10,11
 126 508 126 508 140.5 502 c 128,-1,12
 155 496 155 496 158 484 c 2,13,-1
 264 47 l 1,14,-1
 264 47 l 1,0,1
EndSplineSet
EndChar
StartChar: bracketright
Encoding: 93 93 62
Width: 300
Flags: W
Fore
219 -84 m 1,0,1
 216 -99 216 -99 207 -110.5 c 128,-1,2
 198 -122 198 -122 178 -122 c 2,3,-1
 50 -122 l 2,4,5
 33 -122 33 -122 25.5 -111 c 128,-1,6
 18 -100 18 -100 22 -83 c 0,7,8
 26 -65 26 -65 39 -56.5 c 128,-1,9
 52 -48 52 -48 65 -48 c 2,10,-1
 152 -48 l 1,11,-1
 257 443 l 1,12,-1
 170 443 l 2,13,14
 157 443 157 443 147 451.5 c 128,-1,15
 137 460 137 460 141 478 c 0,16,17
 145 495 145 495 156.5 506 c 128,-1,18
 168 517 168 517 185 517 c 2,19,-1
 313 517 l 2,20,21
 333 517 333 517 337 505 c 128,-1,22
 341 493 341 493 338 479 c 2,23,-1
 219 -84 l 1,24,-1
 219 -84 l 1,0,1
EndSplineSet
EndChar
StartChar: asciicircum
Encoding: 94 94 63
Width: 488
Flags: W
Fore
426 176 m 0,0,1
 412 168 412 168 396 171.5 c 128,-1,2
 380 175 380 175 375 194 c 2,3,-1
 329 390 l 1,4,-1
 201 194 l 2,5,6
 188 177 188 177 172.5 173 c 128,-1,7
 157 169 157 169 144 177 c 0,8,9
 132 185 132 185 134 200.5 c 128,-1,10
 136 216 136 216 148 233 c 2,11,-1
 321 476 l 2,12,13
 329 486 329 486 336.5 489.5 c 128,-1,14
 344 493 344 493 352 493 c 256,15,16
 360 493 360 493 366.5 488.5 c 128,-1,17
 373 484 373 484 375 476 c 2,18,-1
 444 233 l 2,19,20
 449 216 449 216 445 200 c 128,-1,21
 441 184 441 184 426 176 c 0,0,1
EndSplineSet
EndChar
StartChar: underscore
Encoding: 95 95 64
Width: 500
Flags: W
Fore
-24 -115 m 1,0,-1
 -10 -50 l 1,1,-1
 489 -50 l 1,2,-1
 475 -115 l 1,3,-1
 -24 -115 l 1,0,-1
EndSplineSet
EndChar
StartChar: grave
Encoding: 96 96 65
Width: 233
Flags: W
Fore
230 339 m 1,0,1
 225 314 225 314 211 304.5 c 128,-1,2
 197 295 197 295 183 295 c 0,3,4
 163 295 163 295 157 307.5 c 128,-1,5
 151 320 151 320 156 339 c 2,6,-1
 178 443 l 2,7,8
 182 462 182 462 193 474.5 c 128,-1,9
 204 487 204 487 224 487 c 0,10,11
 243 487 243 487 249.5 474 c 128,-1,12
 256 461 256 461 252 443 c 2,13,-1
 230 339 l 1,14,-1
 230 339 l 1,0,1
EndSplineSet
EndChar
StartChar: a
Encoding: 97 97 66
Width: 430
Flags: W
Fore
393 31 m 2,0,1
 390 15 390 15 376 5 c 128,-1,2
 362 -5 362 -5 348 -5 c 256,3,4
 334 -5 334 -5 327 5 c 128,-1,5
 320 15 320 15 325 31 c 1,6,7
 302 13 302 13 268 4 c 128,-1,8
 234 -5 234 -5 200 -5 c 0,9,10
 122 -5 122 -5 83 27.5 c 128,-1,11
 44 60 44 60 57 121 c 0,12,13
 63 148 63 148 80.5 172 c 128,-1,14
 98 196 98 196 125 213 c 128,-1,15
 152 230 152 230 186.5 240 c 128,-1,16
 221 250 221 250 261 250 c 0,17,18
 299 250 299 250 329 239 c 128,-1,19
 359 228 359 228 365 213 c 1,20,21
 368 238 368 238 362.5 253 c 128,-1,22
 357 268 357 268 343.5 276.5 c 128,-1,23
 330 285 330 285 309 288 c 128,-1,24
 288 291 288 291 262 291 c 0,25,26
 232 291 232 291 206 284 c 128,-1,27
 180 277 180 277 158 266 c 0,28,29
 135 254 135 254 125 260 c 128,-1,30
 115 266 115 266 113 270 c 0,31,32
 104 284 104 284 112 299.5 c 128,-1,33
 120 315 120 315 136 324 c 0,34,35
 169 343 169 343 203 351.5 c 128,-1,36
 237 360 237 360 275 360 c 0,37,38
 327 360 327 360 360.5 349 c 128,-1,39
 394 338 394 338 412 317 c 128,-1,40
 430 296 430 296 433 265.5 c 128,-1,41
 436 235 436 235 428 196 c 2,42,-1
 393 31 l 2,0,1
342 120 m 0,43,44
 346 140 346 140 339 152.5 c 128,-1,45
 332 165 332 165 318 172.5 c 128,-1,46
 304 180 304 180 284.5 182.5 c 128,-1,47
 265 185 265 185 244 185 c 0,48,49
 226 185 226 185 206.5 181 c 128,-1,50
 187 177 187 177 170.5 169.5 c 128,-1,51
 154 162 154 162 142 151 c 128,-1,52
 130 140 130 140 127 125 c 0,53,54
 122 108 122 108 128 95.5 c 128,-1,55
 134 83 134 83 146.5 74.5 c 128,-1,56
 159 66 159 66 176.5 62 c 128,-1,57
 194 58 194 58 214 58 c 0,58,59
 263 58 263 58 299.5 75 c 128,-1,60
 336 92 336 92 342 120 c 0,43,44
EndSplineSet
Substitution: 0 65534 'L026' uni0E38
Substitution: 0 65534 'L026' uni0E38
EndChar
StartChar: b
Encoding: 98 98 67
Width: 458
Flags: W
Fore
51 30 m 0,0,1
 70 120 70 120 85 189.5 c 128,-1,2
 100 259 100 259 111 311 c 128,-1,3
 122 363 122 363 129.5 399.5 c 128,-1,4
 137 436 137 436 142 460 c 2,5,-1
 156 530 l 2,6,7
 159 545 159 545 173 556 c 128,-1,8
 187 567 187 567 202 567 c 256,9,10
 217 567 217 567 225 556 c 128,-1,11
 233 545 233 545 230 530 c 2,12,-1
 185 318 l 1,13,14
 207 334 207 334 236 345 c 128,-1,15
 265 356 265 356 310 356 c 0,16,17
 354 356 354 356 386.5 342.5 c 128,-1,18
 419 329 419 329 438 305 c 128,-1,19
 457 281 457 281 463 248 c 128,-1,20
 469 215 469 215 461 176 c 256,21,22
 453 137 453 137 433 104 c 128,-1,23
 413 71 413 71 384 46.5 c 128,-1,24
 355 22 355 22 316.5 8.5 c 128,-1,25
 278 -5 278 -5 233 -5 c 0,26,27
 198 -5 198 -5 169.5 4.5 c 128,-1,28
 141 14 141 14 124 34 c 1,29,30
 121 19 121 19 110 6.5 c 128,-1,31
 99 -6 99 -6 80 -6 c 0,32,33
 65 -6 65 -6 56.5 4.5 c 128,-1,34
 48 15 48 15 51 30 c 0,0,1
155 176 m 1,35,36
 143 120 143 120 169.5 94.5 c 128,-1,37
 196 69 196 69 249 69 c 256,38,39
 302 69 302 69 340 95.5 c 128,-1,40
 378 122 378 122 389 176 c 0,41,42
 400 226 400 226 374.5 254.5 c 128,-1,43
 349 283 349 283 295 283 c 0,44,45
 249 283 249 283 208.5 256.5 c 128,-1,46
 168 230 168 230 155 177 c 1,47,-1
 155 176 l 1,35,36
EndSplineSet
Substitution: 0 65534 'L026' uni0E39
Substitution: 0 65534 'L026' uni0E39
EndChar
StartChar: c
Encoding: 99 99 68
Width: 404
Flags: W
Fore
380 56 m 0,0,1
 368 41 368 41 348 28 c 128,-1,2
 328 15 328 15 303.5 6 c 128,-1,3
 279 -3 279 -3 250 -7 c 128,-1,4
 221 -11 221 -11 191 -6 c 0,5,6
 116 5 116 5 84.5 51 c 128,-1,7
 53 97 53 97 69 172 c 0,8,9
 78 217 78 217 100 249.5 c 128,-1,10
 122 282 122 282 149.5 304.5 c 128,-1,11
 177 327 177 327 208 339.5 c 128,-1,12
 239 352 239 352 268 356 c 0,13,14
 300 360 300 360 327 356 c 128,-1,15
 354 352 354 352 375 343 c 128,-1,16
 396 334 396 334 410.5 321 c 128,-1,17
 425 308 425 308 431 293 c 0,18,19
 436 280 436 280 429.5 265.5 c 128,-1,20
 423 251 423 251 409 243 c 256,21,22
 395 235 395 235 381 238.5 c 128,-1,23
 367 242 367 242 362 255 c 0,24,25
 360 259 360 259 352.5 266 c 128,-1,26
 345 273 345 273 332.5 278 c 128,-1,27
 320 283 320 283 302.5 286 c 128,-1,28
 285 289 285 289 263 286 c 0,29,30
 254 285 254 285 236.5 280 c 128,-1,31
 219 275 219 275 200.5 262 c 128,-1,32
 182 249 182 249 165 227.5 c 128,-1,33
 148 206 148 206 141 172 c 0,34,35
 131 126 131 126 149.5 98 c 128,-1,36
 168 70 168 70 216 62 c 0,37,38
 237 59 237 59 255.5 62 c 128,-1,39
 274 65 274 65 289 71 c 128,-1,40
 304 77 304 77 314 83.5 c 128,-1,41
 324 90 324 90 328 95 c 0,42,43
 339 107 339 107 354 110.5 c 128,-1,44
 369 114 369 114 380 106 c 256,45,46
 391 98 391 98 391 83.5 c 128,-1,47
 391 69 391 69 380 56 c 0,0,1
EndSplineSet
Substitution: 0 65534 'L026' uni0E3A
Substitution: 0 65534 'L026' uni0E3A
EndChar
StartChar: d
Encoding: 100 100 69
Width: 458
Flags: W
Fore
418 30 m 0,0,1
 415 15 415 15 401.5 4.5 c 128,-1,2
 388 -6 388 -6 373 -6 c 0,3,4
 354 -6 354 -6 348 6.5 c 128,-1,5
 342 19 342 19 347 34 c 1,6,7
 321 14 321 14 288 4.5 c 128,-1,8
 255 -5 255 -5 220 -5 c 0,9,10
 175 -5 175 -5 142.5 8.5 c 128,-1,11
 110 22 110 22 91.5 46.5 c 128,-1,12
 73 71 73 71 67.5 104 c 128,-1,13
 62 137 62 137 70 176 c 256,14,15
 78 215 78 215 98 248 c 128,-1,16
 118 281 118 281 147.5 305 c 128,-1,17
 177 329 177 329 215 342.5 c 128,-1,18
 253 356 253 356 297 356 c 0,19,20
 342 356 342 356 367 345 c 128,-1,21
 392 334 392 334 406 318 c 1,22,-1
 451 530 l 2,23,24
 454 545 454 545 467 556 c 128,-1,25
 480 567 480 567 495 567 c 256,26,27
 510 567 510 567 518.5 556 c 128,-1,28
 527 545 527 545 524 530 c 0,29,30
 521 517 521 517 509 460 c 0,31,32
 504 436 504 436 496 399.5 c 128,-1,33
 488 363 488 363 477 311 c 128,-1,34
 466 259 466 259 451.5 189.5 c 128,-1,35
 437 120 437 120 418 30 c 0,0,1
376 177 m 1,36,37
 381 203 381 203 375.5 223 c 128,-1,38
 370 243 370 243 357 256.5 c 128,-1,39
 344 270 344 270 324.5 276.5 c 128,-1,40
 305 283 305 283 282 283 c 0,41,42
 228 283 228 283 190.5 254.5 c 128,-1,43
 153 226 153 226 142 176 c 0,44,45
 131 122 131 122 157 95.5 c 128,-1,46
 183 69 183 69 236 69 c 256,47,48
 289 69 289 69 326.5 94.5 c 128,-1,49
 364 120 364 120 376 176 c 1,50,-1
 376 177 l 1,36,37
EndSplineSet
EndChar
StartChar: e
Encoding: 101 101 70
Width: 438
Flags: W
Fore
435 184 m 0,0,1
 421 164 421 164 400.5 157.5 c 128,-1,2
 380 151 380 151 360 151 c 2,3,-1
 139 151 l 1,4,5
 134 107 134 107 162 84 c 128,-1,6
 190 61 190 61 235 61 c 0,7,8
 268 61 268 61 292.5 69.5 c 128,-1,9
 317 78 317 78 334 92 c 0,10,11
 352 107 352 107 365.5 107.5 c 128,-1,12
 379 108 379 108 387 100 c 0,13,14
 398 90 398 90 393.5 73.5 c 128,-1,15
 389 57 389 57 374 46 c 0,16,17
 344 23 344 23 308 9 c 128,-1,18
 272 -5 272 -5 222 -5 c 0,19,20
 179 -5 179 -5 146.5 6.5 c 128,-1,21
 114 18 114 18 94.5 41.5 c 128,-1,22
 75 65 75 65 68.5 99.5 c 128,-1,23
 62 134 62 134 72 180 c 0,24,25
 81 221 81 221 102.5 254.5 c 128,-1,26
 124 288 124 288 154.5 311.5 c 128,-1,27
 185 335 185 335 222.5 348 c 128,-1,28
 260 361 260 361 300 361 c 0,29,30
 351 361 351 361 380 345 c 128,-1,31
 409 329 409 329 423 312 c 0,32,33
 438 292 438 292 443 272.5 c 128,-1,34
 448 253 448 253 447.5 235.5 c 128,-1,35
 447 218 447 218 443 204.5 c 128,-1,36
 439 191 439 191 435 184 c 0,0,1
378 217 m 1,37,38
 378 249 378 249 358.5 272.5 c 128,-1,39
 339 296 339 296 288 296 c 0,40,41
 260 296 260 296 237.5 288 c 128,-1,42
 215 280 215 280 198.5 268 c 128,-1,43
 182 256 182 256 171.5 242 c 128,-1,44
 161 228 161 228 158 217 c 1,45,-1
 378 217 l 1,37,38
EndSplineSet
EndChar
StartChar: f
Encoding: 102 102 71
Width: 252
Flags: W
Fore
415 537 m 0,0,1
 412 523 412 523 399.5 511.5 c 128,-1,2
 387 500 387 500 364 500 c 2,3,-1
 300 500 l 2,4,5
 265 500 265 500 243 479 c 128,-1,6
 221 458 221 458 214 424 c 2,7,-1
 195 337 l 1,8,9
 200 348 200 348 215.5 353 c 128,-1,10
 231 358 231 358 248 358 c 2,11,-1
 273 358 l 2,12,13
 296 358 296 358 303 346 c 128,-1,14
 310 334 310 334 308 324 c 0,15,16
 306 310 306 310 293.5 297.5 c 128,-1,17
 281 285 281 285 257 285 c 2,18,-1
 226 285 l 2,19,20
 198 285 198 285 188 271 c 128,-1,21
 178 257 178 257 175 240 c 2,22,-1
 132 41 l 2,23,24
 127 17 127 17 113.5 7 c 128,-1,25
 100 -3 100 -3 87 -3 c 0,26,27
 67 -3 67 -3 61.5 10.5 c 128,-1,28
 56 24 56 24 60 41 c 2,29,-1
 142 424 l 2,30,31
 148 455 148 455 163.5 482.5 c 128,-1,32
 179 510 179 510 201.5 530 c 128,-1,33
 224 550 224 550 253 561.5 c 128,-1,34
 282 573 282 573 315 573 c 2,35,-1
 379 573 l 2,36,37
 396 573 396 573 407.5 564.5 c 128,-1,38
 419 556 419 556 415 537 c 0,0,1
EndSplineSet
EndChar
StartChar: g
Encoding: 103 103 72
Width: 453
Flags: W
Fore
410 -4 m 0,0,1
 396 -66 396 -66 354 -109.5 c 128,-1,2
 312 -153 312 -153 249 -170 c 0,3,4
 219 -178 219 -178 190 -177.5 c 128,-1,5
 161 -177 161 -177 136.5 -170 c 128,-1,6
 112 -163 112 -163 94.5 -149.5 c 128,-1,7
 77 -136 77 -136 70 -117 c 0,8,9
 64 -104 64 -104 69.5 -91 c 128,-1,10
 75 -78 75 -78 89 -70 c 0,11,12
 103 -60 103 -60 119 -64 c 128,-1,13
 135 -68 135 -68 139 -81 c 1,14,15
 142 -87 142 -87 151.5 -93 c 128,-1,16
 161 -99 161 -99 175 -102 c 128,-1,17
 189 -105 189 -105 207 -105 c 128,-1,18
 225 -105 225 -105 245 -100 c 0,19,20
 258 -97 258 -97 272.5 -90.5 c 128,-1,21
 287 -84 287 -84 299.5 -72.5 c 128,-1,22
 312 -61 312 -61 322.5 -44.5 c 128,-1,23
 333 -28 333 -28 338 -4 c 2,24,-1
 348 44 l 1,25,26
 319 21 319 21 286 10 c 128,-1,27
 253 -1 253 -1 221 -1 c 0,28,29
 134 -1 134 -1 93.5 48.5 c 128,-1,30
 53 98 53 98 70 180 c 0,31,32
 79 222 79 222 100 256 c 128,-1,33
 121 290 121 290 151 313 c 128,-1,34
 181 336 181 336 218.5 348.5 c 128,-1,35
 256 361 256 361 298 361 c 0,36,37
 332 361 332 361 360.5 350.5 c 128,-1,38
 389 340 389 340 407 321 c 1,39,40
 409 335 409 335 420 348.5 c 128,-1,41
 431 362 431 362 451 362 c 256,42,43
 471 362 471 362 477 347 c 128,-1,44
 483 332 483 332 478 318 c 1,45,46
 476 308 476 308 468 270 c 0,47,48
 461 238 461 238 447.5 173.5 c 128,-1,49
 434 109 434 109 410 -4 c 0,0,1
377 180 m 0,50,51
 386 225 386 225 361.5 256 c 128,-1,52
 337 287 337 287 283 287 c 256,53,54
 229 287 229 287 191 260 c 128,-1,55
 153 233 153 233 142 180 c 0,56,57
 130 125 130 125 157 99 c 128,-1,58
 184 73 184 73 237 73 c 0,59,60
 296 73 296 73 331.5 103.5 c 128,-1,61
 367 134 367 134 377 180 c 0,50,51
EndSplineSet
EndChar
StartChar: h
Encoding: 104 104 73
Width: 450
Flags: W
Fore
411 32 m 1,0,1
 408 17 408 17 395 6 c 128,-1,2
 382 -5 382 -5 367 -5 c 256,3,4
 352 -5 352 -5 344 6.5 c 128,-1,5
 336 18 336 18 339 32 c 2,6,-1
 371 179 l 2,7,8
 376 205 376 205 375 225 c 128,-1,9
 374 245 374 245 364 258.5 c 128,-1,10
 354 272 354 272 335 279 c 128,-1,11
 316 286 316 286 285 286 c 0,12,13
 264 286 264 286 243 278.5 c 128,-1,14
 222 271 222 271 204 257 c 128,-1,15
 186 243 186 243 173 223 c 128,-1,16
 160 203 160 203 156 179 c 0,17,18
 155 176 155 176 151 159 c 0,19,20
 148 145 148 145 141.5 115.5 c 128,-1,21
 135 86 135 86 123 32 c 0,22,23
 120 17 120 17 107 6 c 128,-1,24
 94 -5 94 -5 79 -5 c 0,25,26
 63 -5 63 -5 55.5 6 c 128,-1,27
 48 17 48 17 51 32 c 2,28,-1
 160 545 l 2,29,30
 164 561 164 561 176 571 c 128,-1,31
 188 581 188 581 204 581 c 0,32,33
 218 581 218 581 227 570.5 c 128,-1,34
 236 560 236 560 232 545 c 2,35,-1
 183 311 l 1,36,37
 192 321 192 321 206 330 c 128,-1,38
 220 339 220 339 236 345.5 c 128,-1,39
 252 352 252 352 269 356 c 128,-1,40
 286 360 286 360 301 360 c 0,41,42
 347 360 347 360 378 346.5 c 128,-1,43
 409 333 409 333 426 309 c 128,-1,44
 443 285 443 285 447 251.5 c 128,-1,45
 451 218 451 218 443 179 c 2,46,-1
 411 32 l 1,47,-1
 411 32 l 1,0,1
EndSplineSet
EndChar
StartChar: i
Encoding: 105 105 74
Width: 161
Flags: W
Fore
124 40 m 2,0,-1
 182 314 l 2,1,2
 187 333 187 333 181.5 345.5 c 128,-1,3
 176 358 176 358 157 358 c 0,4,5
 137 358 137 358 126 345 c 128,-1,6
 115 332 115 332 111 314 c 2,7,-1
 53 40 l 2,8,9
 49 22 49 22 54.5 9 c 128,-1,10
 60 -4 60 -4 80 -4 c 0,11,12
 93 -4 93 -4 106 6 c 128,-1,13
 119 16 119 16 124 40 c 2,0,-1
218 443 m 0,14,15
 213 422 213 422 199 409.5 c 128,-1,16
 185 397 185 397 164 397 c 0,17,18
 142 397 142 397 133 409.5 c 128,-1,19
 124 422 124 422 129 443 c 0,20,21
 133 463 133 463 147 475 c 128,-1,22
 161 487 161 487 183 487 c 0,23,24
 200 487 200 487 211.5 477.5 c 128,-1,25
 223 468 223 468 218 443 c 0,14,15
EndSplineSet
EndChar
StartChar: j
Encoding: 106 106 75
Width: 162
Flags: W
Fore
107 -46 m 2,0,-1
 184 316 l 2,1,2
 188 334 188 334 181.5 346.5 c 128,-1,3
 175 359 175 359 157 359 c 256,4,5
 139 359 139 359 127.5 346 c 128,-1,6
 116 333 116 333 112 316 c 2,7,-1
 35 -46 l 2,8,9
 30 -69 30 -69 25 -85.5 c 128,-1,10
 20 -102 20 -102 12 -113 c 128,-1,11
 4 -124 4 -124 -9 -129 c 128,-1,12
 -22 -134 -22 -134 -42 -134 c 0,13,14
 -58 -134 -58 -134 -70 -144 c 128,-1,15
 -82 -154 -82 -154 -86 -170 c 0,16,17
 -89 -185 -89 -185 -80.5 -195.5 c 128,-1,18
 -72 -206 -72 -206 -57 -206 c 0,19,20
 15 -206 15 -206 53 -163.5 c 128,-1,21
 91 -121 91 -121 107 -46 c 2,0,-1
218 444 m 0,22,23
 213 423 213 423 199 410.5 c 128,-1,24
 185 398 185 398 164 398 c 0,25,26
 142 398 142 398 133 410.5 c 128,-1,27
 124 423 124 423 129 444 c 0,28,29
 134 464 134 464 147.5 476 c 128,-1,30
 161 488 161 488 183 488 c 0,31,32
 200 488 200 488 211.5 478.5 c 128,-1,33
 223 469 223 469 218 444 c 0,22,23
EndSplineSet
EndChar
StartChar: k
Encoding: 107 107 76
Width: 381
Flags: W
Fore
446 342 m 0,0,1
 451 331 451 331 447 319.5 c 128,-1,2
 443 308 443 308 431 298 c 1,3,-1
 431 299 l 1,4,5
 428 296 428 296 421 292.5 c 128,-1,6
 414 289 414 289 400.5 282 c 128,-1,7
 387 275 387 275 365 265 c 128,-1,8
 343 255 343 255 311 240 c 1,9,10
 340 210 340 210 360 156.5 c 128,-1,11
 380 103 380 103 378 37 c 0,12,13
 377 22 377 22 366.5 9.5 c 128,-1,14
 356 -3 356 -3 340 -5 c 0,15,16
 325 -8 325 -8 314 0.5 c 128,-1,17
 303 9 303 9 305 24 c 0,18,19
 306 86 306 86 287 135 c 128,-1,20
 268 184 268 184 239 207 c 1,21,-1
 150 161 l 1,22,-1
 124 40 l 2,23,24
 119 15 119 15 105 5 c 128,-1,25
 91 -5 91 -5 78 -5 c 0,26,27
 58 -5 58 -5 53 8.5 c 128,-1,28
 48 22 48 22 52 39 c 2,29,-1
 155 525 l 2,30,31
 159 543 159 543 169.5 556 c 128,-1,32
 180 569 180 569 200 569 c 0,33,34
 219 569 219 569 225 556.5 c 128,-1,35
 231 544 231 544 227 525 c 0,36,37
 225 514 225 514 218 481 c 0,38,39
 212 452 212 452 199.5 395 c 128,-1,40
 187 338 187 338 166 237 c 1,41,42
 253 277 253 277 302.5 300.5 c 128,-1,43
 352 324 352 324 377 337 c 0,44,45
 406 352 406 352 413 357 c 1,46,47
 425 360 425 360 434 355.5 c 128,-1,48
 443 351 443 351 446 342 c 0,0,1
EndSplineSet
EndChar
StartChar: l
Encoding: 108 108 77
Width: 162
Flags: W
Fore
126 43 m 1,0,1
 121 19 121 19 107.5 9 c 128,-1,2
 94 -1 94 -1 81 -1 c 0,3,4
 61 -1 61 -1 55.5 12 c 128,-1,5
 50 25 50 25 54 43 c 2,6,-1
 157 531 l 2,7,8
 161 549 161 549 172.5 562 c 128,-1,9
 184 575 184 575 204 575 c 0,10,11
 221 575 221 575 227 561.5 c 128,-1,12
 233 548 233 548 229 531 c 2,13,-1
 126 43 l 1,14,-1
 126 43 l 1,0,1
EndSplineSet
EndChar
StartChar: m
Encoding: 109 109 78
Width: 633
Flags: W
Fore
599 36 m 2,0,1
 596 21 596 21 583 10 c 128,-1,2
 570 -1 570 -1 555 -1 c 0,3,4
 541 -1 541 -1 532 10.5 c 128,-1,5
 523 22 523 22 527 36 c 0,6,7
 540 99 540 99 547 131 c 128,-1,8
 554 163 554 163 557 176.5 c 128,-1,9
 560 190 560 190 560.5 191 c 128,-1,10
 561 192 561 192 561 193 c 0,11,12
 565 212 565 212 565.5 230 c 128,-1,13
 566 248 566 248 560 262 c 128,-1,14
 554 276 554 276 540 285 c 128,-1,15
 526 294 526 294 499 294 c 0,16,17
 484 294 484 294 468.5 289.5 c 128,-1,18
 453 285 453 285 439 276 c 128,-1,19
 425 267 425 267 415 254.5 c 128,-1,20
 405 242 405 242 402 226 c 2,21,-1
 361 36 l 2,22,23
 358 21 358 21 344.5 10 c 128,-1,24
 331 -1 331 -1 317 -1 c 0,25,26
 302 -1 302 -1 293.5 10 c 128,-1,27
 285 21 285 21 288 36 c 2,28,-1
 329 226 l 2,29,30
 335 255 335 255 316 274.5 c 128,-1,31
 297 294 297 294 265 294 c 0,32,33
 215 294 215 294 189.5 265 c 128,-1,34
 164 236 164 236 156 193 c 2,35,-1
 122 36 l 2,36,37
 119 21 119 21 106 10 c 128,-1,38
 93 -1 93 -1 78 -1 c 0,39,40
 64 -1 64 -1 55.5 10.5 c 128,-1,41
 47 22 47 22 50 36 c 2,42,-1
 112 326 l 2,43,44
 115 340 115 340 128.5 351.5 c 128,-1,45
 142 363 142 363 156 363 c 0,46,47
 171 363 171 363 179 351.5 c 128,-1,48
 187 340 187 340 184 326 c 2,49,-1
 182 319 l 1,50,51
 198 339 198 339 227 351 c 128,-1,52
 256 363 256 363 280 363 c 0,53,54
 315 363 315 363 342 349.5 c 128,-1,55
 369 336 369 336 384 308 c 1,56,57
 394 320 394 320 409.5 330.5 c 128,-1,58
 425 341 425 341 442.5 348 c 128,-1,59
 460 355 460 355 478.5 359 c 128,-1,60
 497 363 497 363 514 363 c 0,61,62
 550 363 550 363 576.5 354 c 128,-1,63
 603 345 603 345 619 325 c 128,-1,64
 635 305 635 305 639 273 c 128,-1,65
 643 241 643 241 633 194 c 2,66,-1
 599 36 l 2,0,1
EndSplineSet
EndChar
StartChar: n
Encoding: 110 110 79
Width: 450
Flags: W
Fore
412 36 m 1,0,1
 409 21 409 21 396 10 c 128,-1,2
 383 -1 383 -1 368 -1 c 0,3,4
 354 -1 354 -1 345.5 10.5 c 128,-1,5
 337 22 337 22 340 36 c 2,6,-1
 371 182 l 2,7,8
 382 230 382 230 362.5 259.5 c 128,-1,9
 343 289 343 289 287 289 c 0,10,11
 179 289 179 289 156 179 c 2,12,-1
 125 36 l 2,13,14
 122 21 122 21 109 10 c 128,-1,15
 96 -1 96 -1 81 -1 c 0,16,17
 67 -1 67 -1 58.5 10.5 c 128,-1,18
 50 22 50 22 53 36 c 2,19,-1
 114 325 l 2,20,21
 117 339 117 339 130 350.5 c 128,-1,22
 143 362 143 362 157 362 c 0,23,24
 172 362 172 362 181 351 c 128,-1,25
 190 340 190 340 187 325 c 2,26,-1
 184 314 l 1,27,28
 209 336 209 336 240 349.5 c 128,-1,29
 271 363 271 363 303 363 c 0,30,31
 347 363 347 363 377.5 350 c 128,-1,32
 408 337 408 337 425.5 313 c 128,-1,33
 443 289 443 289 447.5 255.5 c 128,-1,34
 452 222 452 222 443 182 c 2,35,-1
 412 36 l 1,36,-1
 412 36 l 1,0,1
EndSplineSet
EndChar
StartChar: o
Encoding: 111 111 80
Width: 448
Flags: W
Fore
451 182 m 0,0,1
 442 141 442 141 422 107.5 c 128,-1,2
 402 74 402 74 372.5 50.5 c 128,-1,3
 343 27 343 27 305 14 c 128,-1,4
 267 1 267 1 223 1 c 0,5,6
 138 1 138 1 96 49 c 128,-1,7
 54 97 54 97 72 182 c 0,8,9
 81 224 81 224 102 257.5 c 128,-1,10
 123 291 123 291 153 314.5 c 128,-1,11
 183 338 183 338 220.5 350.5 c 128,-1,12
 258 363 258 363 300 363 c 0,13,14
 349 363 349 363 381.5 347 c 128,-1,15
 414 331 414 331 432 305 c 128,-1,16
 450 279 450 279 454 247 c 128,-1,17
 458 215 458 215 451 182 c 0,0,1
381 182 m 0,18,19
 391 227 391 227 368 259 c 128,-1,20
 345 291 345 291 284 291 c 0,21,22
 225 291 225 291 189 262.5 c 128,-1,23
 153 234 153 234 142 182 c 0,24,25
 131 127 131 127 157 100 c 128,-1,26
 183 73 183 73 238 73 c 0,27,28
 297 73 297 73 333.5 102.5 c 128,-1,29
 370 132 370 132 381 182 c 0,18,19
EndSplineSet
EndChar
StartChar: p
Encoding: 112 112 81
Width: 458
Flags: W
Fore
461 179 m 0,0,1
 443 94 443 94 383 46.5 c 128,-1,2
 323 -1 323 -1 232 -1 c 0,3,4
 196 -1 196 -1 168.5 9 c 128,-1,5
 141 19 141 19 124 36 c 1,6,-1
 79 -175 l 2,7,8
 76 -191 76 -191 62.5 -201.5 c 128,-1,9
 49 -212 49 -212 34 -212 c 0,10,11
 20 -212 20 -212 10.5 -201 c 128,-1,12
 1 -190 1 -190 5 -175 c 2,13,-1
 111 324 l 2,14,15
 114 338 114 338 127.5 349.5 c 128,-1,16
 141 361 141 361 155 361 c 0,17,18
 170 361 170 361 178.5 350 c 128,-1,19
 187 339 187 339 183 324 c 2,20,-1
 181 312 l 1,21,22
 205 334 205 334 238.5 347 c 128,-1,23
 272 360 272 360 309 360 c 0,24,25
 397 360 397 360 438 313.5 c 128,-1,26
 479 267 479 267 461 179 c 0,0,1
388 179 m 0,27,28
 398 227 398 227 374 256.5 c 128,-1,29
 350 286 350 286 293 286 c 0,30,31
 238 286 238 286 203 259.5 c 128,-1,32
 168 233 168 233 155 185 c 0,33,34
 141 133 141 133 164.5 102.5 c 128,-1,35
 188 72 188 72 248 72 c 0,36,37
 306 72 306 72 341.5 100 c 128,-1,38
 377 128 377 128 388 179 c 0,27,28
EndSplineSet
EndChar
StartChar: q
Encoding: 113 113 82
Width: 458
Flags: W
Fore
374 -175 m 2,0,1
 371 -191 371 -191 357.5 -201.5 c 128,-1,2
 344 -212 344 -212 330 -212 c 0,3,4
 313 -212 313 -212 306 -201.5 c 128,-1,5
 299 -191 299 -191 302 -175 c 2,6,-1
 347 36 l 1,7,8
 321 18 321 18 288 8.5 c 128,-1,9
 255 -1 255 -1 222 -1 c 0,10,11
 181 -1 181 -1 149 12 c 128,-1,12
 117 25 117 25 96.5 49 c 128,-1,13
 76 73 76 73 69 106 c 128,-1,14
 62 139 62 139 71 179 c 0,15,16
 80 221 80 221 101 254.5 c 128,-1,17
 122 288 122 288 152.5 311.5 c 128,-1,18
 183 335 183 335 220.5 347.5 c 128,-1,19
 258 360 258 360 299 360 c 0,20,21
 333 360 333 360 361.5 349.5 c 128,-1,22
 390 339 390 339 408 317 c 1,23,-1
 409 324 l 2,24,25
 413 339 413 339 425.5 350 c 128,-1,26
 438 361 438 361 453 361 c 0,27,28
 467 361 467 361 476 349.5 c 128,-1,29
 485 338 485 338 481 324 c 2,30,-1
 374 -175 l 2,0,1
379 185 m 0,31,32
 390 233 390 233 362 259.5 c 128,-1,33
 334 286 334 286 283 286 c 0,34,35
 229 286 229 286 192 257.5 c 128,-1,36
 155 229 155 229 144 179 c 0,37,38
 133 131 133 131 158.5 101.5 c 128,-1,39
 184 72 184 72 238 72 c 0,40,41
 295 72 295 72 334.5 102.5 c 128,-1,42
 374 133 374 133 379 185 c 0,31,32
EndSplineSet
EndChar
StartChar: r
Encoding: 114 114 83
Width: 298
Flags: W
Fore
104 314 m 2,0,1
 109 333 109 333 119.5 345.5 c 128,-1,2
 130 358 130 358 150 358 c 0,3,4
 169 358 169 358 175 345.5 c 128,-1,5
 181 333 181 333 176 314 c 2,6,-1
 173 297 l 1,7,8
 197 322 197 322 231.5 340 c 128,-1,9
 266 358 266 358 308 358 c 2,10,-1
 323 358 l 2,11,12
 340 358 340 358 351 350 c 128,-1,13
 362 342 362 342 358 322 c 0,14,15
 355 308 355 308 343 296.5 c 128,-1,16
 331 285 331 285 307 285 c 2,17,-1
 283 285 l 2,18,19
 247 280 247 280 222 265 c 128,-1,20
 197 250 197 250 180 229 c 128,-1,21
 163 208 163 208 153 182.5 c 128,-1,22
 143 157 143 157 138 133 c 2,23,-1
 117 36 l 2,24,25
 114 21 114 21 101 10 c 128,-1,26
 88 -1 88 -1 73 -1 c 0,27,28
 59 -1 59 -1 50.5 10.5 c 128,-1,29
 42 22 42 22 45 36 c 2,30,-1
 104 314 l 2,0,1
EndSplineSet
EndChar
StartChar: s
Encoding: 115 115 84
Width: 361
Flags: W
Fore
373 257 m 0,0,1
 356 245 356 245 338.5 248.5 c 128,-1,2
 321 252 321 252 316 263 c 0,3,4
 307 283 307 283 283.5 292 c 128,-1,5
 260 301 260 301 236 300 c 128,-1,6
 212 299 212 299 192.5 288.5 c 128,-1,7
 173 278 173 278 172 260 c 0,8,9
 171 247 171 247 183.5 237.5 c 128,-1,10
 196 228 196 228 212.5 221 c 128,-1,11
 229 214 229 214 243.5 210 c 128,-1,12
 258 206 258 206 261 205 c 0,13,14
 276 200 276 200 292 193.5 c 128,-1,15
 308 187 308 187 321.5 177.5 c 128,-1,16
 335 168 335 168 344.5 155.5 c 128,-1,17
 354 143 354 143 354 127 c 0,18,19
 356 92 356 92 340 65.5 c 128,-1,20
 324 39 324 39 297.5 21.5 c 128,-1,21
 271 4 271 4 237.5 -4.5 c 128,-1,22
 204 -13 204 -13 171 -12 c 0,23,24
 145 -12 145 -12 123.5 -4.5 c 128,-1,25
 102 3 102 3 86 15 c 128,-1,26
 70 27 70 27 60.5 42 c 128,-1,27
 51 57 51 57 48 73 c 0,28,29
 45 87 45 87 54 102.5 c 128,-1,30
 63 118 63 118 80 123 c 0,31,32
 96 127 96 127 108.5 121 c 128,-1,33
 121 115 121 115 124 101 c 0,34,35
 127 90 127 90 134 81 c 128,-1,36
 141 72 141 72 150.5 65.5 c 128,-1,37
 160 59 160 59 171 55.5 c 128,-1,38
 182 52 182 52 191 52 c 0,39,40
 204 51 204 51 219.5 54 c 128,-1,41
 235 57 235 57 248.5 63 c 128,-1,42
 262 69 262 69 271 79 c 128,-1,43
 280 89 280 89 279 103 c 0,44,45
 279 116 279 116 262.5 126 c 128,-1,46
 246 136 246 136 223.5 144.5 c 128,-1,47
 201 153 201 153 179 159 c 128,-1,48
 157 165 157 165 147 170 c 0,49,50
 124 180 124 180 111 198 c 128,-1,51
 98 216 98 216 96.5 237.5 c 128,-1,52
 95 259 95 259 105.5 282 c 128,-1,53
 116 305 116 305 140 325 c 0,54,55
 166 347 166 347 204 357.5 c 128,-1,56
 242 368 242 368 279.5 365.5 c 128,-1,57
 317 363 317 363 347.5 347.5 c 128,-1,58
 378 332 378 332 389 304 c 0,59,60
 394 291 394 291 389 278 c 128,-1,61
 384 265 384 265 373 257 c 0,0,1
EndSplineSet
EndChar
StartChar: t
Encoding: 116 116 85
Width: 278
Flags: W
Fore
282 36 m 0,0,1
 280 23 280 23 268 11.5 c 128,-1,2
 256 0 256 0 232 0 c 2,3,-1
 197 0 l 2,4,5
 163 0 163 0 137 9 c 128,-1,6
 111 18 111 18 94.5 36.5 c 128,-1,7
 78 55 78 55 73 83 c 128,-1,8
 68 111 68 111 76 149 c 2,9,-1
 155 521 l 2,10,11
 160 540 160 540 171 552.5 c 128,-1,12
 182 565 182 565 202 565 c 0,13,14
 220 565 220 565 226 552.5 c 128,-1,15
 232 540 232 540 227 521 c 2,16,-1
 193 358 l 1,17,-1
 266 358 l 2,18,19
 284 358 284 358 294.5 349.5 c 128,-1,20
 305 341 305 341 301 321 c 0,21,22
 298 307 298 307 286 296 c 128,-1,23
 274 285 274 285 250 285 c 2,24,-1
 177 285 l 1,25,-1
 148 149 l 2,26,27
 140 110 140 110 157 91.5 c 128,-1,28
 174 73 174 73 212 73 c 2,29,-1
 247 73 l 2,30,31
 265 73 265 73 276 64.5 c 128,-1,32
 287 56 287 56 282 36 c 0,0,1
EndSplineSet
EndChar
StartChar: u
Encoding: 117 117 86
Width: 447
Flags: W
Fore
410 33 m 1,0,1
 406 17 406 17 393.5 6.5 c 128,-1,2
 381 -4 381 -4 366 -4 c 0,3,4
 352 -4 352 -4 342.5 5.5 c 128,-1,5
 333 15 333 15 337 30 c 2,6,-1
 339 38 l 1,7,8
 313 18 313 18 283 6.5 c 128,-1,9
 253 -5 253 -5 221 -5 c 0,10,11
 132 -5 132 -5 97.5 45 c 128,-1,12
 63 95 63 95 80 176 c 2,13,-1
 111 322 l 2,14,15
 114 337 114 337 127.5 347.5 c 128,-1,16
 141 358 141 358 155 358 c 0,17,18
 171 358 171 358 178.5 348 c 128,-1,19
 186 338 186 338 183 322 c 2,20,-1
 152 176 l 2,21,22
 141 127 141 127 161.5 98 c 128,-1,23
 182 69 182 69 237 69 c 0,24,25
 293 69 293 69 324.5 94.5 c 128,-1,26
 356 120 356 120 368 176 c 2,27,-1
 399 322 l 2,28,29
 402 337 402 337 415 347.5 c 128,-1,30
 428 358 428 358 443 358 c 0,31,32
 457 358 457 358 466 347.5 c 128,-1,33
 475 337 475 337 471 322 c 2,34,-1
 410 33 l 1,35,-1
 410 33 l 1,0,1
EndSplineSet
EndChar
StartChar: v
Encoding: 118 118 87
Width: 400
Flags: W
Fore
452 310 m 0,0,1
 450 306 450 306 436 280 c 0,2,3
 424 257 424 257 397.5 210 c 128,-1,4
 371 163 371 163 321 75 c 0,5,6
 316 66 316 66 306.5 52.5 c 128,-1,7
 297 39 297 39 281.5 26.5 c 128,-1,8
 266 14 266 14 245 4.5 c 128,-1,9
 224 -5 224 -5 197 -5 c 256,10,11
 170 -5 170 -5 153.5 4 c 128,-1,12
 137 13 137 13 127.5 26 c 128,-1,13
 118 39 118 39 113.5 52.5 c 128,-1,14
 109 66 109 66 107 74 c 1,15,-1
 107 75 l 1,16,-1
 76 310 l 2,17,18
 74 324 74 324 84 337.5 c 128,-1,19
 94 351 94 351 108 356 c 0,20,21
 123 362 123 362 135.5 355 c 128,-1,22
 148 348 148 348 150 334 c 2,23,-1
 153 305 l 2,24,25
 155 283 155 283 161 236 c 128,-1,26
 167 189 167 189 180 102 c 0,27,28
 183 81 183 81 190 73 c 128,-1,29
 197 65 197 65 212 65 c 256,30,31
 227 65 227 65 238 73 c 128,-1,32
 249 81 249 81 260 102 c 2,33,-1
 388 334 l 2,34,35
 396 348 396 348 412 355 c 128,-1,36
 428 362 428 362 440 356 c 0,37,38
 453 351 453 351 456.5 337.5 c 128,-1,39
 460 324 460 324 452 310 c 0,0,1
EndSplineSet
EndChar
StartChar: w
Encoding: 119 119 88
Width: 598
Flags: W
Fore
609 173 m 2,0,1
 601 134 601 134 585 101.5 c 128,-1,2
 569 69 569 69 544.5 45.5 c 128,-1,3
 520 22 520 22 486.5 8.5 c 128,-1,4
 453 -5 453 -5 411 -5 c 0,5,6
 372 -5 372 -5 345 9.5 c 128,-1,7
 318 24 318 24 307 43 c 1,8,9
 283 21 283 21 248.5 8 c 128,-1,10
 214 -5 214 -5 182 -5 c 0,11,12
 139 -5 139 -5 111.5 8 c 128,-1,13
 84 21 84 21 70 44.5 c 128,-1,14
 56 68 56 68 54 101.5 c 128,-1,15
 52 135 52 135 61 176 c 2,16,-1
 92 322 l 2,17,18
 95 337 95 337 108 347.5 c 128,-1,19
 121 358 121 358 136 358 c 0,20,21
 150 358 150 358 158.5 347.5 c 128,-1,22
 167 337 167 337 164 322 c 0,23,24
 152 267 152 267 146 237.5 c 128,-1,25
 140 208 140 208 137 194 c 128,-1,26
 134 180 134 180 133 177 c 128,-1,27
 132 174 132 174 132 173 c 0,28,29
 128 154 128 154 128 135.5 c 128,-1,30
 128 117 128 117 134.5 102 c 128,-1,31
 141 87 141 87 156.5 78 c 128,-1,32
 172 69 172 69 198 69 c 0,33,34
 230 69 230 69 256.5 85.5 c 128,-1,35
 283 102 283 102 289 131 c 2,36,-1
 330 322 l 2,37,38
 333 337 333 337 346.5 347.5 c 128,-1,39
 360 358 360 358 374 358 c 0,40,41
 390 358 390 358 397.5 348 c 128,-1,42
 405 338 405 338 402 322 c 2,43,-1
 361 131 l 2,44,45
 355 102 355 102 375 85.5 c 128,-1,46
 395 69 395 69 427 69 c 0,47,48
 479 69 479 69 503 96.5 c 128,-1,49
 527 124 527 124 538 176 c 2,50,-1
 569 322 l 2,51,52
 572 337 572 337 585 347.5 c 128,-1,53
 598 358 598 358 613 358 c 0,54,55
 627 358 627 358 635.5 347.5 c 128,-1,56
 644 337 644 337 641 322 c 2,57,-1
 609 173 l 2,0,1
EndSplineSet
EndChar
StartChar: x
Encoding: 120 120 89
Width: 389
Flags: W
Fore
379 57 m 0,0,1
 384 44 384 44 379 29 c 128,-1,2
 374 14 374 14 360 5 c 256,3,4
 346 -4 346 -4 331 -2 c 128,-1,5
 316 0 316 0 309 13 c 0,6,7
 301 30 301 30 293 48 c 0,8,9
 285 63 285 63 276.5 81.5 c 128,-1,10
 268 100 268 100 260 117 c 0,11,12
 254 129 254 129 248.5 140.5 c 128,-1,13
 243 152 243 152 226 152 c 0,14,15
 212 152 212 152 200 140.5 c 128,-1,16
 188 129 188 129 177 117 c 1,17,18
 177 115 177 115 166 104 c 0,19,20
 157 94 157 94 137.5 73 c 128,-1,21
 118 52 118 52 83 13 c 0,22,23
 72 0 72 0 56.5 -2 c 128,-1,24
 41 -4 41 -4 30 5 c 256,25,26
 19 14 19 14 20.5 29 c 128,-1,27
 22 44 22 44 33 57 c 0,28,29
 68 96 68 96 87.5 117 c 128,-1,30
 107 138 107 138 115 147 c 0,31,32
 125 158 125 158 125 159 c 1,33,34
 134 169 134 169 146.5 174.5 c 128,-1,35
 159 180 159 180 168 180 c 1,36,37
 157 181 157 181 147.5 188.5 c 128,-1,38
 138 196 138 196 135 201 c 2,39,-1
 129 214 l 2,40,41
 124 223 124 223 114 243 c 128,-1,42
 104 263 104 263 85 300 c 0,43,44
 79 312 79 312 84 327 c 128,-1,45
 89 342 89 342 102 352 c 0,46,47
 116 361 116 361 132 360 c 128,-1,48
 148 359 148 359 153 345 c 2,49,-1
 170 311 l 2,50,51
 178 296 178 296 186.5 278.5 c 128,-1,52
 195 261 195 261 203 244 c 0,53,54
 209 232 l 128,-1,55
 212 226 212 226 215.5 221 c 128,-1,56
 219 216 219 216 224 212.5 c 128,-1,57
 229 209 229 209 238 209 c 0,58,59
 254 209 254 209 264.5 220.5 c 128,-1,60
 275 232 275 232 286 243 c 2,61,-1
 381 345 l 2,62,63
 393 358 393 358 408 359.5 c 128,-1,64
 423 361 423 361 434 352 c 0,65,66
 444 342 444 342 442.5 327 c 128,-1,67
 441 312 441 312 429 300 c 0,68,69
 394 262 394 262 375 242 c 128,-1,70
 356 222 356 222 347.5 213 c 128,-1,71
 339 204 339 204 337.5 202.5 c 130,-1,72
 336 201 l 2,73,74
 331 196 331 196 319 188.5 c 128,-1,75
 307 181 307 181 296 180 c 1,76,77
 310 178 310 178 318.5 170.5 c 128,-1,78
 327 163 327 163 329 159 c 2,79,80
 331 157 331 157 336 146 c 0,81,82
 341 136 341 136 350.5 115.5 c 128,-1,83
 360 95 360 95 379 57 c 0,0,1
EndSplineSet
EndChar
StartChar: y
Encoding: 121 121 90
Width: 409
Flags: W
Fore
380 -18 m 0,0,1
 366 -81 366 -81 324 -124.5 c 128,-1,2
 282 -168 282 -168 219 -185 c 0,3,4
 189 -193 189 -193 160 -192.5 c 128,-1,5
 131 -192 131 -192 106.5 -185 c 128,-1,6
 82 -178 82 -178 64 -164.5 c 128,-1,7
 46 -151 46 -151 39 -132 c 0,8,9
 34 -119 34 -119 41.5 -105 c 128,-1,10
 49 -91 49 -91 63 -83 c 256,11,12
 77 -75 77 -75 91 -79 c 128,-1,13
 105 -83 105 -83 109 -96 c 0,14,15
 111 -102 111 -102 120.5 -108 c 128,-1,16
 130 -114 130 -114 144.5 -117 c 128,-1,17
 159 -120 159 -120 177 -120 c 128,-1,18
 195 -120 195 -120 215 -115 c 0,19,20
 228 -112 228 -112 242.5 -105 c 128,-1,21
 257 -98 257 -98 269.5 -87 c 128,-1,22
 282 -76 282 -76 292.5 -59 c 128,-1,23
 303 -42 303 -42 308 -18 c 0,24,25
 312 2 l 0,26,27
 315 20 315 20 319 33 c 1,28,29
 293 15 293 15 264 6.5 c 128,-1,30
 235 -2 235 -2 203 -2 c 0,31,32
 116 -2 116 -2 80 47.5 c 128,-1,33
 44 97 44 97 62 179 c 2,34,-1
 93 325 l 2,35,36
 96 340 96 340 109 350.5 c 128,-1,37
 122 361 122 361 136 361 c 0,38,39
 152 361 152 361 160 351 c 128,-1,40
 168 341 168 341 165 325 c 2,41,-1
 134 179 l 2,42,43
 122 122 122 122 142.5 97 c 128,-1,44
 163 72 163 72 219 72 c 0,45,46
 276 72 276 72 306 98 c 128,-1,47
 336 124 336 124 350 179 c 2,48,-1
 379 319 l 2,49,50
 382 333 382 333 393 347.5 c 128,-1,51
 404 362 404 362 424 362 c 256,52,53
 444 362 444 362 450 347.5 c 128,-1,54
 456 333 456 333 451 319 c 1,55,56
 451 321 451 321 444 288 c 0,57,58
 441 273 441 273 436 249.5 c 128,-1,59
 431 226 431 226 423.5 189 c 128,-1,60
 416 152 416 152 405 101.5 c 128,-1,61
 394 51 394 51 380 -18 c 0,0,1
EndSplineSet
EndChar
StartChar: z
Encoding: 122 122 91
Width: 370
Flags: W
Fore
301 241 m 2,0,1
 315 246 315 246 320 253 c 128,-1,2
 325 260 325 260 325 268 c 0,3,4
 327 284 327 284 298 284 c 2,5,-1
 135 284 l 2,6,7
 117 284 117 284 105 293 c 128,-1,8
 93 302 93 302 98 320 c 0,9,10
 101 334 101 334 113.5 346 c 128,-1,11
 126 358 126 358 151 358 c 2,12,-1
 315 358 l 2,13,14
 357 358 357 358 376.5 336 c 128,-1,15
 396 314 396 314 396 284 c 0,16,17
 396 274 396 274 393 261.5 c 128,-1,18
 390 249 390 249 383 236 c 128,-1,19
 376 223 376 223 363.5 210.5 c 128,-1,20
 351 198 351 198 332 189 c 2,21,-1
 143 118 l 2,22,23
 128 113 128 113 122.5 104 c 128,-1,24
 117 95 117 95 118 87 c 0,25,26
 118 78 118 78 125.5 75.5 c 128,-1,27
 133 73 133 73 145 73 c 2,28,-1
 308 73 l 2,29,30
 326 73 326 73 337.5 64 c 128,-1,31
 349 55 349 55 345 37 c 0,32,33
 342 23 342 23 329.5 11 c 128,-1,34
 317 -1 317 -1 292 -1 c 2,35,-1
 128 -1 l 2,36,37
 86 -1 86 -1 66.5 21.5 c 128,-1,38
 47 44 47 44 47 74 c 0,39,40
 47 84 47 84 50 96.5 c 128,-1,41
 53 109 53 109 60 122.5 c 128,-1,42
 67 136 67 136 79.5 148.5 c 128,-1,43
 92 161 92 161 112 170 c 2,44,-1
 301 241 l 2,0,1
EndSplineSet
EndChar
StartChar: braceleft
Encoding: 123 123 92
Width: 300
Flags: W
Fore
338 465 m 0,0,1
 333 454 333 454 325 448 c 128,-1,2
 317 442 317 442 308 437 c 0,3,4
 285 424 285 424 271 406.5 c 128,-1,5
 257 389 257 389 251 360 c 2,6,-1
 238 299 l 2,7,8
 231 266 231 266 211 240 c 128,-1,9
 191 214 191 214 162 197 c 1,10,11
 184 180 184 180 193 154 c 128,-1,12
 202 128 202 128 195 95 c 2,13,-1
 182 35 l 2,14,15
 176 6 176 6 182 -12 c 128,-1,16
 188 -30 188 -30 206 -43 c 0,17,18
 220 -53 220 -53 223.5 -66 c 128,-1,19
 227 -79 227 -79 212 -98 c 0,20,21
 199 -112 199 -112 181 -114 c 0,22,23
 151 -116 151 -116 121 -72 c 0,24,25
 107 -52 107 -52 103.5 -26 c 128,-1,26
 100 0 100 0 108 35 c 2,27,-1
 121 95 l 2,28,29
 124 112 124 112 123 123.5 c 128,-1,30
 122 135 122 135 118.5 143 c 128,-1,31
 115 151 115 151 110 156 c 128,-1,32
 105 161 105 161 100 165 c 0,33,34
 93 170 93 170 86.5 178 c 128,-1,35
 80 186 80 186 85 200 c 0,36,37
 89 211 89 211 97.5 217.5 c 128,-1,38
 106 224 106 224 114 229 c 0,39,40
 128 237 128 237 142 250.5 c 128,-1,41
 156 264 156 264 164 299 c 2,42,-1
 177 360 l 2,43,44
 192 429 192 429 236 467 c 0,45,46
 286 511 286 511 313 508 c 0,47,48
 328 506 328 506 336.5 493 c 128,-1,49
 345 480 345 480 338 465 c 0,0,1
EndSplineSet
EndChar
StartChar: bar
Encoding: 124 124 93
Width: 200
Flags: W
Fore
115 -99 m 1,0,1
 110 -124 110 -124 96.5 -133.5 c 128,-1,2
 83 -143 83 -143 70 -143 c 0,3,4
 50 -143 50 -143 43.5 -130.5 c 128,-1,5
 37 -118 37 -118 41 -99 c 2,6,-1
 168 496 l 2,7,8
 172 515 172 515 183 528 c 128,-1,9
 194 541 194 541 215 541 c 0,10,11
 233 541 233 541 239.5 527.5 c 128,-1,12
 246 514 246 514 242 496 c 2,13,-1
 115 -99 l 1,14,-1
 115 -99 l 1,0,1
EndSplineSet
EndChar
StartChar: braceright
Encoding: 125 125 94
Width: 300
Flags: W
Fore
299 199 m 0,0,1
 298 185 298 185 288 177 c 128,-1,2
 278 169 278 169 269 164 c 0,3,4
 255 156 255 156 240.5 142 c 128,-1,5
 226 128 226 128 218 94 c 2,6,-1
 206 34 l 2,7,8
 192 -34 192 -34 148 -73 c 0,9,10
 133 -86 133 -86 117.5 -97 c 128,-1,11
 102 -108 102 -108 88 -113 c 128,-1,12
 74 -118 74 -118 62.5 -115.5 c 128,-1,13
 51 -113 51 -113 45 -99 c 0,14,15
 39 -83 39 -83 43.5 -73 c 128,-1,16
 48 -63 48 -63 58 -55 c 128,-1,17
 68 -47 68 -47 81 -40 c 128,-1,18
 94 -33 94 -33 104 -23 c 0,19,20
 125 -1 125 -1 132 34 c 2,21,-1
 144 94 l 2,22,23
 152 127 152 127 171.5 153 c 128,-1,24
 191 179 191 179 220 196 c 1,25,26
 198 213 198 213 189 239 c 128,-1,27
 180 265 180 265 188 298 c 2,28,-1
 201 359 l 2,29,30
 208 394 208 394 197 415 c 0,31,32
 191 424 191 424 181.5 431.5 c 128,-1,33
 172 439 172 439 165.5 447.5 c 128,-1,34
 159 456 159 456 158.5 466 c 128,-1,35
 158 476 158 476 171 491 c 0,36,37
 183 505 183 505 195 507.5 c 128,-1,38
 207 510 207 510 219 505 c 128,-1,39
 231 500 231 500 242.5 489 c 128,-1,40
 254 478 254 478 263 466 c 0,41,42
 289 426 289 426 275 359 c 2,43,-1
 262 298 l 2,44,45
 258 281 258 281 259 269.5 c 128,-1,46
 260 258 260 258 263 250 c 128,-1,47
 266 242 266 242 271.5 237 c 128,-1,48
 277 232 277 232 282 228 c 0,49,50
 288 223 288 223 294 216.5 c 128,-1,51
 300 210 300 210 299 199 c 0,0,1
EndSplineSet
EndChar
StartChar: asciitilde
Encoding: 126 126 95
Width: 432
Flags: W
Fore
446 219 m 0,0,1
 439 183 439 183 422 158 c 128,-1,2
 405 133 405 133 382.5 120 c 128,-1,3
 360 107 360 107 334 107 c 128,-1,4
 308 107 308 107 282 121 c 2,5,-1
 205 168 l 2,6,7
 201 171 201 171 191.5 176 c 128,-1,8
 182 181 182 181 171.5 182.5 c 128,-1,9
 161 184 161 184 151 178.5 c 128,-1,10
 141 173 141 173 136 155 c 0,11,12
 135 151 135 151 132 145 c 128,-1,13
 129 139 129 139 124 133 c 128,-1,14
 119 127 119 127 111 123 c 128,-1,15
 103 119 103 119 93 119 c 0,16,17
 80 119 80 119 73.5 123.5 c 128,-1,18
 67 128 67 128 64.5 133.5 c 128,-1,19
 62 139 62 139 62 145 c 128,-1,20
 62 151 62 151 62 154 c 1,21,22
 70 193 70 193 90.5 224.5 c 128,-1,23
 111 256 111 256 150 262 c 0,24,25
 167 265 167 265 186 259.5 c 128,-1,26
 205 254 205 254 215 248 c 2,27,-1
 296 201 l 2,28,29
 307 194 307 194 319 188.5 c 128,-1,30
 331 183 331 183 341.5 183 c 128,-1,31
 352 183 352 183 360.5 191 c 128,-1,32
 369 199 369 199 373 219 c 0,33,34
 374 223 374 223 375.5 229 c 128,-1,35
 377 235 377 235 381.5 241 c 128,-1,36
 386 247 386 247 394 251 c 128,-1,37
 402 255 402 255 416 255 c 0,38,39
 439 255 439 255 443.5 242.5 c 128,-1,40
 448 230 448 230 446 219 c 0,0,1
EndSplineSet
EndChar
StartChar: uni0E33.alt1
Encoding: 65539 -1 96
Width: 423
Flags: W
Fore
384 30 m 2,0,1
 381 15 381 15 369 7.5 c 128,-1,2
 357 0 357 0 342 0 c 256,3,4
 327 0 327 0 317 7 c 128,-1,5
 307 14 307 14 311 29 c 2,6,-1
 360 260 l 2,7,8
 367 293 367 293 349 315 c 128,-1,9
 331 337 331 337 280 337 c 0,10,11
 260 337 260 337 240.5 331.5 c 128,-1,12
 221 326 221 326 204.5 317.5 c 128,-1,13
 188 309 188 309 175 298.5 c 128,-1,14
 162 288 162 288 155 279 c 0,15,16
 144 266 144 266 129.5 265.5 c 128,-1,17
 115 265 115 265 104 273 c 0,18,19
 78 289 78 289 100 316 c 0,20,21
 115 335 115 335 137 352.5 c 128,-1,22
 159 370 159 370 185 382.5 c 128,-1,23
 211 395 211 395 239.5 402.5 c 128,-1,24
 268 410 268 410 296 410 c 0,25,26
 332 410 332 410 360.5 399 c 128,-1,27
 389 388 389 388 407.5 368 c 128,-1,28
 426 348 426 348 433 320.5 c 128,-1,29
 440 293 440 293 433 260 c 2,30,-1
 384 30 l 2,0,1
-4 567 m 0,31,32
 -9 546 -9 546 -21 529 c 128,-1,33
 -33 512 -33 512 -50 500 c 128,-1,34
 -67 488 -67 488 -87.5 481 c 128,-1,35
 -108 474 -108 474 -130 474 c 0,36,37
 -176 474 -176 474 -200 500.5 c 128,-1,38
 -224 527 -224 527 -216 567 c 0,39,40
 -212 586 -212 586 -200 603 c 128,-1,41
 -188 620 -188 620 -170.5 632.5 c 128,-1,42
 -153 645 -153 645 -132.5 652.5 c 128,-1,43
 -112 660 -112 660 -90 660 c 0,44,45
 -48 660 -48 660 -22 634.5 c 128,-1,46
 4 609 4 609 -4 567 c 0,31,32
-61 567 m 0,47,48
 -58 583 -58 583 -67 593 c 128,-1,49
 -76 603 -76 603 -102 603 c 0,50,51
 -127 603 -127 603 -141.5 592.5 c 128,-1,52
 -156 582 -156 582 -159 567 c 0,53,54
 -163 548 -163 548 -150 539.5 c 128,-1,55
 -137 531 -137 531 -118 531 c 0,56,57
 -98 531 -98 531 -81.5 539.5 c 128,-1,58
 -65 548 -65 548 -61 567 c 0,47,48
EndSplineSet
EndChar
StartChar: quotedbl
Encoding: 34 34 97
Width: 258
Flags: W
Fore
297 339 m 2,0,1
 292 314 292 314 278 304.5 c 128,-1,2
 264 295 264 295 250 295 c 0,3,4
 230 295 230 295 224 307.5 c 128,-1,5
 218 320 218 320 223 339 c 2,6,-1
 245 443 l 2,7,8
 249 462 249 462 260 474.5 c 128,-1,9
 271 487 271 487 291 487 c 0,10,11
 310 487 310 487 316.5 474 c 128,-1,12
 323 461 323 461 319 443 c 2,13,-1
 297 339 l 2,0,1
178 339 m 2,14,15
 173 314 173 314 159 304.5 c 128,-1,16
 145 295 145 295 132 295 c 0,17,18
 112 295 112 295 105.5 307.5 c 128,-1,19
 99 320 99 320 104 339 c 2,20,-1
 126 443 l 2,21,22
 130 462 130 462 141.5 474.5 c 128,-1,23
 153 487 153 487 173 487 c 0,24,25
 191 487 191 487 197.5 474 c 128,-1,26
 204 461 204 461 200 443 c 2,27,-1
 178 339 l 2,14,15
EndSplineSet
EndChar
StartChar: exclam
Encoding: 33 33 98
Width: 209
Flags: W
Fore
166 152 m 2,0,1
 162 138 162 138 153.5 127.5 c 128,-1,2
 145 117 145 117 131 117 c 0,3,4
 114 117 114 117 111.5 128.5 c 128,-1,5
 109 140 109 140 111 152 c 2,6,-1
 168 467 l 2,7,8
 170 478 170 478 178.5 489.5 c 128,-1,9
 187 501 187 501 213 501 c 0,10,11
 238 501 238 501 241.5 489.5 c 128,-1,12
 245 478 245 478 243 467 c 2,13,-1
 166 152 l 2,0,1
160 39 m 0,14,15
 155 14 155 14 139 4.5 c 128,-1,16
 123 -5 123 -5 106 -5 c 0,17,18
 84 -5 84 -5 75 7 c 128,-1,19
 66 19 66 19 71 39 c 0,20,21
 76 60 76 60 90 72.5 c 128,-1,22
 104 85 104 85 126 85 c 0,23,24
 147 85 147 85 156 72.5 c 128,-1,25
 165 60 165 60 160 39 c 0,14,15
EndSplineSet
EndChar
StartChar: uni0E4E.alt1
Encoding: 65540 -1 99
Width: 0
Flags: W
Fore
20 697 m 0,0,1
 28 695 28 695 32.5 690 c 128,-1,2
 37 685 37 685 37 680.5 c 128,-1,3
 37 676 37 676 32 673 c 128,-1,4
 27 670 27 670 17 670 c 1,5,6
 -8 674 -8 674 -34.5 660 c 128,-1,7
 -61 646 -61 646 -64 623 c 128,-1,8
 -67 600 -67 600 -40 597 c 0,9,10
 -30 595 -30 595 -29.5 587.5 c 128,-1,11
 -29 580 -29 580 -31 577 c 256,12,13
 -33 574 -33 574 -36 569.5 c 128,-1,14
 -39 565 -39 565 -52 564 c 0,15,16
 -131 563 -131 563 -142 519 c 1,17,18
 -143 492 -143 492 -112 492 c 128,-1,19
 -81 492 -81 492 -70 499 c 1,20,-1
 -86 462 l 1,21,22
 -134 443 -134 443 -171.5 455.5 c 128,-1,23
 -209 468 -209 468 -206 513 c 1,24,25
 -187 586 -187 586 -106 588 c 1,26,27
 -125 614 -125 614 -113 644.5 c 128,-1,28
 -101 675 -101 675 -64.5 692 c 128,-1,29
 -28 709 -28 709 20 697 c 0,0,1
EndSplineSet
EndChar
StartChar: exclamdown
Encoding: 161 161 100
Width: 209
Flags: W
Fore
120 -111 m 2,0,1
 118 -122 118 -122 109.5 -133.5 c 128,-1,2
 101 -145 101 -145 76 -145 c 0,3,4
 63 -145 63 -145 56 -142 c 128,-1,5
 49 -139 49 -139 46 -134 c 128,-1,6
 43 -129 43 -129 43.5 -123 c 128,-1,7
 44 -117 44 -117 45 -111 c 2,8,-1
 122 204 l 2,9,10
 125 216 125 216 132.5 227.5 c 128,-1,11
 140 239 140 239 157 239 c 0,12,13
 171 239 171 239 175 228.5 c 128,-1,14
 179 218 179 218 177 204 c 2,15,-1
 120 -111 l 2,0,1
219 317 m 0,16,17
 214 296 214 296 200 283.5 c 128,-1,18
 186 271 186 271 165 271 c 0,19,20
 143 271 143 271 134 283.5 c 128,-1,21
 125 296 125 296 130 317 c 0,22,23
 135 337 135 337 148.5 349 c 128,-1,24
 162 361 162 361 184 361 c 0,25,26
 201 361 201 361 212.5 351.5 c 128,-1,27
 224 342 224 342 219 317 c 0,16,17
EndSplineSet
EndChar
StartChar: cent
Encoding: 162 162 101
Width: 432
Flags: W
Fore
409 164 m 0,0,1
 420 156 420 156 420.5 141.5 c 128,-1,2
 421 127 421 127 410 114 c 0,3,4
 397 98 397 98 374.5 83.5 c 128,-1,5
 352 69 352 69 324.5 59 c 128,-1,6
 297 49 297 49 265.5 46 c 128,-1,7
 234 43 234 43 204 51 c 1,8,-1
 167 -21 l 2,9,10
 163 -29 163 -29 154 -33 c 128,-1,11
 145 -37 145 -37 138 -34 c 0,12,13
 131 -32 131 -32 128 -25.5 c 128,-1,14
 125 -19 125 -19 128 -12 c 2,15,-1
 167 62 l 1,16,17
 64 105 64 105 91 232 c 0,18,19
 102 286 102 286 129.5 324.5 c 128,-1,20
 157 363 157 363 192.5 386.5 c 128,-1,21
 228 410 228 410 267.5 419 c 128,-1,22
 307 428 307 428 342 422 c 1,23,-1
 377 490 l 2,24,25
 380 497 380 497 388 500.5 c 128,-1,26
 396 504 396 504 404 502 c 0,27,28
 413 500 413 500 415.5 494 c 128,-1,29
 418 488 418 488 414 481 c 2,30,-1
 383 417 l 1,31,32
 415 409 415 409 434.5 392.5 c 128,-1,33
 454 376 454 376 461 355 c 1,34,35
 467 343 467 343 460.5 328.5 c 128,-1,36
 454 314 454 314 440 306 c 0,37,38
 424 298 424 298 409.5 301 c 128,-1,39
 395 304 395 304 390 317 c 0,40,41
 388 323 388 323 377.5 331 c 128,-1,42
 367 339 367 339 348 344 c 1,43,-1
 239 124 l 1,44,45
 260 120 260 120 279 122 c 128,-1,46
 298 124 298 124 314 129 c 128,-1,47
 330 134 330 134 340.5 140.5 c 128,-1,48
 351 147 351 147 355 152 c 0,49,50
 366 166 366 166 382 170 c 128,-1,51
 398 174 398 174 409 164 c 0,0,1
163 232 m 0,52,53
 155 197 155 197 163.5 171.5 c 128,-1,54
 172 146 172 146 201 133 c 1,55,-1
 306 348 l 1,56,57
 295 350 295 350 274.5 347 c 128,-1,58
 254 344 254 344 232 331.5 c 128,-1,59
 210 319 210 319 190.5 295 c 128,-1,60
 171 271 171 271 163 232 c 0,52,53
EndSplineSet
EndChar
StartChar: sterling
Encoding: 163 163 102
Width: 398
Flags: W
Fore
88 263 m 1,0,-1
 143 263 l 1,1,2
 142 268 142 268 136.5 279 c 128,-1,3
 131 290 131 290 126 305 c 128,-1,4
 121 320 121 320 119.5 338.5 c 128,-1,5
 118 357 118 357 124 378 c 0,6,7
 137 421 137 421 173.5 450 c 128,-1,8
 210 479 210 479 253.5 491 c 128,-1,9
 297 503 297 503 340 496 c 128,-1,10
 383 489 383 489 409 459 c 0,11,12
 426 439 426 439 434.5 406.5 c 128,-1,13
 443 374 443 374 435 337 c 1,14,-1
 364 337 l 1,15,16
 366 350 366 350 364 368.5 c 128,-1,17
 362 387 362 387 353 403 c 128,-1,18
 344 419 344 419 327 429 c 128,-1,19
 310 439 310 439 281 437 c 0,20,21
 260 435 260 435 241.5 426 c 128,-1,22
 223 417 223 417 210.5 402 c 128,-1,23
 198 387 198 387 193 367 c 128,-1,24
 188 347 188 347 194 324 c 0,25,26
 199 312 199 312 205.5 296 c 128,-1,27
 212 280 212 280 214 263 c 1,28,-1
 277 263 l 1,29,-1
 283 224 l 1,30,-1
 216 224 l 1,31,32
 218 202 218 202 214.5 184 c 128,-1,33
 211 166 211 166 203 152 c 0,34,35
 195 136 195 136 184.5 123.5 c 128,-1,36
 174 111 174 111 163.5 101 c 128,-1,37
 153 91 153 91 143 83.5 c 128,-1,38
 133 76 133 76 126 70 c 1,39,40
 149 78 149 78 178.5 81.5 c 128,-1,41
 208 85 208 85 243 77 c 0,42,43
 263 71 l 128,-1,44
 273 68 273 68 286.5 68 c 128,-1,45
 300 68 300 68 318 72 c 128,-1,46
 336 76 336 76 363 88 c 1,47,-1
 378 28 l 1,48,49
 368 24 368 24 353.5 17.5 c 128,-1,50
 339 11 339 11 320.5 5.5 c 128,-1,51
 302 0 302 0 279 -1.5 c 128,-1,52
 256 -3 256 -3 230 4 c 0,53,54
 205 11 205 11 186 15 c 128,-1,55
 167 19 167 19 149 19.5 c 128,-1,56
 131 20 131 20 112 15 c 128,-1,57
 93 10 93 10 69 -1 c 1,58,-1
 48 66 l 1,59,60
 61 76 61 76 76 86 c 128,-1,61
 91 96 91 96 111 116 c 0,62,63
 128 134 128 134 137.5 150 c 128,-1,64
 147 166 147 166 151.5 180 c 128,-1,65
 156 194 156 194 156 205 c 128,-1,66
 156 216 156 216 155 224 c 1,67,-1
 94 224 l 1,68,-1
 88 263 l 1,0,-1
EndSplineSet
EndChar
StartChar: currency
Encoding: 164 164 103
Width: 486
Flags: W
Fore
464 229 m 0,0,1
 458 200 458 200 443.5 176 c 128,-1,2
 429 152 429 152 410 132 c 1,3,-1
 428 109 l 2,4,5
 437 98 437 98 433 87 c 128,-1,6
 429 76 429 76 421 68 c 0,7,8
 412 60 412 60 397 58 c 128,-1,9
 382 56 382 56 374 67 c 2,10,-1
 355 90 l 1,11,12
 327 72 327 72 304.5 65 c 128,-1,13
 282 58 282 58 255 58 c 0,14,15
 223 58 223 58 203.5 66 c 128,-1,16
 184 74 184 74 167 91 c 1,17,-1
 138 67 l 2,18,19
 125 56 125 56 113 58 c 128,-1,20
 101 60 101 60 95 68 c 0,21,22
 90 76 90 76 89 88.5 c 128,-1,23
 88 101 88 101 100 112 c 2,24,-1
 130 137 l 1,25,26
 119 158 119 158 116.5 176.5 c 128,-1,27
 114 195 114 195 120 225 c 0,28,29
 128 262 128 262 143 284.5 c 128,-1,30
 158 307 158 307 172 324 c 1,31,-1
 151 351 l 2,32,33
 143 361 143 361 149 373.5 c 128,-1,34
 155 386 155 386 163 394 c 0,35,36
 172 401 172 401 186 405 c 128,-1,37
 200 409 200 409 209 399 c 2,38,-1
 230 370 l 1,39,40
 256 386 256 386 278 391.5 c 128,-1,41
 300 397 300 397 327 397 c 0,42,43
 359 397 359 397 377.5 390 c 128,-1,44
 396 383 396 383 413 368 c 1,45,-1
 444 395 l 2,46,47
 456 405 456 405 470.5 402.5 c 128,-1,48
 485 400 485 400 490 393 c 0,49,50
 496 385 496 385 495.5 371.5 c 128,-1,51
 495 358 495 358 482 348 c 2,52,-1
 452 323 l 1,53,54
 460 307 460 307 466 286 c 128,-1,55
 472 265 472 265 464 229 c 0,0,1
188 226 m 0,56,57
 178 181 178 181 201 151.5 c 128,-1,58
 224 122 224 122 269 122 c 256,59,60
 314 122 314 122 350.5 151.5 c 128,-1,61
 387 181 387 181 397 226 c 0,62,63
 406 271 406 271 382.5 301 c 128,-1,64
 359 331 359 331 314 331 c 0,65,66
 292 331 292 331 271 323 c 128,-1,67
 250 315 250 315 233 300.5 c 128,-1,68
 216 286 216 286 204 267 c 128,-1,69
 192 248 192 248 188 226 c 0,56,57
EndSplineSet
EndChar
StartChar: yen
Encoding: 165 165 104
Width: 382
Flags: W
Fore
455 486 m 0,0,1
 468 475 468 475 468 458.5 c 128,-1,2
 468 442 468 442 454 428 c 2,3,-1
 284 234 l 1,4,-1
 383 234 l 1,5,-1
 373 187 l 1,6,-1
 272 187 l 1,7,-1
 265 152 l 1,8,-1
 366 152 l 1,9,-1
 356 106 l 1,10,-1
 255 106 l 1,11,-1
 240 36 l 2,12,13
 236 19 236 19 222 8 c 128,-1,14
 208 -3 208 -3 191 -3 c 0,15,16
 175 -3 175 -3 165 8.5 c 128,-1,17
 155 20 155 20 158 36 c 2,18,-1
 173 106 l 1,19,-1
 70 106 l 1,20,-1
 80 152 l 1,21,-1
 183 152 l 1,22,-1
 190 187 l 1,23,-1
 87 187 l 1,24,-1
 97 234 l 1,25,-1
 198 234 l 1,26,-1
 112 429 l 2,27,28
 107 444 107 444 114 460 c 128,-1,29
 121 476 121 476 137 486 c 0,30,31
 154 494 154 494 170 489.5 c 128,-1,32
 186 485 186 485 190 469 c 2,33,34
 197 450.5 l 130,-1,35
 204 432 204 432 215 406.5 c 128,-1,36
 226 381 226 381 237.5 353.5 c 128,-1,37
 249 326 249 326 258 307 c 1,38,-1
 395 470 l 2,39,40
 407 486 407 486 425 490 c 128,-1,41
 443 494 443 494 455 486 c 0,0,1
EndSplineSet
EndChar
StartChar: brokenbar
Encoding: 166 166 105
Width: 164
Flags: W
Fore
191 519 m 0,0,1
 207 519 207 519 210.5 509 c 128,-1,2
 214 499 214 499 209 477 c 2,3,-1
 167 279 l 2,4,5
 162 258 162 258 154.5 247 c 128,-1,6
 147 236 147 236 131 236 c 0,7,8
 116 236 116 236 112 247 c 128,-1,9
 108 258 108 258 113 279 c 2,10,-1
 155 477 l 2,11,12
 160 499 160 499 168 509 c 128,-1,13
 176 519 176 519 191 519 c 0,0,1
108 129 m 0,14,15
 124 129 124 129 127.5 119 c 128,-1,16
 131 109 131 109 126 87 c 2,17,-1
 84 -112 l 2,18,19
 79 -133 79 -133 71.5 -144 c 128,-1,20
 64 -155 64 -155 48 -155 c 0,21,22
 33 -155 33 -155 29 -144 c 128,-1,23
 25 -133 25 -133 30 -112 c 2,24,-1
 72 87 l 2,25,26
 77 109 77 109 85 119 c 128,-1,27
 93 129 93 129 108 129 c 0,14,15
EndSplineSet
EndChar
StartChar: section
Encoding: 167 167 106
Width: 472
Flags: W
Fore
426 131 m 0,0,1
 413 115 413 115 397 102.5 c 128,-1,2
 381 90 381 90 370 88 c 1,3,4
 388 56 388 56 380 22 c 128,-1,5
 372 -12 372 -12 347.5 -40 c 128,-1,6
 323 -68 323 -68 287 -85.5 c 128,-1,7
 251 -103 251 -103 213 -101 c 0,8,9
 144 -97 144 -97 115 -62.5 c 128,-1,10
 86 -28 86 -28 100 42 c 0,11,12
 105 60 105 60 118 70.5 c 128,-1,13
 131 81 131 81 148 81 c 256,14,15
 165 81 165 81 173.5 70.5 c 128,-1,16
 182 60 182 60 176 40 c 0,17,18
 170 16 170 16 175.5 -1 c 128,-1,19
 181 -18 181 -18 194.5 -27 c 128,-1,20
 208 -36 208 -36 225.5 -37.5 c 128,-1,21
 243 -39 243 -39 261 -32 c 256,22,23
 279 -25 279 -25 289.5 -11 c 128,-1,24
 300 3 300 3 303 18.5 c 128,-1,25
 306 34 306 34 301.5 47.5 c 128,-1,26
 297 61 297 61 285 67 c 0,27,28
 249 91 249 91 220 109 c 0,29,30
 195 125 195 125 174.5 138 c 128,-1,31
 154 151 154 151 153 152 c 0,32,33
 130 164 130 164 121 190.5 c 128,-1,34
 112 217 112 217 117 247 c 128,-1,35
 122 277 122 277 141.5 306.5 c 128,-1,36
 161 336 161 336 195 355 c 1,37,38
 181 381 181 381 187.5 414.5 c 128,-1,39
 194 448 194 448 217 476 c 256,40,41
 240 504 240 504 276.5 520.5 c 128,-1,42
 313 537 313 537 353 537 c 0,43,44
 383 537 383 537 407 526.5 c 128,-1,45
 431 516 431 516 447 497.5 c 128,-1,46
 463 479 463 479 468.5 453.5 c 128,-1,47
 474 428 474 428 468 398 c 0,48,49
 464 381 464 381 451 370 c 128,-1,50
 438 359 438 359 422 359 c 0,51,52
 405 359 405 359 397 371 c 128,-1,53
 389 383 389 383 394 399 c 0,54,55
 396 409 396 409 395.5 421.5 c 128,-1,56
 395 434 395 434 389.5 444.5 c 128,-1,57
 384 455 384 455 372.5 462 c 128,-1,58
 361 469 361 469 341 469 c 0,59,60
 323 469 323 469 306.5 459.5 c 128,-1,61
 290 450 290 450 280 436 c 128,-1,62
 270 422 270 422 268 406 c 128,-1,63
 266 390 266 390 276 377 c 0,64,65
 282 369 282 369 302.5 355.5 c 128,-1,66
 323 342 323 342 347 327 c 128,-1,67
 371 312 371 312 393.5 298 c 128,-1,68
 416 284 416 284 427 275 c 0,69,70
 441 263 441 263 448.5 246 c 128,-1,71
 456 229 456 229 456 210 c 128,-1,72
 456 191 456 191 448.5 170.5 c 128,-1,73
 441 150 441 150 426 131 c 0,0,1
333 137 m 1,74,75
 345 140 345 140 356 150.5 c 128,-1,76
 367 161 367 161 373 174.5 c 128,-1,77
 379 188 379 188 377.5 201.5 c 128,-1,78
 376 215 376 215 362 223 c 2,79,80
 346.5 233 l 130,-1,81
 331 243 331 243 310 256.5 c 128,-1,82
 289 270 289 270 267 283 c 128,-1,83
 245 296 245 296 233 303 c 1,84,85
 214 297 214 297 204 284.5 c 128,-1,86
 194 272 194 272 190.5 258.5 c 128,-1,87
 187 245 187 245 189.5 234 c 128,-1,88
 192 223 192 223 200 219 c 2,89,90
 216.5 208.5 l 130,-1,91
 233 198 233 198 255 184.5 c 128,-1,92
 299 157.5 l 128,-1,93
 321 144 321 144 333 137 c 1,74,75
EndSplineSet
EndChar
StartChar: dieresis
Encoding: 168 168 107
Width: 273
Flags: W
Fore
147 390 m 0,0,1
 125 390 125 390 114 403.5 c 128,-1,2
 103 417 103 417 107 436 c 0,3,4
 112 456 112 456 128.5 470 c 128,-1,5
 145 484 145 484 167 484 c 0,6,7
 186 484 186 484 197 470 c 128,-1,8
 208 456 208 456 203 436 c 0,9,10
 199 417 199 417 182.5 403.5 c 128,-1,11
 166 390 166 390 147 390 c 0,0,1
294 390 m 0,12,13
 272 390 272 390 261 403.5 c 128,-1,14
 250 417 250 417 254 436 c 0,15,16
 259 456 259 456 275.5 470 c 128,-1,17
 292 484 292 484 314 484 c 0,18,19
 333 484 333 484 344 470 c 128,-1,20
 355 456 355 456 350 436 c 0,21,22
 346 417 346 417 329.5 403.5 c 128,-1,23
 313 390 313 390 294 390 c 0,12,13
EndSplineSet
EndChar
StartChar: copyright
Encoding: 169 169 108
Width: 575
Flags: W
Fore
392 498 m 0,0,1
 445 498 445 498 487 478 c 128,-1,2
 529 458 529 458 556.5 423.5 c 128,-1,3
 584 389 584 389 594 342.5 c 128,-1,4
 604 296 604 296 593 244 c 0,5,6
 582 190 582 190 552 143 c 128,-1,7
 522 96 522 96 480 61 c 128,-1,8
 438 26 438 26 387.5 6 c 128,-1,9
 337 -14 337 -14 284 -14 c 0,10,11
 230 -14 230 -14 187.5 6 c 128,-1,12
 145 26 145 26 117 61 c 128,-1,13
 89 96 89 96 79 143 c 128,-1,14
 69 190 69 190 80 244 c 0,15,16
 91 296 91 296 121 342.5 c 128,-1,17
 151 389 151 389 193.5 423.5 c 128,-1,18
 236 458 236 458 287 478 c 128,-1,19
 338 498 338 498 392 498 c 0,0,1
294 35 m 0,20,21
 337 35 337 35 378 51 c 128,-1,22
 419 67 419 67 453.5 95.5 c 128,-1,23
 488 124 488 124 512.5 162 c 128,-1,24
 537 200 537 200 546 244 c 0,25,26
 555 287 555 287 547 324.5 c 128,-1,27
 539 362 539 362 516.5 390.5 c 128,-1,28
 494 419 494 419 460 435.5 c 128,-1,29
 426 452 426 452 383 452 c 0,30,31
 339 452 339 452 298 435.5 c 128,-1,32
 257 419 257 419 222.5 390.5 c 128,-1,33
 188 362 188 362 163.5 324.5 c 128,-1,34
 139 287 139 287 130 244 c 0,35,36
 121 200 121 200 129 162 c 128,-1,37
 137 124 137 124 159 95.5 c 128,-1,38
 181 67 181 67 215.5 51 c 128,-1,39
 250 35 250 35 294 35 c 0,20,21
477 349 m 0,40,41
 460 371 460 371 434 382.5 c 128,-1,42
 408 394 408 394 379 394 c 0,43,44
 349 394 349 394 319 383 c 128,-1,45
 289 372 289 372 263.5 352 c 128,-1,46
 238 332 238 332 219.5 303.5 c 128,-1,47
 201 275 201 275 194 241 c 0,48,49
 187 208 187 208 192 182.5 c 128,-1,50
 197 157 197 157 209 138 c 128,-1,51
 221 119 221 119 238 107 c 128,-1,52
 255 95 255 95 272 91 c 0,53,54
 304 80 304 80 345.5 87.5 c 128,-1,55
 387 95 387 95 429 130 c 0,56,57
 434 134 434 134 439 144 c 128,-1,58
 444 154 444 154 436 164 c 0,59,60
 430 172 430 172 420 170.5 c 128,-1,61
 410 169 410 169 403 163 c 0,62,63
 383 147 383 147 353 136.5 c 128,-1,64
 323 126 323 126 294 138 c 0,65,66
 285 141 285 141 274 147 c 128,-1,67
 263 153 263 153 254 165 c 128,-1,68
 245 177 245 177 241 195.5 c 128,-1,69
 237 214 237 214 243 241 c 0,70,71
 253 289 253 289 288.5 318.5 c 128,-1,72
 324 348 324 348 369 348 c 0,73,74
 410 348 410 348 435 314 c 0,75,76
 440 306 440 306 450 306 c 128,-1,77
 460 306 460 306 468 313 c 256,78,79
 476 320 476 320 479 331 c 128,-1,80
 482 342 482 342 477 349 c 0,40,41
EndSplineSet
EndChar
StartChar: ordfeminine
Encoding: 170 170 109
Width: 293
Flags: W
Fore
323 315 m 2,0,-1
 300 207 l 2,1,2
 298 196 298 196 290 190 c 128,-1,3
 282 184 282 184 272 184 c 0,4,5
 264 184 264 184 258.5 189.5 c 128,-1,6
 253 195 253 195 256 205 c 1,7,8
 240 196 240 196 218.5 190 c 128,-1,9
 197 184 197 184 175 184 c 0,10,11
 122 184 122 184 96.5 204 c 128,-1,12
 71 224 71 224 80 266 c 0,13,14
 88 301 88 301 124 325.5 c 128,-1,15
 160 350 160 350 214 350 c 0,16,17
 238 350 238 350 258 343 c 128,-1,18
 278 336 278 336 283 326 c 1,19,20
 290 351 290 351 276.5 365 c 128,-1,21
 263 379 263 379 216 379 c 0,22,23
 196 379 196 379 178.5 374.5 c 128,-1,24
 161 370 161 370 145 362 c 0,25,26
 130 354 130 354 124 358.5 c 128,-1,27
 118 363 118 363 116 365 c 1,28,29
 111 373 111 373 115.5 384 c 128,-1,30
 120 395 120 395 132 401 c 0,31,32
 152 413 152 413 175.5 418.5 c 128,-1,33
 199 424 199 424 224 424 c 0,34,35
 282 424 282 424 311 399 c 128,-1,36
 340 374 340 374 323 315 c 2,0,-1
183 224 m 0,37,38
 214 224 214 224 238.5 234.5 c 128,-1,39
 263 245 263 245 268 265 c 0,40,41
 271 278 271 278 266 286 c 128,-1,42
 261 294 261 294 251.5 299 c 128,-1,43
 242 304 242 304 229 306 c 128,-1,44
 216 308 216 308 203 308 c 0,45,46
 191 308 191 308 178 305.5 c 128,-1,47
 165 303 165 303 154 298 c 128,-1,48
 143 293 143 293 135 285.5 c 128,-1,49
 127 278 127 278 124 268 c 0,50,51
 119 245 119 245 137.5 234.5 c 128,-1,52
 156 224 156 224 183 224 c 0,37,38
EndSplineSet
EndChar
StartChar: guillemotleft
Encoding: 171 171 110
Width: 393
Flags: W
Fore
145 182 m 1,0,1
 149 171 149 171 156 154 c 128,-1,2
 163 137 163 137 171 120 c 0,3,4
 180 101 180 101 189 80 c 0,5,6
 194 69 194 69 187.5 53.5 c 128,-1,7
 181 38 181 38 167 32 c 0,8,9
 153 24 153 24 139 27 c 128,-1,10
 125 30 125 30 122 44 c 1,11,12
 118.5 53 l 130,-1,13
 115 62 115 62 109.5 76 c 128,-1,14
 104 90 104 90 97.5 106 c 128,-1,15
 91 122 91 122 85 135.5 c 128,-1,16
 79 149 79 149 75 158.5 c 128,-1,17
 71 167 71 167 71 168 c 2,18,19
 66 179 66 179 70 186 c 128,-1,20
 74 193 74 193 80 201 c 2,21,-1
 181 321 l 2,22,23
 190 333 190 333 205 336.5 c 128,-1,24
 220 340 220 340 231 332 c 256,25,26
 242 324 242 324 242 310 c 128,-1,27
 242 296 242 296 232 284 c 0,28,29
 214 263 214 263 197 244 c 0,30,31
 183 227 183 227 168 210 c 128,-1,32
 153 193 153 193 145 182 c 1,0,1
305 182 m 1,33,34
 309 171 309 171 316 154 c 128,-1,35
 323 137 323 137 331 120 c 0,36,37
 340 101 340 101 349 80 c 0,38,39
 354 69 354 69 347.5 53.5 c 128,-1,40
 341 38 341 38 327 32 c 0,41,42
 313 24 313 24 299 27 c 128,-1,43
 285 30 285 30 282 44 c 1,44,45
 278.5 53 l 130,-1,46
 275 62 275 62 269.5 76 c 128,-1,47
 264 90 264 90 257.5 106 c 128,-1,48
 251 122 251 122 245 135.5 c 128,-1,49
 239 149 239 149 235 158.5 c 128,-1,50
 231 167 231 167 231 168 c 2,51,52
 226 179 226 179 230 186 c 128,-1,53
 234 193 234 193 240 201 c 2,54,-1
 341 321 l 2,55,56
 350 333 350 333 365 336.5 c 128,-1,57
 380 340 380 340 391 332 c 256,58,59
 402 324 402 324 402 310 c 128,-1,60
 402 296 402 296 392 284 c 0,61,62
 374 263 374 263 357 244 c 0,63,64
 343 227 343 227 328 210 c 128,-1,65
 313 193 313 193 305 182 c 1,33,34
EndSplineSet
EndChar
StartChar: logicalnot
Encoding: 172 172 111
Width: 581
Flags: W
Fore
586 296 m 1,0,-1
 543 93 l 2,1,2
 540 78 540 78 526.5 67 c 128,-1,3
 513 56 513 56 498 56 c 0,4,5
 482 56 482 56 472.5 66.5 c 128,-1,6
 463 77 463 77 466 93 c 2,7,-1
 494 222 l 1,8,-1
 111 222 l 2,9,10
 95 222 95 222 86 233 c 128,-1,11
 77 244 77 244 81 260 c 0,12,13
 84 277 84 277 96.5 286.5 c 128,-1,14
 109 296 109 296 126 296 c 2,15,-1
 586 296 l 1,0,-1
EndSplineSet
EndChar
StartChar: registered
Encoding: 174 174 112
Width: 531
Flags: W
Fore
573 244 m 256,0,1
 562 191 562 191 531.5 144 c 128,-1,2
 501 97 501 97 459 62 c 128,-1,3
 417 27 417 27 366 7 c 128,-1,4
 315 -13 315 -13 262 -13 c 256,5,6
 209 -13 209 -13 166.5 7 c 128,-1,7
 124 27 124 27 96 62 c 128,-1,8
 68 97 68 97 58 144 c 128,-1,9
 48 191 48 191 59 244 c 256,10,11
 70 297 70 297 100.5 343.5 c 128,-1,12
 131 390 131 390 173 425 c 128,-1,13
 215 460 215 460 266.5 480.5 c 128,-1,14
 318 501 318 501 371 501 c 256,15,16
 424 501 424 501 466.5 480.5 c 128,-1,17
 509 460 509 460 536.5 425 c 128,-1,18
 564 390 564 390 574 343.5 c 128,-1,19
 584 297 584 297 573 244 c 256,0,1
524 244 m 0,20,21
 533 287 533 287 525 325 c 128,-1,22
 517 363 517 363 495 391.5 c 128,-1,23
 473 420 473 420 438.5 436 c 128,-1,24
 404 452 404 452 361 452 c 0,25,26
 317 452 317 452 275.5 436 c 128,-1,27
 234 420 234 420 199.5 391.5 c 128,-1,28
 165 363 165 363 140.5 325 c 128,-1,29
 116 287 116 287 107 244 c 0,30,31
 98 200 98 200 106.5 162 c 128,-1,32
 115 124 115 124 137 96 c 128,-1,33
 159 68 159 68 193.5 51.5 c 128,-1,34
 228 35 228 35 272 35 c 0,35,36
 315 35 315 35 356.5 51.5 c 128,-1,37
 398 68 398 68 432.5 96 c 128,-1,38
 467 124 467 124 491 162 c 128,-1,39
 515 200 515 200 524 244 c 0,20,21
270 223 m 1,40,41
 260 228 260 228 255.5 235 c 128,-1,42
 251 242 251 242 259 253 c 0,43,44
 266 263 266 263 277 264 c 128,-1,45
 288 265 288 265 296 261 c 0,46,47
 308 255 308 255 325.5 251.5 c 128,-1,48
 343 248 343 248 361 250 c 128,-1,49
 379 252 379 252 394.5 261.5 c 128,-1,50
 410 271 410 271 416 291 c 0,51,52
 425 316 425 316 408.5 336.5 c 128,-1,53
 392 357 392 357 345 356 c 0,54,55
 301 354 301 354 276.5 338.5 c 128,-1,56
 252 323 252 323 244 284 c 2,57,-1
 210 126 l 2,58,59
 208 115 208 115 202.5 107 c 128,-1,60
 197 99 197 99 185 99 c 0,61,62
 172 99 172 99 168.5 107 c 128,-1,63
 165 115 165 115 167 126 c 2,64,-1
 205 302 l 2,65,66
 210 327 210 327 225 345.5 c 128,-1,67
 240 364 240 364 261 376 c 128,-1,68
 282 388 282 388 306.5 394 c 128,-1,69
 331 400 331 400 355 400 c 0,70,71
 376 400 376 400 398 395 c 128,-1,72
 420 390 420 390 436.5 378.5 c 128,-1,73
 453 367 453 367 461 348 c 128,-1,74
 469 329 469 329 463 300 c 0,75,76
 458 277 458 277 447 260 c 128,-1,77
 436 243 436 243 421 232 c 128,-1,78
 406 221 406 221 388.5 216 c 128,-1,79
 371 211 371 211 355 211 c 1,80,81
 373 198 373 198 388 176.5 c 128,-1,82
 403 155 403 155 411 129 c 0,83,84
 414 121 414 121 412 112 c 128,-1,85
 410 103 410 103 396 98 c 0,86,87
 390 96 390 96 385 96 c 256,88,89
 380 96 380 96 376 99 c 128,-1,90
 372 102 372 102 369 112 c 0,91,92
 361 130 361 130 348.5 147 c 128,-1,93
 336 164 336 164 322 178 c 128,-1,94
 308 192 308 192 294 203.5 c 128,-1,95
 280 215 280 215 270 223 c 1,40,41
EndSplineSet
EndChar
StartChar: macron
Encoding: 175 175 113
Width: 328
Flags: W
Fore
149 422 m 1,0,1
 136 421 136 421 127.5 431.5 c 128,-1,2
 119 442 119 442 121 456 c 0,3,4
 124 470 124 470 137 480.5 c 128,-1,5
 150 491 150 491 164 491 c 2,6,-1
 369 491 l 2,7,8
 383 491 383 491 391.5 481 c 128,-1,9
 400 471 400 471 396 456 c 0,10,11
 393 442 393 442 380.5 432 c 128,-1,12
 368 422 368 422 354 422 c 2,13,-1
 149 422 l 1,14,-1
 149 422 l 1,0,1
EndSplineSet
EndChar
StartChar: degree
Encoding: 176 176 114
Width: 216
Flags: W
Fore
104 404 m 0,0,1
 108 422 108 422 118.5 438 c 128,-1,2
 129 454 129 454 143.5 466 c 128,-1,3
 158 478 158 478 175.5 485 c 128,-1,4
 193 492 193 492 211 492 c 0,5,6
 248 492 248 492 268 466.5 c 128,-1,7
 288 441 288 441 280 404 c 0,8,9
 276 386 276 386 266 370 c 128,-1,10
 256 354 256 354 241.5 342 c 128,-1,11
 227 330 227 330 209.5 323 c 128,-1,12
 192 316 192 316 174 316 c 0,13,14
 137 316 137 316 116.5 341.5 c 128,-1,15
 96 367 96 367 104 404 c 0,0,1
147 404 m 0,16,17
 143 385 143 385 153.5 372 c 128,-1,18
 164 359 164 359 183 359 c 256,19,20
 202 359 202 359 217.5 372 c 128,-1,21
 233 385 233 385 237 404 c 0,22,23
 242 423 242 423 231.5 436 c 128,-1,24
 221 449 221 449 202 449 c 256,25,26
 183 449 183 449 167.5 436 c 128,-1,27
 152 423 152 423 147 404 c 0,16,17
EndSplineSet
EndChar
StartChar: plusminus
Encoding: 177 177 115
Width: 429
Flags: W
Fore
440 241 m 0,0,1
 437 227 437 227 424.5 215 c 128,-1,2
 412 203 412 203 387 203 c 2,3,-1
 294 203 l 1,4,-1
 281 145 l 2,5,6
 276 120 276 120 262.5 110 c 128,-1,7
 249 100 249 100 235 100 c 0,8,9
 215 100 215 100 208.5 113 c 128,-1,10
 202 126 202 126 206 145 c 2,11,-1
 219 203 l 1,12,-1
 126 203 l 2,13,14
 107 203 107 203 95.5 212 c 128,-1,15
 84 221 84 221 89 241 c 0,16,17
 93 260 93 260 107.5 268.5 c 128,-1,18
 122 277 122 277 141 277 c 2,19,-1
 234 277 l 1,20,-1
 247 338 l 2,21,22
 252 357 252 357 263.5 369.5 c 128,-1,23
 275 382 275 382 295 382 c 0,24,25
 313 382 313 382 319.5 369 c 128,-1,26
 326 356 326 356 322 338 c 2,27,-1
 309 277 l 1,28,-1
 402 277 l 2,29,30
 421 277 421 277 432.5 268.5 c 128,-1,31
 444 260 444 260 440 241 c 0,0,1
393 38 m 0,32,33
 390 24 390 24 378 12 c 128,-1,34
 366 0 366 0 341 0 c 2,35,-1
 83 0 l 2,36,37
 64 0 64 0 53 9 c 128,-1,38
 42 18 42 18 47 38 c 0,39,40
 51 57 51 57 65.5 65.5 c 128,-1,41
 80 74 80 74 98 74 c 2,42,-1
 356 74 l 2,43,44
 374 74 374 74 385.5 65.5 c 128,-1,45
 397 57 397 57 393 38 c 0,32,33
EndSplineSet
EndChar
StartChar: twosuperior
Encoding: 178 178 116
Width: 309
Flags: W
Fore
312 239 m 0,0,1
 319 230 319 230 316 218 c 0,2,3
 314 207 314 207 304 198.5 c 128,-1,4
 294 190 294 190 283 190 c 2,5,-1
 110 190 l 2,6,7
 99 190 99 190 93 196 c 128,-1,8
 87 202 87 202 86 210.5 c 128,-1,9
 85 219 85 219 89 228.5 c 128,-1,10
 93 238 93 238 101 244 c 2,11,-1
 122 258 l 2,12,13
 138 269 138 269 170.5 291.5 c 128,-1,14
 203 314 203 314 265 357 c 0,15,16
 282 367 282 367 287 379.5 c 128,-1,17
 292 392 292 392 288.5 402.5 c 128,-1,18
 285 413 285 413 274.5 420.5 c 128,-1,19
 264 428 264 428 250 428 c 0,20,21
 221 428 221 428 203.5 413 c 128,-1,22
 186 398 186 398 180 378 c 0,23,24
 177 367 177 367 166 359 c 128,-1,25
 155 351 155 351 143 352 c 0,26,27
 133 354 133 354 127.5 362.5 c 128,-1,28
 122 371 122 371 125 383 c 0,29,30
 139 431 139 431 175 458 c 128,-1,31
 211 485 211 485 263 485 c 0,32,33
 298 485 298 485 319.5 467.5 c 128,-1,34
 341 450 341 450 346.5 423.5 c 128,-1,35
 352 397 352 397 340 367 c 128,-1,36
 328 337 328 337 296 313 c 0,37,38
 260 289 l 0,39,40
 245 278 245 278 228.5 266.5 c 128,-1,41
 212 255 212 255 199 247 c 1,42,-1
 295 247 l 2,43,44
 307 247 307 247 312 239 c 0,0,1
EndSplineSet
EndChar
StartChar: threesuperior
Encoding: 179 179 117
Width: 280
Flags: W
Fore
281 350 m 1,0,1
 295 345 295 345 303 324.5 c 128,-1,2
 311 304 311 304 306 278 c 0,3,4
 296 235 296 235 260 210.5 c 128,-1,5
 224 186 224 186 184 186 c 0,6,7
 163 186 163 186 144.5 190.5 c 128,-1,8
 126 195 126 195 113.5 206 c 128,-1,9
 101 217 101 217 95.5 235 c 128,-1,10
 90 253 90 253 96 279 c 0,11,12
 98 292 98 292 108 300 c 128,-1,13
 118 308 118 308 131 308 c 0,14,15
 145 308 145 308 151.5 300 c 128,-1,16
 158 292 158 292 156 279 c 0,17,18
 151 259 151 259 162.5 248.5 c 128,-1,19
 174 238 174 238 196 238 c 0,20,21
 213 238 213 238 229.5 246 c 128,-1,22
 246 254 246 254 254 275 c 0,23,24
 256 281 256 281 256.5 288.5 c 128,-1,25
 257 296 257 296 255 303 c 128,-1,26
 253 310 253 310 248 315 c 128,-1,27
 243 320 243 320 234 320 c 2,28,-1
 192 320 l 2,29,30
 180 320 180 320 173.5 329 c 128,-1,31
 167 338 167 338 170 349 c 0,32,33
 172 359 172 359 182.5 366.5 c 128,-1,34
 193 374 193 374 203 374 c 2,35,-1
 243 374 l 2,36,37
 248 374 248 374 257 381.5 c 128,-1,38
 266 389 266 389 268 404 c 0,39,40
 270 413 270 413 260.5 422.5 c 128,-1,41
 251 432 251 432 235 432 c 0,42,43
 207 432 207 432 197 423 c 128,-1,44
 187 414 187 414 185 406 c 0,45,46
 174 377 174 377 148 377 c 0,47,48
 135 377 135 377 128.5 385 c 128,-1,49
 122 393 122 393 125 406 c 0,50,51
 128 422 128 422 139.5 436.5 c 128,-1,52
 151 451 151 451 167.5 462 c 128,-1,53
 184 473 184 473 205 479 c 128,-1,54
 226 485 226 485 248 485 c 0,55,56
 289 485 289 485 308 463 c 128,-1,57
 327 441 327 441 325 414 c 0,58,59
 326 397 326 397 313 377.5 c 128,-1,60
 300 358 300 358 281 350 c 1,0,1
EndSplineSet
EndChar
StartChar: acute
Encoding: 180 180 118
Width: 253
Flags: W
Fore
246 500 m 1,0,-1
 331 500 l 1,1,-1
 214 399 l 1,2,-1
 169 399 l 1,3,-1
 246 500 l 1,0,-1
EndSplineSet
EndChar
StartChar: mu
Encoding: 181 181 119
Width: 480
Flags: W
Fore
119 31 m 2,0,1
 117 14 117 14 116 4 c 128,-1,2
 115 -6 115 -6 114.5 -13 c 128,-1,3
 114 -20 114 -20 114 -26 c 128,-1,4
 114 -32 114 -32 115 -40 c 0,5,6
 116 -56 116 -56 114.5 -77 c 128,-1,7
 113 -98 113 -98 106.5 -116.5 c 128,-1,8
 100 -135 100 -135 87.5 -147.5 c 128,-1,9
 75 -160 75 -160 56 -160 c 0,10,11
 33 -160 33 -160 25 -147.5 c 128,-1,12
 17 -135 17 -135 17.5 -117 c 128,-1,13
 18 -99 18 -99 24.5 -78.5 c 128,-1,14
 31 -58 31 -58 38 -42 c 0,15,16
 43 -33 43 -33 48 -19 c 0,17,18
 53 -8 53 -8 58.5 9.5 c 128,-1,19
 64 27 64 27 69 50 c 2,20,-1
 127 322 l 2,21,22
 130 337 130 337 143.5 347.5 c 128,-1,23
 157 358 157 358 171 358 c 0,24,25
 187 358 187 358 194.5 348 c 128,-1,26
 202 338 202 338 199 322 c 2,27,-1
 168 176 l 2,28,29
 157 127 157 127 177.5 98 c 128,-1,30
 198 69 198 69 253 69 c 0,31,32
 309 69 309 69 340.5 94.5 c 128,-1,33
 372 120 372 120 384 176 c 2,34,-1
 415 322 l 2,35,36
 418 337 418 337 431 347.5 c 128,-1,37
 444 358 444 358 459 358 c 0,38,39
 473 358 473 358 482 347.5 c 128,-1,40
 491 337 491 337 487 322 c 2,41,-1
 426 33 l 2,42,43
 422 17 422 17 409.5 6.5 c 128,-1,44
 397 -4 397 -4 382 -4 c 0,45,46
 368 -4 368 -4 358.5 5.5 c 128,-1,47
 349 15 349 15 353 30 c 2,48,-1
 355 38 l 1,49,50
 329 18 329 18 299 6.5 c 128,-1,51
 269 -5 269 -5 237 -5 c 0,52,53
 195 -5 195 -5 165 10.5 c 128,-1,54
 135 26 135 26 122 49 c 1,55,-1
 119 31 l 2,0,1
EndSplineSet
EndChar
StartChar: paragraph
Encoding: 182 182 120
Width: 403
Flags: W
Fore
421 457 m 0,0,1
 428 447 428 447 430.5 431.5 c 128,-1,2
 433 416 433 416 430 400 c 2,3,-1
 319 -119 l 2,4,5
 316 -135 316 -135 305.5 -147 c 128,-1,6
 295 -159 295 -159 278 -159 c 0,7,8
 259 -159 259 -159 255.5 -147 c 128,-1,9
 252 -135 252 -135 255 -119 c 2,10,-1
 366 400 l 1,11,-1
 299 400 l 1,12,-1
 189 -115 l 2,13,14
 186 -130 186 -130 176 -141.5 c 128,-1,15
 166 -153 166 -153 150 -153 c 256,16,17
 134 -153 134 -153 129.5 -141 c 128,-1,18
 125 -129 125 -129 128 -115 c 2,19,-1
 192 188 l 1,20,21
 168 188 168 188 147 197.5 c 128,-1,22
 126 207 126 207 112 224.5 c 128,-1,23
 98 242 98 242 93 268 c 128,-1,24
 88 294 88 294 94 327 c 0,25,26
 100 359 100 359 117 386 c 128,-1,27
 134 413 134 413 158 433 c 128,-1,28
 182 453 182 453 211.5 464.5 c 128,-1,29
 241 476 241 476 271 476 c 2,30,-1
 305 476 l 2,31,32
 320 476 320 476 337.5 475.5 c 128,-1,33
 355 475 355 475 371 476 c 0,34,35
 372 476 372 476 378 476 c 128,-1,36
 384 476 384 476 391.5 474 c 128,-1,37
 399 472 399 472 407 468 c 128,-1,38
 415 464 415 464 421 457 c 0,0,1
EndSplineSet
EndChar
StartChar: periodcentered
Encoding: 183 183 121
Width: 230
Flags: W
Fore
230 236 m 0,0,1
 224 209 224 209 201 190.5 c 128,-1,2
 178 172 178 172 151 172 c 0,3,4
 125 172 125 172 109.5 190.5 c 128,-1,5
 94 209 94 209 100 236 c 0,6,7
 105 263 105 263 128.5 282 c 128,-1,8
 152 301 152 301 178 301 c 0,9,10
 205 301 205 301 220 282 c 128,-1,11
 235 263 235 263 230 236 c 0,0,1
EndSplineSet
EndChar
StartChar: cedilla
Encoding: 184 184 122
Width: 216
Flags: W
Fore
170 -89 m 0,0,1
 160 -112 160 -112 141 -127 c 128,-1,2
 122 -142 122 -142 98.5 -148 c 128,-1,3
 75 -154 75 -154 48.5 -151 c 128,-1,4
 22 -148 22 -148 -2 -134 c 1,5,-1
 28 -92 l 1,6,7
 34 -98 34 -98 46 -102 c 128,-1,8
 58 -106 58 -106 70 -106.5 c 128,-1,9
 82 -107 82 -107 91.5 -102 c 128,-1,10
 101 -97 101 -97 103 -85 c 0,11,12
 107 -68 107 -68 90 -63.5 c 128,-1,13
 73 -59 73 -59 47 -57 c 1,14,-1
 100 4 l 1,15,-1
 159 4 l 1,16,-1
 113 -32 l 1,17,18
 148 -27 148 -27 164 -45.5 c 128,-1,19
 180 -64 180 -64 170 -89 c 0,0,1
EndSplineSet
EndChar
StartChar: onesuperior
Encoding: 185 185 123
Width: 241
Flags: W
Fore
257 476 m 1,0,1
 262 471 262 471 263.5 464.5 c 128,-1,2
 265 458 265 458 264 452 c 2,3,-1
 213 214 l 2,4,5
 211 202 211 202 200.5 193 c 128,-1,6
 190 184 190 184 176 184 c 0,7,8
 165 184 165 184 158 193.5 c 128,-1,9
 151 203 151 203 153 214 c 2,10,-1
 195 411 l 1,11,-1
 161 399 l 2,12,13
 150 394 150 394 139 399 c 128,-1,14
 128 404 128 404 126 415 c 256,15,16
 124 426 124 426 131.5 437 c 128,-1,17
 139 448 139 448 153 453 c 2,18,-1
 228 479 l 2,19,20
 246 483 246 483 257 476 c 1,0,1
EndSplineSet
EndChar
StartChar: ordmasculine
Encoding: 186 186 124
Width: 294
Flags: W
Fore
334 308 m 0,0,1
 327 276 327 276 310.5 253 c 128,-1,2
 294 230 294 230 273 215.5 c 128,-1,3
 252 201 252 201 229 194 c 128,-1,4
 206 187 206 187 186 187 c 0,5,6
 134 187 134 187 107 220 c 128,-1,7
 80 253 80 253 91 304 c 0,8,9
 97 332 97 332 112 355 c 128,-1,10
 127 378 127 378 147.5 393.5 c 128,-1,11
 168 409 168 409 191 417.5 c 128,-1,12
 214 426 214 426 237 426 c 0,13,14
 265 426 265 426 286 416.5 c 128,-1,15
 307 407 307 407 319.5 391 c 128,-1,16
 332 375 332 375 335.5 353.5 c 128,-1,17
 339 332 339 332 334 308 c 0,0,1
277 306 m 0,18,19
 279 317 279 317 278 328.5 c 128,-1,20
 277 340 277 340 271.5 350 c 128,-1,21
 266 360 266 360 255 366 c 128,-1,22
 244 372 244 372 227 372 c 0,23,24
 195 372 195 372 174.5 351 c 128,-1,25
 154 330 154 330 149 305 c 0,26,27
 146 288 146 288 149 276 c 128,-1,28
 152 264 152 264 159.5 256.5 c 128,-1,29
 167 249 167 249 177.5 245 c 128,-1,30
 188 241 188 241 199 241 c 0,31,32
 223 241 223 241 246 256.5 c 128,-1,33
 269 272 269 272 277 306 c 0,18,19
EndSplineSet
EndChar
StartChar: guillemotright
Encoding: 187 187 125
Width: 391
Flags: W
Fore
318 182 m 1,0,1
 313 193 313 193 306 210 c 128,-1,2
 292 244 l 0,3,4
 284 263 284 263 275 284 c 0,5,6
 270 296 270 296 276 310 c 128,-1,7
 282 324 282 324 296 332 c 256,8,9
 310 340 310 340 323.5 336.5 c 128,-1,10
 337 333 337 333 342 321 c 2,11,-1
 391 201 l 2,12,13
 394 193 394 193 394.5 186 c 128,-1,14
 395 179 395 179 386 168 c 2,15,16
 378 158.5 l 130,-1,17
 370 149 370 149 358.5 135.5 c 128,-1,18
 347 122 347 122 333.5 106 c 128,-1,19
 320 90 320 90 309 76 c 128,-1,20
 298 62 298 62 290.5 53 c 128,-1,21
 284 45 284 45 283 44 c 0,22,23
 274 30 274 30 258.5 27 c 128,-1,24
 243 24 243 24 232 32 c 0,25,26
 221 38 221 38 222 53.5 c 128,-1,27
 223 69 223 69 232 80 c 0,28,29
 249 101 249 101 266 120 c 0,30,31
 280 137 280 137 294.5 154 c 128,-1,32
 309 171 309 171 318 182 c 1,0,1
158 182 m 1,33,34
 153 193 153 193 146 210 c 128,-1,35
 132 244 l 0,36,37
 124 263 124 263 115 284 c 0,38,39
 110 296 110 296 116 310 c 128,-1,40
 122 324 122 324 136 332 c 256,41,42
 150 340 150 340 163.5 336.5 c 128,-1,43
 177 333 177 333 182 321 c 2,44,-1
 231 201 l 2,45,46
 234 193 234 193 234.5 186 c 128,-1,47
 235 179 235 179 226 168 c 2,48,49
 218 158.5 l 130,-1,50
 210 149 210 149 198.5 135.5 c 128,-1,51
 187 122 187 122 173.5 106 c 128,-1,52
 160 90 160 90 149 76 c 128,-1,53
 138 62 138 62 130.5 53 c 128,-1,54
 124 45 124 45 123 44 c 0,55,56
 114 30 114 30 98.5 27 c 128,-1,57
 83 24 83 24 72 32 c 0,58,59
 61 38 61 38 62 53.5 c 128,-1,60
 63 69 63 69 72 80 c 0,61,62
 89 101 89 101 106 120 c 0,63,64
 120 137 120 137 134.5 154 c 128,-1,65
 149 171 149 171 158 182 c 1,33,34
EndSplineSet
EndChar
StartChar: onequarter
Encoding: 188 188 126
Width: 607
Flags: W
Fore
118 -10 m 1,0,-1
 507 483 l 1,1,-1
 566 483 l 1,2,-1
 177 -10 l 1,3,-1
 118 -10 l 1,0,-1
595 101 m 0,4,5
 601 93 601 93 600 84.5 c 128,-1,6
 599 76 599 76 593 68.5 c 128,-1,7
 587 61 587 61 577 56 c 128,-1,8
 567 51 567 51 555 52 c 1,9,-1
 550 30 l 2,10,11
 548 19 548 19 537.5 10 c 128,-1,12
 527 1 527 1 516 1 c 0,13,14
 504 1 504 1 498 10 c 128,-1,15
 492 19 492 19 494 30 c 2,16,-1
 499 52 l 1,17,-1
 362 52 l 2,18,19
 353 51 353 51 347.5 55.5 c 128,-1,20
 342 60 342 60 340 67.5 c 128,-1,21
 338 75 338 75 340.5 84 c 128,-1,22
 343 93 343 93 350 99 c 2,23,-1
 550 286 l 2,24,25
 552 288 552 288 560.5 293.5 c 128,-1,26
 569 299 569 299 580 298 c 0,27,28
 591 296 591 296 597 287.5 c 128,-1,29
 603 279 603 279 600 268 c 2,30,-1
 567 109 l 1,31,32
 579 109 579 109 585 107.5 c 128,-1,33
 591 106 591 106 595 101 c 0,4,5
428 108 m 1,34,-1
 508 108 l 1,35,-1
 528 202 l 1,36,-1
 428 108 l 1,34,-1
257 476 m 1,37,38
 262 471 262 471 263.5 464.5 c 128,-1,39
 265 458 265 458 264 452 c 2,40,-1
 213 214 l 2,41,42
 211 202 211 202 200.5 193 c 128,-1,43
 190 184 190 184 176 184 c 0,44,45
 165 184 165 184 158 193.5 c 128,-1,46
 151 203 151 203 153 214 c 2,47,-1
 195 411 l 1,48,-1
 161 399 l 2,49,50
 150 394 150 394 139 399 c 128,-1,51
 128 404 128 404 126 415 c 256,52,53
 124 426 124 426 131.5 437 c 128,-1,54
 139 448 139 448 153 453 c 2,55,-1
 228 479 l 2,56,57
 246 483 246 483 257 476 c 1,37,38
EndSplineSet
Ligature: 0 0 'frac' one fraction four
Ligature: 0 0 'frac' one slash four
EndChar
StartChar: onehalf
Encoding: 189 189 127
Width: 594
Flags: W
Fore
87 -7 m 1,0,-1
 476 486 l 1,1,-1
 536 486 l 1,2,-1
 146 -7 l 1,3,-1
 87 -7 l 1,0,-1
245 472 m 0,4,5
 250 467 250 467 250.5 460.5 c 128,-1,6
 251 454 251 454 250 448 c 2,7,-1
 199 210 l 2,8,9
 197 198 197 198 187 189 c 128,-1,10
 177 180 177 180 166 180 c 256,11,12
 155 180 155 180 147.5 189.5 c 128,-1,13
 140 199 140 199 142 210 c 2,14,-1
 184 407 l 1,15,-1
 148 395 l 2,16,17
 137 390 137 390 127.5 395 c 128,-1,18
 118 400 118 400 116 411 c 256,19,20
 114 422 114 422 121.5 433 c 128,-1,21
 129 444 129 444 140 449 c 2,22,-1
 218 475 l 2,23,24
 237 479 237 479 245 472 c 0,4,5
565 49 m 0,25,26
 570 43 570 43 569.5 34.5 c 128,-1,27
 569 26 569 26 564.5 18.5 c 128,-1,28
 560 11 560 11 552.5 5.5 c 128,-1,29
 545 0 545 0 536 0 c 2,30,-1
 363 0 l 2,31,32
 352 0 352 0 346 6 c 128,-1,33
 340 12 340 12 339 20.5 c 128,-1,34
 338 29 338 29 341.5 38.5 c 128,-1,35
 345 48 345 48 354 54 c 2,36,-1
 375 68 l 2,37,38
 391 79 391 79 423.5 101.5 c 128,-1,39
 456 124 456 124 518 167 c 0,40,41
 535 177 535 177 540 189.5 c 128,-1,42
 545 202 545 202 541.5 212.5 c 128,-1,43
 538 223 538 223 527.5 230.5 c 128,-1,44
 517 238 517 238 503 238 c 0,45,46
 474 238 474 238 456 223 c 128,-1,47
 438 208 438 208 432 188 c 0,48,49
 429 177 429 177 418.5 169 c 128,-1,50
 408 161 408 161 396 162 c 0,51,52
 385 164 385 164 379.5 172.5 c 128,-1,53
 374 181 374 181 378 193 c 0,54,55
 392 241 392 241 427.5 268 c 128,-1,56
 463 295 463 295 515 295 c 0,57,58
 550 295 550 295 571.5 277.5 c 128,-1,59
 593 260 593 260 598.5 233.5 c 128,-1,60
 604 207 604 207 592.5 177 c 128,-1,61
 581 147 581 147 549 123 c 0,62,63
 513 99 l 0,64,65
 498 88 498 88 481.5 76.5 c 128,-1,66
 465 65 465 65 452 57 c 1,67,-1
 548 57 l 2,68,69
 560 57 560 57 565 49 c 0,25,26
EndSplineSet
Ligature: 0 0 'frac' one fraction two
Ligature: 0 0 'frac' one slash two
EndChar
StartChar: threequarters
Encoding: 190 190 128
Width: 611
Flags: W
Fore
204 -9 m 1,0,-1
 594 484 l 1,1,-1
 534 484 l 1,2,-1
 145 -9 l 1,3,-1
 204 -9 l 1,0,-1
595 101 m 0,4,5
 601 94 601 94 599 80 c 0,6,7
 596 69 596 69 585 60.5 c 128,-1,8
 574 52 574 52 555 52 c 1,9,-1
 550 30 l 2,10,11
 548 19 548 19 537.5 10 c 128,-1,12
 527 1 527 1 516 1 c 0,13,14
 504 1 504 1 498 10 c 128,-1,15
 492 19 492 19 494 30 c 2,16,-1
 499 52 l 1,17,-1
 362 52 l 2,18,19
 353 51 353 51 347.5 55.5 c 128,-1,20
 342 60 342 60 340 67.5 c 128,-1,21
 338 75 338 75 340.5 84 c 128,-1,22
 343 93 343 93 350 99 c 2,23,-1
 550 286 l 2,24,25
 552 288 552 288 560.5 293.5 c 128,-1,26
 569 299 569 299 580 298 c 0,27,28
 591 296 591 296 597 287.5 c 128,-1,29
 603 279 603 279 600 268 c 2,30,-1
 567 109 l 1,31,32
 579 109 579 109 585 107.5 c 128,-1,33
 591 106 591 106 595 101 c 0,4,5
428 108 m 1,34,-1
 508 108 l 1,35,-1
 528 202 l 1,36,-1
 428 108 l 1,34,-1
274 343 m 1,37,38
 289 338 289 338 297.5 321 c 128,-1,39
 306 304 306 304 301 278 c 0,40,41
 291 235 291 235 255 210.5 c 128,-1,42
 219 186 219 186 179 186 c 0,43,44
 158 186 158 186 139.5 190.5 c 128,-1,45
 121 195 121 195 108.5 206 c 128,-1,46
 96 217 96 217 90.5 235 c 128,-1,47
 85 253 85 253 91 279 c 0,48,49
 93 292 93 292 103 300 c 128,-1,50
 113 308 113 308 126 308 c 0,51,52
 140 308 140 308 146.5 300 c 128,-1,53
 153 292 153 292 151 279 c 0,54,55
 146 259 146 259 157.5 248.5 c 128,-1,56
 169 238 169 238 191 238 c 0,57,58
 208 238 208 238 224.5 246 c 128,-1,59
 241 254 241 254 249 275 c 0,60,61
 254 286 254 286 249.5 299.5 c 128,-1,62
 245 313 245 313 227 313 c 2,63,-1
 185 313 l 2,64,65
 173 313 173 313 167 322 c 128,-1,66
 161 331 161 331 163 342 c 0,67,68
 165 352 165 352 176 359.5 c 128,-1,69
 187 367 187 367 197 367 c 2,70,-1
 237 367 l 2,71,72
 242 367 242 367 251.5 378 c 128,-1,73
 261 389 261 389 263 404 c 0,74,75
 265 413 265 413 256 423 c 128,-1,76
 247 433 247 433 231 433 c 0,77,78
 203 433 203 433 192.5 423.5 c 128,-1,79
 182 414 182 414 180 406 c 0,80,81
 169 377 169 377 143 377 c 0,82,83
 130 377 130 377 123.5 385 c 128,-1,84
 117 393 117 393 120 406 c 0,85,86
 123 422 123 422 134.5 436.5 c 128,-1,87
 146 451 146 451 162.5 462 c 128,-1,88
 179 473 179 473 200 479 c 128,-1,89
 221 485 221 485 243 485 c 0,90,91
 284 485 284 485 303 463 c 128,-1,92
 322 441 322 441 320 414 c 0,93,94
 320 405 320 405 316.5 394.5 c 128,-1,95
 313 384 313 384 307 374 c 128,-1,96
 301 364 301 364 292.5 355.5 c 128,-1,97
 284 347 284 347 274 343 c 1,37,38
EndSplineSet
Ligature: 0 0 'frac' three fraction four
Ligature: 0 0 'frac' three slash four
EndChar
StartChar: questiondown
Encoding: 191 191 129
Width: 464
Flags: W
Fore
49 3 m 256,0,1
 56 35 56 35 71.5 59.5 c 128,-1,2
 87 84 87 84 109 101 c 128,-1,3
 131 118 131 118 157.5 129 c 128,-1,4
 184 140 184 140 213 146 c 0,5,6
 224 148 224 148 234.5 150.5 c 128,-1,7
 245 153 245 153 254 159 c 0,8,9
 265 165 265 165 272 172.5 c 128,-1,10
 279 180 279 180 282 197 c 0,11,12
 287 222 287 222 300.5 229.5 c 128,-1,13
 314 237 314 237 328 237 c 0,14,15
 349 237 349 237 354 224.5 c 128,-1,16
 359 212 359 212 356 193 c 0,17,18
 353 178 353 178 348 165 c 128,-1,19
 343 152 343 152 334 141 c 128,-1,20
 325 130 325 130 311 119.5 c 128,-1,21
 297 109 297 109 276 97 c 0,22,23
 262 89 262 89 246.5 84.5 c 128,-1,24
 231 80 231 80 216 77 c 0,25,26
 199 73 199 73 184 68 c 128,-1,27
 169 63 169 63 157 55 c 128,-1,28
 145 47 145 47 136 34.5 c 128,-1,29
 127 22 127 22 123 3 c 0,30,31
 118 -20 118 -20 123.5 -36 c 128,-1,32
 129 -52 129 -52 141 -61.5 c 128,-1,33
 153 -71 153 -71 170 -75.5 c 128,-1,34
 187 -80 187 -80 206 -80 c 0,35,36
 238 -80 238 -80 271 -65.5 c 128,-1,37
 304 -51 304 -51 333 -26 c 0,38,39
 347 -15 347 -15 362.5 -14.5 c 128,-1,40
 378 -14 378 -14 387 -25 c 256,41,42
 396 -36 396 -36 393 -51.5 c 128,-1,43
 390 -67 390 -67 377 -78 c 0,44,45
 335 -114 335 -114 288.5 -133.5 c 128,-1,46
 242 -153 242 -153 193 -153 c 0,47,48
 148 -153 148 -153 117.5 -140.5 c 128,-1,49
 87 -128 87 -128 69.5 -107 c 128,-1,50
 52 -86 52 -86 47 -57.5 c 128,-1,51
 42 -29 42 -29 49 3 c 256,0,1
294 319 m 0,52,53
 299 339 299 339 317 353.5 c 128,-1,54
 335 368 335 368 356 368 c 256,55,56
 377 368 377 368 389 353.5 c 128,-1,57
 401 339 401 339 396 319 c 0,58,59
 392 299 392 299 374 284.5 c 128,-1,60
 356 270 356 270 335 270 c 256,61,62
 314 270 314 270 302 284.5 c 128,-1,63
 290 299 290 299 294 319 c 0,52,53
EndSplineSet
EndChar
StartChar: Aring
Encoding: 197 197 134
Width: 500
Flags: W
Fore
311 589 m 0,0,1
 316 616 316 616 339.5 635 c 128,-1,2
 363 654 363 654 390 654 c 256,3,4
 417 654 417 654 431.5 635 c 128,-1,5
 446 616 446 616 441 589 c 0,6,7
 435 562 435 562 412 543 c 128,-1,8
 389 524 389 524 362 524 c 256,9,10
 335 524 335 524 320 543 c 128,-1,11
 305 562 305 562 311 589 c 0,0,1
347 589 m 0,12,13
 344 577 344 577 351 568.5 c 128,-1,14
 358 560 358 560 370 560 c 256,15,16
 382 560 382 560 391.5 568.5 c 128,-1,17
 401 577 401 577 404 589 c 0,18,19
 406 601 406 601 400 609 c 128,-1,20
 394 617 394 617 382 617 c 256,21,22
 370 617 370 617 359.5 609 c 128,-1,23
 349 601 349 601 347 589 c 0,12,13
466 45 m 2,24,25
 461 20 461 20 448 10 c 128,-1,26
 435 0 435 0 421 0 c 0,27,28
 416 0 416 0 410 1.5 c 128,-1,29
 404 3 404 3 399 8 c 128,-1,30
 394 13 394 13 391.5 21.5 c 128,-1,31
 389 30 389 30 392 45 c 2,32,-1
 426 205 l 1,33,-1
 158 205 l 1,34,-1
 124 45 l 2,35,36
 119 20 119 20 105.5 10 c 128,-1,37
 92 0 92 0 78 0 c 0,38,39
 73 0 73 0 67 1.5 c 128,-1,40
 61 3 61 3 56 8 c 128,-1,41
 51 13 51 13 49 21.5 c 128,-1,42
 47 30 47 30 50 45 c 0,43,44
 59 89 59 89 69 134 c 0,45,46
 77 172 77 172 86 215.5 c 128,-1,47
 95 259 95 259 103 294 c 0,48,49
 111 333 111 333 129.5 368 c 128,-1,50
 148 403 148 403 178.5 430 c 128,-1,51
 209 457 209 457 252 473 c 128,-1,52
 295 489 295 489 353 489 c 0,53,54
 410 489 410 489 446 473.5 c 128,-1,55
 482 458 482 458 501 431.5 c 128,-1,56
 520 405 520 405 524 370 c 128,-1,57
 528 335 528 335 520 297 c 2,58,-1
 466 45 l 2,24,25
447 300 m 2,59,60
 452 322 452 322 450.5 343 c 128,-1,61
 449 364 449 364 437.5 381 c 128,-1,62
 426 398 426 398 402.5 408.5 c 128,-1,63
 379 419 379 419 339 419 c 0,64,65
 298 419 298 419 269.5 408.5 c 128,-1,66
 241 398 241 398 222 381 c 128,-1,67
 203 364 203 364 193 343 c 128,-1,68
 183 322 183 322 178 300 c 0,69,70
 177 295 177 295 176 291 c 0,71,72
 174 281 174 281 174 279 c 1,73,-1
 443 279 l 1,74,75
 443 281 443 281 445 289.5 c 128,-1,76
 447 298 447 298 447 300 c 2,59,60
EndSplineSet
EndChar
StartChar: AE
Encoding: 198 198 135
Width: 836
Flags: W
Fore
447 300 m 2,0,1
 452 322 452 322 450.5 343 c 128,-1,2
 449 364 449 364 437.5 381 c 128,-1,3
 426 398 426 398 402.5 408.5 c 128,-1,4
 379 419 379 419 339 419 c 0,5,6
 298 419 298 419 269.5 408.5 c 128,-1,7
 241 398 241 398 222 381 c 128,-1,8
 203 364 203 364 193 343 c 128,-1,9
 183 322 183 322 178 300 c 0,10,11
 177 295 177 295 176 291 c 0,12,13
 174 281 174 281 174 279 c 1,14,-1
 443 279 l 1,15,16
 443 281 443 281 445 289.5 c 128,-1,17
 447 298 447 298 447 300 c 2,0,1
466 45 m 2,18,19
 461 20 461 20 448 10 c 128,-1,20
 435 0 435 0 421 0 c 0,21,22
 416 0 416 0 410 1.5 c 128,-1,23
 404 3 404 3 399 8 c 128,-1,24
 394 13 394 13 391.5 21.5 c 128,-1,25
 389 30 389 30 392 45 c 2,26,-1
 426 205 l 1,27,-1
 158 205 l 1,28,-1
 124 45 l 2,29,30
 119 20 119 20 105.5 10 c 128,-1,31
 92 0 92 0 78 0 c 0,32,33
 73 0 73 0 67 1.5 c 128,-1,34
 61 3 61 3 56 8 c 128,-1,35
 51 13 51 13 49 21.5 c 128,-1,36
 47 30 47 30 50 45 c 2,37,-1
 103 294 l 2,38,39
 111 333 111 333 129.5 368 c 128,-1,40
 148 403 148 403 178.5 430 c 128,-1,41
 209 457 209 457 252 473 c 128,-1,42
 295 489 295 489 353 489 c 0,43,44
 417 489 417 489 455 469.5 c 128,-1,45
 493 450 493 450 510 418 c 1,46,47
 548 456 548 456 601 473.5 c 128,-1,48
 654 491 654 491 705 491 c 0,49,50
 769 491 769 491 818 469 c 128,-1,51
 867 447 867 447 882 407 c 0,52,53
 887 393 887 393 882 379 c 128,-1,54
 877 365 877 365 861 357 c 0,55,56
 846 349 846 349 832.5 353.5 c 128,-1,57
 819 358 819 358 811 370 c 0,58,59
 800 390 800 390 770 403 c 128,-1,60
 740 416 740 416 689 416 c 0,61,62
 667 416 667 416 640.5 410.5 c 128,-1,63
 614 405 614 405 590 393 c 128,-1,64
 566 381 566 381 547.5 361 c 128,-1,65
 529 341 529 341 523 312 c 2,66,-1
 516 280 l 1,67,-1
 695 279 l 2,68,69
 714 279 714 279 725.5 271 c 128,-1,70
 737 263 737 263 732 243 c 0,71,72
 729 229 729 229 716.5 217 c 128,-1,73
 704 205 704 205 679 205 c 2,74,-1
 500 205 l 1,75,-1
 496 185 l 2,76,77
 491 156 491 156 501 134 c 128,-1,78
 511 112 511 112 529 98 c 128,-1,79
 547 84 547 84 570 77 c 128,-1,80
 593 70 593 70 615 70 c 0,81,82
 666 70 666 70 702 83 c 128,-1,83
 738 96 738 96 757 116 c 0,84,85
 770 128 770 128 785.5 132.5 c 128,-1,86
 801 137 801 137 813 129 c 256,87,88
 825 121 825 121 824 107 c 128,-1,89
 823 93 823 93 812 79 c 0,90,91
 780 39 780 39 722 18.5 c 128,-1,92
 664 -2 664 -2 600 -2 c 0,93,94
 580 -2 580 -2 558.5 3.5 c 128,-1,95
 537 9 537 9 518.5 18 c 128,-1,96
 500 27 500 27 487 39.5 c 128,-1,97
 474 52 474 52 471 66 c 1,98,-1
 466 45 l 2,18,19
EndSplineSet
EndChar
StartChar: Eth
Encoding: 208 208 145
Width: 522
Flags: W
Fore
501 417 m 0,0,1
 526 386 526 386 535 340.5 c 128,-1,2
 544 295 544 295 535 246 c 128,-1,3
 526 197 526 197 499.5 150.5 c 128,-1,4
 473 104 473 104 428 71 c 0,5,6
 393 43 393 43 355.5 28.5 c 128,-1,7
 318 14 318 14 287.5 7.5 c 128,-1,8
 257 1 257 1 236.5 0.5 c 128,-1,9
 216 0 216 0 215 0 c 2,10,-1
 155 0 l 2,11,12
 116 1 116 1 93 28 c 0,13,14
 72 54 72 54 81 96 c 0,15,16
 85 114 85 114 89 135 c 0,17,18
 93 153 93 153 98 176 c 128,-1,19
 103 199 103 199 108 225 c 1,20,-1
 47 225 l 1,21,-1
 60 286 l 1,22,-1
 121 286 l 1,23,24
 125 303 125 303 129 321 c 0,25,26
 132 337 132 337 136 355.5 c 128,-1,27
 140 374 140 374 144 393 c 0,28,29
 153 434 153 434 186 462 c 0,30,31
 219 489 219 489 259 489 c 2,32,-1
 317 489 l 2,33,34
 319 489 319 489 339 488.5 c 128,-1,35
 359 488 359 488 387.5 481.5 c 128,-1,36
 416 475 416 475 447 460 c 128,-1,37
 478 445 478 445 501 417 c 0,0,1
387 125 m 0,38,39
 417 149 417 149 436 181.5 c 128,-1,40
 455 214 455 214 461.5 247 c 128,-1,41
 468 280 468 280 462 311 c 128,-1,42
 456 342 456 342 438 365 c 0,43,44
 422 384 422 384 399 394 c 128,-1,45
 376 404 376 404 355 409 c 0,46,47
 329 414 329 414 303 414 c 2,48,-1
 243 414 l 2,49,50
 222 414 222 414 218 394 c 0,51,52
 215 380 215 380 211 362 c 0,53,54
 208 347 208 347 204 327.5 c 128,-1,55
 200 308 200 308 195 286 c 1,56,-1
 304 286 l 1,57,-1
 291 225 l 1,58,-1
 182 225 l 1,59,60
 177 205 177 205 173 183 c 0,61,62
 169 164 169 164 164 140.5 c 128,-1,63
 159 117 159 117 154 94 c 0,64,65
 150 74 150 74 171 74 c 2,66,-1
 231 74 l 1,67,68
 246.5 74.5 l 130,-1,69
 262 75 262 75 285.5 79.5 c 128,-1,70
 309 84 309 84 336 94.5 c 128,-1,71
 363 105 363 105 387 125 c 0,38,39
EndSplineSet
EndChar
StartChar: multiply
Encoding: 215 215 152
Width: 460
Flags: W
Fore
398 51 m 0,0,1
 395 36 395 36 382 26 c 0,2,3
 365 12 365 12 350 15 c 128,-1,4
 335 18 335 18 325 31 c 2,5,-1
 254 120 l 1,6,-1
 145 31 l 2,7,8
 129 18 129 18 113 15 c 128,-1,9
 97 12 97 12 86 26 c 256,10,11
 75 40 75 40 81 55 c 128,-1,12
 87 70 87 70 104 83 c 2,13,-1
 213 173 l 1,14,-1
 143 262 l 2,15,16
 129 279 129 279 134 294.5 c 128,-1,17
 139 310 139 310 151 320 c 0,18,19
 167 334 167 334 181.5 331 c 128,-1,20
 196 328 196 328 206 314 c 2,21,-1
 276 225 l 1,22,-1
 386 316 l 2,23,24
 402 330 402 330 417.5 333 c 128,-1,25
 433 336 433 336 444 322 c 0,26,27
 452 312 452 312 450 296.5 c 128,-1,28
 448 281 448 281 427 264 c 2,29,-1
 317 173 l 1,30,-1
 388 83 l 2,31,32
 402 67 402 67 398 51 c 0,0,1
EndSplineSet
EndChar
StartChar: Oslash
Encoding: 216 216 153
Width: 542
Flags: W
Fore
525 418 m 2,0,1
 555 383 555 383 563 336.5 c 128,-1,2
 571 290 571 290 560.5 241 c 128,-1,3
 550 192 550 192 521.5 145.5 c 128,-1,4
 493 99 493 99 450 65 c 0,5,6
 419 38 419 38 382 21 c 128,-1,7
 345 4 345 4 308 -2 c 128,-1,8
 271 -8 271 -8 235.5 -3 c 128,-1,9
 200 2 200 2 172 19 c 1,10,-1
 121 -39 l 2,11,12
 112 -49 112 -49 100.5 -51.5 c 128,-1,13
 89 -54 89 -54 80 -48 c 0,14,15
 72 -42 72 -42 72.5 -31 c 128,-1,16
 73 -20 73 -20 81 -10 c 2,17,-1
 128 50 l 1,18,19
 94 85 94 85 82.5 132 c 128,-1,20
 71 179 71 179 79.5 229.5 c 128,-1,21
 88 280 88 280 116 329 c 128,-1,22
 144 378 144 378 190 418 c 0,23,24
 223 445 223 445 260.5 462 c 128,-1,25
 298 479 298 479 336 485 c 128,-1,26
 374 491 374 491 410.5 485.5 c 128,-1,27
 447 480 447 480 477 463 c 1,28,-1
 524 519 l 2,29,30
 532 530 532 530 544 533 c 128,-1,31
 556 536 556 536 566 530 c 1,32,33
 575 522 575 522 575 510.5 c 128,-1,34
 575 499 575 499 567 489 c 2,35,-1
 516 432 l 1,36,37
 518 429 518 429 520.5 425.5 c 128,-1,38
 523 422 523 422 525 418 c 2,0,1
182 119 m 1,39,40
 182 117 182 117 183 116.5 c 128,-1,41
 184 116 184 116 185 114 c 1,42,-1
 420 397 l 1,43,44
 400 408 400 408 376 411 c 128,-1,45
 352 414 352 414 327 409.5 c 128,-1,46
 302 405 302 405 278 393.5 c 128,-1,47
 254 382 254 382 234 365 c 0,48,49
 203 341 203 341 183 308.5 c 128,-1,50
 163 276 163 276 156 241.5 c 128,-1,51
 149 207 149 207 155 174.5 c 128,-1,52
 161 142 161 142 182 119 c 1,39,40
410 119 m 0,53,54
 440 142 440 142 459 174.5 c 128,-1,55
 478 207 478 207 485.5 241.5 c 128,-1,56
 493 276 493 276 487.5 308.5 c 128,-1,57
 482 341 482 341 462 365 c 1,58,-1
 224 82 l 1,59,60
 266 66 266 66 316 73.5 c 128,-1,61
 366 81 366 81 410 119 c 0,53,54
EndSplineSet
EndChar
StartChar: Thorn
Encoding: 222 222 159
Width: 474
Flags: W
Fore
357 420 m 2,0,1
 374 420 374 420 401.5 415.5 c 128,-1,2
 429 411 429 411 453 394 c 128,-1,3
 477 377 477 377 490 344 c 128,-1,4
 503 311 503 311 491 254 c 0,5,6
 482 212 482 212 460.5 181.5 c 128,-1,7
 439 151 439 151 412 131.5 c 128,-1,8
 385 112 385 112 355 103 c 128,-1,9
 325 94 325 94 298 94 c 2,10,-1
 153 94 l 1,11,-1
 137 14 l 2,12,13
 134 -2 134 -2 120 -9.5 c 128,-1,14
 106 -17 106 -17 95 -17 c 256,15,16
 84 -17 84 -17 72 -9.5 c 128,-1,17
 60 -2 60 -2 63 14 c 2,18,-1
 160 469 l 2,19,20
 164 485 164 485 179 492.5 c 128,-1,21
 194 500 194 500 205 500 c 256,22,23
 216 500 216 500 227 492.5 c 128,-1,24
 238 485 238 485 234 469 c 2,25,-1
 224 420 l 1,26,-1
 357 420 l 2,0,1
310 152 m 2,27,28
 345 152 345 152 376.5 177 c 128,-1,29
 408 202 408 202 418 249 c 0,30,31
 429 302 429 302 409.5 326.5 c 128,-1,32
 390 351 390 351 352 351 c 2,33,-1
 209 351 l 1,34,-1
 167 152 l 1,35,-1
 310 152 l 2,27,28
EndSplineSet
EndChar
StartChar: uni00DF
Encoding: 223 223 160
Width: 456
Flags: W
Fore
213 69 m 2,0,-1
 233 69 l 2,1,2
 284 71 284 71 319.5 99.5 c 128,-1,3
 355 128 355 128 364 177 c 0,4,5
 368 199 368 199 363 218 c 128,-1,6
 358 237 358 237 346 251 c 128,-1,7
 334 265 334 265 316.5 273.5 c 128,-1,8
 299 282 299 282 278 282 c 2,9,-1
 234 282 l 1,10,-1
 248 345 l 1,11,-1
 298 345 l 2,12,13
 326 345 326 345 342 358.5 c 128,-1,14
 358 372 358 372 363 390 c 0,15,16
 368 411 368 411 358 424.5 c 128,-1,17
 348 438 348 438 330 443 c 128,-1,18
 312 448 312 448 289.5 444.5 c 128,-1,19
 267 441 267 441 249 429 c 0,20,21
 235 419 235 419 221.5 402 c 128,-1,22
 208 385 208 385 202 356 c 2,23,-1
 168 194 l 2,24,25
 161 163 161 163 155 134.5 c 128,-1,26
 149 106 149 106 144 83 c 0,27,28
 138 57 138 57 133 32 c 0,29,30
 130 17 130 17 118.5 8 c 128,-1,31
 107 -1 107 -1 93 -1 c 256,32,33
 79 -1 79 -1 72 8.5 c 128,-1,34
 65 18 65 18 68 32 c 1,35,36
 62 4 62 4 67 26 c 0,37,38
 69 35 69 35 73.5 56.5 c 128,-1,39
 78 78 78 78 86.5 117 c 128,-1,40
 95 156 95 156 107.5 215.5 c 128,-1,41
 120 275 120 275 138 361 c 0,42,43
 152 427 152 427 199.5 463.5 c 128,-1,44
 247 500 247 500 311 500 c 0,45,46
 367 500 367 500 396.5 477.5 c 128,-1,47
 426 455 426 455 432.5 424 c 128,-1,48
 439 393 439 393 424 362 c 128,-1,49
 409 331 409 331 376 314 c 1,50,51
 396 305 396 305 409 289.5 c 128,-1,52
 422 274 422 274 428.5 255 c 128,-1,53
 435 236 435 236 435.5 215 c 128,-1,54
 436 194 436 194 432 174 c 0,55,56
 425 139 425 139 406.5 108 c 128,-1,57
 388 77 388 77 361 54 c 128,-1,58
 334 31 334 31 300 17 c 128,-1,59
 266 3 266 3 227 2 c 2,60,-1
 207 2 l 2,61,62
 190 1 190 1 177.5 9 c 128,-1,63
 165 17 165 17 169 35 c 0,64,65
 172 49 172 49 185.5 58.5 c 128,-1,66
 199 68 199 68 213 69 c 2,0,-1
EndSplineSet
EndChar
StartChar: ae
Encoding: 230 230 167
Width: 738
Flags: W
Fore
730 316 m 0,0,1
 745 295 745 295 749.5 275 c 128,-1,2
 754 255 754 255 753 237 c 128,-1,3
 752 219 752 219 747 205.5 c 128,-1,4
 742 192 742 192 738 185 c 0,5,6
 724 163 724 163 704.5 156.5 c 128,-1,7
 685 150 685 150 663 150 c 2,8,-1
 438 150 l 1,9,10
 435 127 435 127 442 110 c 128,-1,11
 449 93 449 93 462.5 81.5 c 128,-1,12
 476 70 476 70 495.5 64 c 128,-1,13
 515 58 515 58 537 58 c 0,14,15
 572 58 572 58 596.5 67 c 128,-1,16
 621 76 621 76 637 90 c 0,17,18
 656 106 656 106 669 108 c 128,-1,19
 682 110 682 110 692 102 c 0,20,21
 702 92 702 92 698 73.5 c 128,-1,22
 694 55 694 55 681 44 c 0,23,24
 648 20 648 20 611.5 5.5 c 128,-1,25
 575 -9 575 -9 523 -9 c 0,26,27
 475 -9 475 -9 438 8 c 128,-1,28
 401 25 401 25 382 58 c 1,29,30
 362 38 362 38 339 25 c 128,-1,31
 316 12 316 12 292.5 4.5 c 128,-1,32
 269 -3 269 -3 246 -5.5 c 128,-1,33
 223 -8 223 -8 203 -8 c 0,34,35
 123 -8 123 -8 82.5 25 c 128,-1,36
 42 58 42 58 56 120 c 0,37,38
 62 148 62 148 80 171.5 c 128,-1,39
 98 195 98 195 126 212 c 128,-1,40
 154 229 154 229 189.5 239 c 128,-1,41
 225 249 225 249 266 249 c 0,42,43
 305 249 305 249 333.5 235 c 128,-1,44
 362 221 362 221 377 208 c 1,45,-1
 377 210 l 2,46,47
 382 259 382 259 355.5 279.5 c 128,-1,48
 329 300 329 300 269 300 c 0,49,50
 239 300 239 300 211.5 292 c 128,-1,51
 184 284 184 284 161 272 c 0,52,53
 137 260 137 260 127 264.5 c 128,-1,54
 117 269 117 269 115 272 c 0,55,56
 105 287 105 287 113.5 302.5 c 128,-1,57
 122 318 122 318 139 329 c 0,58,59
 205 365 205 365 282 365 c 0,60,61
 341 365 341 365 378 348.5 c 128,-1,62
 415 332 415 332 435 296 c 1,63,64
 469 330 469 330 512 347.5 c 128,-1,65
 555 365 555 365 602 365 c 0,66,67
 656 365 656 365 685 349 c 128,-1,68
 714 333 714 333 730 316 c 0,0,1
219 54 m 0,69,70
 270 54 270 54 307.5 71.5 c 128,-1,71
 345 89 345 89 351 118 c 0,72,73
 355 138 355 138 348 151 c 128,-1,74
 341 164 341 164 326 172 c 128,-1,75
 311 180 311 180 291 183 c 128,-1,76
 271 186 271 186 250 186 c 0,77,78
 232 186 232 186 212 182 c 128,-1,79
 192 178 192 178 175 170 c 128,-1,80
 158 162 158 162 145.5 150.5 c 128,-1,81
 133 139 133 139 129 124 c 0,82,83
 124 88 124 88 149.5 71 c 128,-1,84
 175 54 175 54 219 54 c 0,69,70
681 219 m 1,85,86
 681 235 681 235 676 249.5 c 128,-1,87
 671 264 671 264 660.5 275.5 c 128,-1,88
 650 287 650 287 633 293.5 c 128,-1,89
 616 300 616 300 590 300 c 0,90,91
 561 300 561 300 538 291.5 c 128,-1,92
 515 283 515 283 498 270.5 c 128,-1,93
 481 258 481 258 471 244 c 128,-1,94
 461 230 461 230 458 219 c 1,95,-1
 681 219 l 1,85,86
EndSplineSet
EndChar
StartChar: eth
Encoding: 240 240 177
Width: 473
Flags: W
Fore
458 440 m 1,0,1
 475 407 475 407 480 356 c 128,-1,2
 485 305 485 305 471 244 c 2,3,-1
 427 37 l 2,4,5
 424 21 424 21 410 10 c 128,-1,6
 396 -1 396 -1 381 -1 c 256,7,8
 366 -1 366 -1 357.5 10 c 128,-1,9
 349 21 349 21 353 37 c 1,10,-1
 354 38 l 1,11,12
 326 19 326 19 293 10 c 128,-1,13
 260 1 260 1 225 1 c 0,14,15
 177 1 177 1 144 16.5 c 128,-1,16
 111 32 111 32 92 57.5 c 128,-1,17
 73 83 73 83 68 116.5 c 128,-1,18
 63 150 63 150 71 186 c 0,19,20
 78 222 78 222 99 255 c 128,-1,21
 120 288 120 288 150.5 313.5 c 128,-1,22
 181 339 181 339 220 354 c 128,-1,23
 259 369 259 369 303 369 c 0,24,25
 348 369 348 369 375 358.5 c 128,-1,26
 402 348 402 348 416 332 c 1,27,28
 416 357 416 357 408 379.5 c 128,-1,29
 400 402 400 402 391 416 c 1,30,-1
 337 396 l 1,31,-1
 315 429 l 1,32,-1
 364 450 l 1,33,34
 355 457 355 457 343.5 467 c 128,-1,35
 332 477 332 477 323 481 c 256,36,37
 314 485 314 485 310.5 491.5 c 128,-1,38
 307 498 307 498 307.5 504.5 c 128,-1,39
 308 511 308 511 311.5 517 c 128,-1,40
 315 523 315 523 320 527 c 0,41,42
 335 540 335 540 348 537 c 128,-1,43
 361 534 361 534 368 532 c 1,44,45
 386 523 386 523 404.5 507 c 128,-1,46
 423 491 423 491 435 477 c 1,47,-1
 488 498 l 1,48,-1
 513 461 l 1,49,-1
 458 440 l 1,0,1
383 188 m 1,50,51
 395 243 395 243 366.5 269.5 c 128,-1,52
 338 296 338 296 287 296 c 0,53,54
 260 296 260 296 235.5 287 c 128,-1,55
 211 278 211 278 192.5 263 c 128,-1,56
 174 248 174 248 161 228 c 128,-1,57
 148 208 148 208 143 186 c 256,58,59
 138 164 138 164 142.5 144 c 128,-1,60
 147 124 147 124 159.5 109 c 128,-1,61
 172 94 172 94 192.5 85 c 128,-1,62
 213 76 213 76 241 76 c 0,63,64
 292 76 292 76 331 102.5 c 128,-1,65
 370 129 370 129 383 187 c 1,66,-1
 383 188 l 1,50,51
EndSplineSet
EndChar
StartChar: divide
Encoding: 247 247 184
Width: 501
Flags: W
Fore
96 132 m 2,0,-1
 458 132 l 2,1,2
 475 132 475 132 488 144 c 128,-1,3
 501 156 501 156 505 173 c 256,4,5
 509 190 509 190 501 202 c 128,-1,6
 493 214 493 214 475 214 c 2,7,-1
 113 214 l 2,8,9
 96 214 96 214 82 202 c 128,-1,10
 68 190 68 190 64 173 c 0,11,12
 61 156 61 156 70.5 144 c 128,-1,13
 80 132 80 132 96 132 c 2,0,-1
297 250 m 256,14,15
 278 250 278 250 265.5 264 c 128,-1,16
 253 278 253 278 258 297 c 0,17,18
 262 317 262 317 280 331 c 128,-1,19
 298 345 298 345 317 345 c 256,20,21
 336 345 336 345 346.5 331 c 128,-1,22
 357 317 357 317 353 297 c 0,23,24
 348 278 348 278 332 264 c 128,-1,25
 316 250 316 250 297 250 c 256,14,15
244 4 m 256,26,27
 225 4 225 4 213 18 c 128,-1,28
 201 32 201 32 206 52 c 0,29,30
 210 72 210 72 228 86 c 128,-1,31
 246 100 246 100 265 100 c 256,32,33
 284 100 284 100 294.5 86 c 128,-1,34
 305 72 305 72 301 52 c 0,35,36
 296 32 296 32 279.5 18 c 128,-1,37
 263 4 263 4 244 4 c 256,26,27
EndSplineSet
EndChar
StartChar: oslash
Encoding: 248 248 185
Width: 441
Flags: W
Fore
419 318 m 0,0,1
 440 291 440 291 447 255 c 128,-1,2
 454 219 454 219 446 181 c 0,3,4
 428 100 428 100 360 41 c 0,5,6
 334 19 334 19 303.5 6 c 128,-1,7
 273 -7 273 -7 242.5 -11 c 128,-1,8
 212 -15 212 -15 183.5 -10 c 128,-1,9
 155 -5 155 -5 131 10 c 1,10,-1
 91 -35 l 2,11,12
 84 -43 84 -43 75.5 -45 c 128,-1,13
 67 -47 67 -47 60 -41 c 0,14,15
 53 -36 53 -36 53 -27 c 128,-1,16
 53 -18 53 -18 60 -10 c 2,17,-1
 100 36 l 1,18,19
 77 64 77 64 69 100.5 c 128,-1,20
 61 137 61 137 68 175 c 128,-1,21
 75 213 75 213 96.5 250.5 c 128,-1,22
 118 288 118 288 154 318 c 0,23,24
 179 339 179 339 209 352.5 c 128,-1,25
 239 366 239 366 269.5 371 c 128,-1,26
 300 376 300 376 328 371.5 c 128,-1,27
 356 367 356 367 378 352 c 1,28,-1
 417 396 l 2,29,30
 425 404 425 404 433 406 c 128,-1,31
 441 408 441 408 447 403 c 0,32,33
 454 398 454 398 456 388.5 c 128,-1,34
 458 379 458 379 450 371 c 2,35,-1
 413 326 l 1,36,37
 415 324 415 324 416 322 c 128,-1,38
 417 320 417 320 419 318 c 0,0,1
127 181 m 0,39,40
 115 125 115 125 143 87 c 1,41,-1
 337 303 l 1,42,43
 305 319 305 319 263.5 312.5 c 128,-1,44
 222 306 222 306 186 277 c 0,45,46
 139 235 139 235 127 181 c 0,39,40
325 84 m 0,47,48
 350 102 350 102 366 127.5 c 128,-1,49
 382 153 382 153 387.5 180 c 128,-1,50
 393 207 393 207 388 232.5 c 128,-1,51
 383 258 383 258 366 277 c 1,52,-1
 176 59 l 1,53,54
 191 49 191 49 210.5 46 c 128,-1,55
 230 43 230 43 250 46.5 c 128,-1,56
 270 50 270 50 289.5 59.5 c 128,-1,57
 309 69 309 69 325 84 c 0,47,48
EndSplineSet
EndChar
StartChar: thorn
Encoding: 254 254 191
Width: 458
Flags: W
Fore
140 22 m 1,0,1
 127 -38 127 -38 121 -68 c 128,-1,2
 115 -98 115 -98 112 -111 c 0,3,4
 108 -126 108 -126 109 -125 c 1,5,6
 106 -143 106 -143 93 -155.5 c 128,-1,7
 80 -168 80 -168 63 -168 c 0,8,9
 43 -168 43 -168 37 -155.5 c 128,-1,10
 31 -143 31 -143 35 -125 c 0,11,12
 36 -121 36 -121 41.5 -94.5 c 128,-1,13
 47 -68 47 -68 56 -26.5 c 128,-1,14
 65 15 65 15 76 67 c 128,-1,15
 87 119 87 119 98 173 c 128,-1,16
 109 227 109 227 120 278.5 c 128,-1,17
 131 330 131 330 140 371.5 c 128,-1,18
 149 413 149 413 154.5 439.5 c 128,-1,19
 160 466 160 466 161 470 c 0,20,21
 166 489 166 489 177 501.5 c 128,-1,22
 188 514 188 514 208 514 c 0,23,24
 227 514 227 514 233.5 501.5 c 128,-1,25
 240 489 240 489 235 470 c 2,26,27
 231 455 l 2,28,29
 228 442 228 442 222 413 c 128,-1,30
 216 384 216 384 204 327 c 1,31,32
 229 343 229 343 259.5 354.5 c 128,-1,33
 290 366 290 366 319 366 c 0,34,35
 366 366 366 366 398 347 c 128,-1,36
 430 328 430 328 446.5 298 c 128,-1,37
 463 268 463 268 465.5 230.5 c 128,-1,38
 468 193 468 193 457 156 c 0,39,40
 446 121 446 121 425.5 91 c 128,-1,41
 405 61 405 61 376.5 38 c 128,-1,42
 348 15 348 15 311.5 2 c 128,-1,43
 275 -11 275 -11 233 -11 c 0,44,45
 210 -11 210 -11 185 -3.5 c 128,-1,46
 160 4 160 4 141 21 c 2,47,-1
 140 22 l 1,0,1
247 58 m 0,48,49
 300 55 300 55 339.5 89 c 128,-1,50
 379 123 379 123 392 183 c 0,51,52
 396 203 396 203 392 223 c 128,-1,53
 388 243 388 243 376.5 259 c 128,-1,54
 365 275 365 275 346.5 284 c 128,-1,55
 328 293 328 293 303 292 c 0,56,57
 279 291 279 291 257.5 283 c 128,-1,58
 236 275 236 275 218 261.5 c 128,-1,59
 200 248 200 248 187 231 c 128,-1,60
 174 214 174 214 168 195 c 0,61,62
 149 135 149 135 169.5 98 c 128,-1,63
 190 61 190 61 247 58 c 0,48,49
EndSplineSet
EndChar
StartChar: Lslash
Encoding: 321 321 193
Width: 476
Flags: W
Fore
454 62 m 0,0,1
 462 53 462 53 458 37 c 0,2,3
 456 23 456 23 443.5 11 c 128,-1,4
 431 -1 431 -1 407 -1 c 2,5,-1
 158 -1 l 2,6,7
 132 -1 132 -1 115.5 6.5 c 128,-1,8
 99 14 99 14 91 27.5 c 128,-1,9
 83 41 83 41 81.5 58.5 c 128,-1,10
 80 76 80 76 84 96 c 0,11,12
 89 117 89 117 93 139 c 128,-1,13
 97 161 97 161 101 179 c 0,14,15
 105 200 105 200 110 219 c 1,16,-1
 41 180 l 1,17,-1
 52 232 l 1,18,-1
 121 271 l 1,19,20
 127 297 127 297 133 325 c 0,21,22
 138 349 138 349 144 379.5 c 128,-1,23
 150 410 150 410 157 442 c 0,24,25
 162 461 162 461 174.5 474 c 128,-1,26
 187 487 187 487 207 487 c 0,27,28
 226 487 226 487 231.5 473.5 c 128,-1,29
 237 460 237 460 232 442 c 0,30,31
 228 425 228 425 224 405 c 0,32,33
 220 388 220 388 215.5 365.5 c 128,-1,34
 211 343 211 343 206 317 c 1,35,-1
 270 351 l 1,36,-1
 259 299 l 1,37,-1
 195 265 l 1,38,39
 189 239 189 239 183 211 c 0,40,41
 178 187 178 187 171.5 156.5 c 128,-1,42
 165 126 165 126 158 94 c 0,43,44
 156 85 156 85 159.5 79 c 128,-1,45
 163 73 163 73 174 73 c 2,46,-1
 423 73 l 2,47,48
 445 73 445 73 454 62 c 0,0,1
EndSplineSet
EndChar
StartChar: lslash
Encoding: 322 322 194
Width: 201
Flags: W
Fore
272 386 m 1,0,-1
 261 336 l 1,1,-1
 196 289 l 1,2,-1
 144 44 l 2,3,4
 139 19 139 19 124.5 9 c 128,-1,5
 110 -1 110 -1 97 -1 c 0,6,7
 75 -1 75 -1 70 11.5 c 128,-1,8
 65 24 65 24 70 44 c 2,9,-1
 108 223 l 1,10,-1
 44 173 l 1,11,-1
 55 225 l 1,12,-1
 119 274 l 1,13,-1
 172 524 l 2,14,15
 177 544 177 544 186.5 556.5 c 128,-1,16
 196 569 196 569 218 569 c 0,17,18
 238 569 238 569 244.5 557 c 128,-1,19
 251 545 251 545 246 524 c 2,20,-1
 207 340 l 1,21,-1
 272 386 l 1,0,-1
EndSplineSet
EndChar
StartChar: OE
Encoding: 338 338 195
Width: 890
Flags: W
Fore
470 82 m 1,0,1
 428 42 428 42 375.5 18 c 128,-1,2
 323 -6 323 -6 267 -6 c 0,3,4
 217 -6 217 -6 177.5 14 c 128,-1,5
 138 34 138 34 112.5 68 c 128,-1,6
 87 102 87 102 77.5 146.5 c 128,-1,7
 68 191 68 191 79 241 c 0,8,9
 89 290 89 290 117.5 335 c 128,-1,10
 146 380 146 380 185.5 414 c 128,-1,11
 225 448 225 448 273.5 468 c 128,-1,12
 322 488 322 488 372 488 c 0,13,14
 427 488 427 488 469 464 c 128,-1,15
 511 440 511 440 536 401 c 1,16,17
 555 426 555 426 580.5 443.5 c 128,-1,18
 606 461 606 461 635.5 471.5 c 128,-1,19
 665 482 665 482 696 486.5 c 128,-1,20
 727 491 727 491 757 491 c 0,21,22
 821 491 821 491 870 469 c 128,-1,23
 919 447 919 447 934 407 c 0,24,25
 939 393 939 393 934 379 c 128,-1,26
 929 365 929 365 913 357 c 0,27,28
 898 349 898 349 884.5 353.5 c 128,-1,29
 871 358 871 358 863 370 c 0,30,31
 852 390 852 390 822 403 c 128,-1,32
 792 416 792 416 741 416 c 0,33,34
 719 416 719 416 693 413 c 128,-1,35
 667 410 667 410 643.5 400.5 c 128,-1,36
 620 391 620 391 602 373.5 c 128,-1,37
 584 356 584 356 578 327 c 2,38,-1
 568 280 l 1,39,-1
 747 279 l 2,40,41
 766 279 766 279 777.5 271 c 128,-1,42
 789 263 789 263 784 243 c 0,43,44
 781 229 781 229 768.5 217 c 128,-1,45
 756 205 756 205 731 205 c 2,46,-1
 552 205 l 1,47,-1
 543 160 l 2,48,49
 536 129 536 129 546.5 111 c 128,-1,50
 557 93 557 93 576.5 84 c 128,-1,51
 596 75 596 75 620.5 72.5 c 128,-1,52
 645 70 645 70 667 70 c 0,53,54
 718 70 718 70 754 83 c 128,-1,55
 790 96 790 96 809 116 c 0,56,57
 822 128 822 128 837.5 132.5 c 128,-1,58
 853 137 853 137 865 129 c 256,59,60
 877 121 877 121 876 107 c 128,-1,61
 875 93 875 93 864 79 c 0,62,63
 832 39 832 39 773.5 17 c 128,-1,64
 715 -5 715 -5 651 -5 c 0,65,66
 622 -5 622 -5 593 -0.5 c 128,-1,67
 564 4 564 4 539.5 14 c 128,-1,68
 515 24 515 24 496.5 41 c 128,-1,69
 478 58 478 58 470 82 c 1,0,1
485 241 m 0,70,71
 492 275 492 275 485.5 306 c 128,-1,72
 479 337 479 337 462 360.5 c 128,-1,73
 445 384 445 384 417.5 398 c 128,-1,74
 390 412 390 412 356 412 c 0,75,76
 321 412 321 412 288 398 c 128,-1,77
 255 384 255 384 228 361 c 128,-1,78
 201 338 201 338 181.5 306.5 c 128,-1,79
 162 275 162 275 155 241 c 0,80,81
 147 206 147 206 153 175 c 128,-1,82
 159 144 159 144 176.5 121 c 128,-1,83
 194 98 194 98 221 84 c 128,-1,84
 248 70 248 70 283 70 c 0,85,86
 317 70 317 70 350.5 84 c 128,-1,87
 384 98 384 98 411 121.5 c 128,-1,88
 438 145 438 145 457.5 176 c 128,-1,89
 477 207 477 207 485 241 c 0,70,71
EndSplineSet
EndChar
StartChar: oe
Encoding: 339 339 196
Width: 756
Flags: W
Fore
745 315 m 0,0,1
 760 295 760 295 765 274.5 c 128,-1,2
 770 254 770 254 768.5 236 c 128,-1,3
 767 218 767 218 762 204.5 c 128,-1,4
 757 191 757 191 753 184 c 0,5,6
 740 163 740 163 720.5 156 c 128,-1,7
 701 149 701 149 681 149 c 2,8,-1
 454 149 l 1,9,10
 452 105 452 105 479 81.5 c 128,-1,11
 506 58 506 58 554 58 c 0,12,13
 588 58 588 58 613 66.5 c 128,-1,14
 638 75 638 75 655 89 c 0,15,16
 691 118 691 118 707 100 c 0,17,18
 717 89 717 89 714 71 c 128,-1,19
 711 53 711 53 695 42 c 0,20,21
 665 19 665 19 628 4.5 c 128,-1,22
 591 -10 591 -10 540 -10 c 0,23,24
 435 -10 435 -10 394 64 c 1,25,26
 361 28 361 28 316.5 10.5 c 128,-1,27
 272 -7 272 -7 221 -7 c 0,28,29
 176 -7 176 -7 143.5 8 c 128,-1,30
 111 23 111 23 91.5 48.5 c 128,-1,31
 72 74 72 74 65.5 107.5 c 128,-1,32
 59 141 59 141 67 178 c 0,33,34
 76 221 76 221 97.5 255.5 c 128,-1,35
 119 290 119 290 149.5 314 c 128,-1,36
 180 338 180 338 218.5 350.5 c 128,-1,37
 257 363 257 363 300 363 c 0,38,39
 353 363 353 363 390.5 344.5 c 128,-1,40
 428 326 428 326 445 287 c 1,41,42
 480 325 480 325 524.5 344.5 c 128,-1,43
 569 364 569 364 620 364 c 0,44,45
 672 364 672 364 701.5 348 c 128,-1,46
 731 332 731 332 745 315 c 0,0,1
335 97 m 0,47,48
 348 108 348 108 357 120.5 c 128,-1,49
 366 133 366 133 372 144 c 128,-1,50
 378 155 378 155 380.5 164 c 128,-1,51
 383 173 383 173 384 178 c 0,52,53
 395 225 395 225 368 257 c 128,-1,54
 341 289 341 289 284 289 c 0,55,56
 226 289 226 289 187 257.5 c 128,-1,57
 148 226 148 226 137 178 c 0,58,59
 127 130 127 130 153.5 98 c 128,-1,60
 180 66 180 66 237 66 c 0,61,62
 295 66 295 66 335 97 c 0,47,48
699 217 m 1,63,64
 701 250 701 250 680.5 274 c 128,-1,65
 660 298 660 298 608 298 c 0,66,67
 579 298 579 298 556 289.5 c 128,-1,68
 533 281 533 281 516 269 c 128,-1,69
 499 257 499 257 488 243 c 128,-1,70
 477 229 477 229 474 217 c 1,71,-1
 699 217 l 1,63,64
EndSplineSet
EndChar
StartChar: florin
Encoding: 402 402 202
Width: 361
Flags: W
Fore
337 398 m 0,0,1
 326 377 326 377 319 350.5 c 128,-1,2
 312 324 312 324 303 304 c 1,3,-1
 369 304 l 1,4,-1
 348 246 l 1,5,-1
 280 246 l 1,6,7
 272 227 272 227 258 193.5 c 128,-1,8
 244 160 244 160 230 126 c 128,-1,9
 216 92 216 92 205 65 c 128,-1,10
 194 38 194 38 192 34 c 0,11,12
 181 10 181 10 166 -19.5 c 128,-1,13
 151 -49 151 -49 131 -75 c 128,-1,14
 111 -101 111 -101 86 -119 c 128,-1,15
 61 -137 61 -137 30 -137 c 0,16,17
 11 -137 11 -137 1 -122.5 c 128,-1,18
 -9 -108 -9 -108 -4 -88 c 0,19,20
 -1 -69 -1 -69 15.5 -55.5 c 128,-1,21
 32 -42 32 -42 51 -42 c 0,22,23
 76 -42 76 -42 86 -60 c 1,24,25
 100 -33 100 -33 110.5 -2.5 c 128,-1,26
 121 28 121 28 135 65 c 0,27,28
 150 101 150 101 163 135 c 0,29,30
 174 164 174 164 186.5 195 c 128,-1,31
 199 226 199 226 207 246 c 1,32,-1
 136 246 l 1,33,-1
 154 305 l 1,34,-1
 231 305 l 1,35,-1
 232 306 l 1,36,37
 238 319 238 319 247.5 338 c 128,-1,38
 257 357 257 357 267.5 377 c 128,-1,39
 278 397 278 397 288.5 415 c 128,-1,40
 299 433 299 433 308 445 c 0,41,42
 331 477 331 477 350 487 c 128,-1,43
 369 497 369 497 389 497 c 256,44,45
 409 497 409 497 419.5 483 c 128,-1,46
 430 469 430 469 426 450 c 256,47,48
 422 431 422 431 405.5 417 c 128,-1,49
 389 403 389 403 369 403 c 0,50,51
 353 403 353 403 344 412 c 1,52,53
 341 405 341 405 337 398 c 0,0,1
EndSplineSet
EndChar
StartChar: circumflex
Encoding: 710 710 203
Width: 321
Flags: W
Fore
317 625 m 1,0,-1
 379 526 l 1,1,-1
 317 526 l 1,2,-1
 280 580 l 1,3,-1
 219 526 l 1,4,-1
 154 526 l 1,5,-1
 261 625 l 1,6,-1
 317 625 l 1,0,-1
EndSplineSet
EndChar
StartChar: caron
Encoding: 711 711 204
Width: 321
Flags: W
Fore
243 512 m 1,0,-1
 182 611 l 1,1,-1
 241 611 l 1,2,-1
 279 550 l 1,3,-1
 343 611 l 1,4,-1
 405 611 l 1,5,-1
 299 512 l 1,6,-1
 243 512 l 1,0,-1
EndSplineSet
EndChar
StartChar: breve
Encoding: 728 728 205
Width: 300
Flags: W
Fore
242 425 m 0,0,1
 217 425 217 425 196.5 434 c 128,-1,2
 176 443 176 443 163.5 460.5 c 128,-1,3
 151 478 151 478 150.5 498 c 128,-1,4
 150 518 150 518 155 540 c 1,5,-1
 207 540 l 1,6,7
 198 507 198 507 210 491 c 128,-1,8
 222 475 222 475 250 475 c 0,9,10
 276 475 276 475 295.5 490 c 128,-1,11
 315 505 315 505 321 540 c 1,12,-1
 373 540 l 1,13,14
 370 518 370 518 360.5 498 c 128,-1,15
 351 478 351 478 331.5 460.5 c 128,-1,16
 312 443 312 443 287.5 434 c 128,-1,17
 263 425 263 425 242 425 c 0,0,1
EndSplineSet
EndChar
StartChar: dotaccent
Encoding: 729 729 206
Width: 186
Flags: W
Fore
142 469 m 256,0,1
 147 489 147 489 165 503.5 c 128,-1,2
 183 518 183 518 204 518 c 256,3,4
 225 518 225 518 237 503.5 c 128,-1,5
 249 489 249 489 244 469 c 256,6,7
 239 449 239 449 221.5 434.5 c 128,-1,8
 204 420 204 420 183 420 c 256,9,10
 162 420 162 420 149.5 434.5 c 128,-1,11
 137 449 137 449 142 469 c 256,0,1
EndSplineSet
EndChar
StartChar: ring
Encoding: 730 730 207
Width: 278
Flags: W
Fore
173 470 m 0,0,1
 179 497 179 497 202 516 c 128,-1,2
 225 535 225 535 252 535 c 256,3,4
 279 535 279 535 294 516 c 128,-1,5
 309 497 309 497 303 470 c 0,6,7
 298 443 298 443 275 424 c 128,-1,8
 252 405 252 405 225 405 c 256,9,10
 198 405 198 405 183 424 c 128,-1,11
 168 443 168 443 173 470 c 0,0,1
210 470 m 0,12,13
 208 459 208 459 214.5 450.5 c 128,-1,14
 221 442 221 442 232 442 c 256,15,16
 243 442 243 442 253.5 450.5 c 128,-1,17
 264 459 264 459 266 470 c 0,18,19
 269 481 269 481 262 489.5 c 128,-1,20
 255 498 255 498 244 498 c 256,21,22
 233 498 233 498 223 489.5 c 128,-1,23
 213 481 213 481 210 470 c 0,12,13
EndSplineSet
EndChar
StartChar: tilde
Encoding: 732 732 209
Width: 295
Flags: W
Fore
105 405 m 1,0,1
 110 422 110 422 121 440.5 c 128,-1,2
 132 459 132 459 150 473 c 0,3,4
 167 486 167 486 191 489 c 128,-1,5
 215 492 215 492 242 475 c 0,6,7
 264 462 264 462 280 457.5 c 128,-1,8
 296 453 296 453 306.5 455 c 128,-1,9
 317 457 317 457 322.5 464 c 128,-1,10
 328 471 328 471 330 482 c 1,11,-1
 379 482 l 1,12,13
 376 463 376 463 366.5 444 c 128,-1,14
 357 425 357 425 341 412.5 c 128,-1,15
 325 400 325 400 303.5 397.5 c 128,-1,16
 282 395 282 395 254 408 c 2,17,-1
 222 424 l 2,18,19
 207 432 207 432 196.5 432 c 128,-1,20
 186 432 186 432 178.5 428 c 128,-1,21
 171 424 171 424 167 417.5 c 128,-1,22
 163 411 163 411 161 405 c 1,23,-1
 105 405 l 1,0,1
EndSplineSet
EndChar
StartChar: uni0E01
Encoding: 3585 3585 212
Width: 517
Flags: W
Fore
474 29 m 2,0,1
 470 14 470 14 458.5 7 c 128,-1,2
 447 0 447 0 432 0 c 256,3,4
 417 0 417 0 407.5 7 c 128,-1,5
 398 14 398 14 402 29 c 0,6,7
 419 109 419 109 427.5 152 c 128,-1,8
 436 195 436 195 441 215 c 2,9,-1
 447 242 l 2,10,11
 459 300 459 300 428 323 c 128,-1,12
 397 346 397 346 336 346 c 0,13,14
 301 346 301 346 273.5 337 c 128,-1,15
 246 328 246 328 225.5 315.5 c 128,-1,16
 205 303 205 303 192.5 289 c 128,-1,17
 180 275 180 275 174 265 c 1,18,19
 180 261 180 261 189 256.5 c 128,-1,20
 198 252 198 252 205 248 c 1,21,22
 212 252 212 252 222.5 260.5 c 128,-1,23
 233 269 233 269 241 273 c 0,24,25
 257 281 257 281 263 274.5 c 128,-1,26
 269 268 269 268 276 259 c 1,27,28
 277 256 277 256 278.5 251.5 c 128,-1,29
 280 247 280 247 280 242 c 128,-1,30
 280 237 280 237 277.5 232 c 128,-1,31
 275 227 275 227 267 224 c 0,32,33
 248 216 248 216 236 196 c 128,-1,34
 224 176 224 176 221 162 c 2,35,-1
 193 31 l 2,36,37
 191 15 191 15 179 8 c 128,-1,38
 167 1 167 1 152 0 c 0,39,40
 136 -1 136 -1 126.5 6 c 128,-1,41
 117 13 117 13 120 28 c 0,42,43
 125 60 125 60 130 84.5 c 128,-1,44
 135 109 135 109 140 126 c 0,45,46
 144 146 144 146 149 162 c 0,47,48
 151 168 151 168 155.5 181 c 128,-1,49
 160 194 160 194 165 200 c 1,50,51
 144 211 144 211 132.5 217 c 128,-1,52
 121 223 121 223 116 226 c 0,53,54
 110 230 110 230 108 231 c 0,55,56
 100 236 100 236 100.5 242 c 128,-1,57
 101 248 101 248 106 259 c 0,58,59
 113 276 113 276 132 301 c 128,-1,60
 151 326 151 326 182 349 c 128,-1,61
 213 372 213 372 256 388.5 c 128,-1,62
 299 405 299 405 355 405 c 0,63,64
 459 405 459 405 496.5 359 c 128,-1,65
 534 313 534 313 517 233 c 2,66,-1
 474 29 l 2,0,1
EndSplineSet
EndChar
StartChar: uni0E02
Encoding: 3586 3586 213
Width: 461
Flags: W
Fore
438 123 m 2,0,1
 428 83 428 83 409.5 58 c 128,-1,2
 391 33 391 33 367 19 c 128,-1,3
 343 5 343 5 314.5 0 c 128,-1,4
 286 -5 286 -5 255 -5 c 0,5,6
 228 -5 228 -5 204.5 1.5 c 128,-1,7
 181 8 181 8 164.5 21.5 c 128,-1,8
 148 35 148 35 140.5 56.5 c 128,-1,9
 133 78 133 78 138 108 c 0,10,11
 144 142 144 142 166 171 c 128,-1,12
 188 200 188 200 209 215 c 0,13,14
 218 222 218 222 236.5 234.5 c 128,-1,15
 255 247 255 247 270 264 c 128,-1,16
 285 281 285 281 289.5 300.5 c 128,-1,17
 294 320 294 320 275 341 c 1,18,19
 273 304 273 304 251.5 281.5 c 128,-1,20
 230 259 230 259 202 248 c 0,21,22
 183 242 183 242 165.5 242 c 128,-1,23
 148 242 148 242 134 248 c 128,-1,24
 120 254 120 254 110.5 265.5 c 128,-1,25
 101 277 101 277 98 293 c 0,26,27
 93 325 93 325 115.5 356.5 c 128,-1,28
 138 388 138 388 176 402 c 1,29,30
 172 400 172 400 182.5 403.5 c 128,-1,31
 193 407 193 407 212.5 409.5 c 128,-1,32
 232 412 232 412 256.5 410 c 128,-1,33
 281 408 281 408 304 395 c 0,34,35
 330 381 330 381 340.5 354.5 c 128,-1,36
 351 328 351 328 345 300 c 0,37,38
 337 264 337 264 315.5 239.5 c 128,-1,39
 294 215 294 215 268 195 c 0,40,41
 240 173 240 173 227 149.5 c 128,-1,42
 214 126 214 126 215 106.5 c 128,-1,43
 216 87 216 87 230 74.5 c 128,-1,44
 244 62 244 62 270 62 c 0,45,46
 318 62 318 62 338 77.5 c 128,-1,47
 358 93 358 93 365 123 c 2,48,-1
 419 379 l 2,49,50
 422 394 422 394 434 401 c 128,-1,51
 446 408 446 408 461 408 c 256,52,53
 476 408 476 408 485.5 401 c 128,-1,54
 495 394 495 394 492 379 c 2,55,-1
 438 123 l 2,0,1
228 339 m 256,56,57
 226 351 226 351 213 355.5 c 128,-1,58
 200 360 200 360 184 354 c 0,59,60
 167 349 167 349 157.5 336.5 c 128,-1,61
 148 324 148 324 151 311 c 0,62,63
 153 299 153 299 165.5 294.5 c 128,-1,64
 178 290 178 290 194 296 c 0,65,66
 210 301 210 301 220 314 c 128,-1,67
 230 327 230 327 228 339 c 256,56,57
EndSplineSet
EndChar
StartChar: uni0E03
Encoding: 3587 3587 214
Width: 502
Flags: W
Fore
480 129 m 2,0,1
 468 71 468 71 422.5 33 c 128,-1,2
 377 -5 377 -5 300 -5 c 0,3,4
 231 -5 231 -5 202 29.5 c 128,-1,5
 173 64 173 64 182 115 c 0,6,7
 186 139 186 139 199 159.5 c 128,-1,8
 212 180 212 180 228 197 c 128,-1,9
 244 214 244 214 262 227.5 c 128,-1,10
 280 241 280 241 295 250 c 0,11,12
 339 279 339 279 353 303 c 128,-1,13
 367 327 367 327 355 341 c 0,14,15
 353 343 353 343 347 344.5 c 128,-1,16
 341 346 341 346 334 345 c 128,-1,17
 327 344 327 344 321 339 c 128,-1,18
 315 334 315 334 312 324 c 0,19,20
 310 316 310 316 300 311 c 128,-1,21
 290 306 290 306 280 306 c 0,22,23
 269 306 269 306 262.5 311 c 128,-1,24
 256 316 256 316 256 326 c 0,25,26
 256 338 256 338 245 344 c 128,-1,27
 234 350 234 350 219.5 350 c 128,-1,28
 205 350 205 350 190.5 343.5 c 128,-1,29
 176 337 176 337 170 323 c 1,30,31
 185 329 185 329 201 327 c 128,-1,32
 217 325 217 325 229 317.5 c 128,-1,33
 241 310 241 310 247 297 c 128,-1,34
 253 284 253 284 249 266 c 0,35,36
 244 240 244 240 219 222.5 c 128,-1,37
 194 205 194 205 164 205 c 0,38,39
 154 205 154 205 141.5 207 c 128,-1,40
 129 209 129 209 118 215.5 c 128,-1,41
 107 222 107 222 99 233.5 c 128,-1,42
 91 245 91 245 91 264 c 0,43,44
 90 290 90 290 100 314 c 128,-1,45
 110 338 110 338 127.5 357 c 128,-1,46
 145 376 145 376 167.5 388.5 c 128,-1,47
 190 401 190 401 214 405 c 0,48,49
 239 410 239 410 261 404 c 128,-1,50
 283 398 283 398 291 382 c 1,51,52
 290 382 290 382 295.5 387.5 c 128,-1,53
 301 393 301 393 311.5 398.5 c 128,-1,54
 322 404 322 404 338 406.5 c 128,-1,55
 354 409 354 409 375 403 c 0,56,57
 415 389 415 389 420.5 352.5 c 128,-1,58
 426 316 426 316 403 274 c 0,59,60
 391 252 391 252 371 235 c 128,-1,61
 351 218 351 218 330 203 c 128,-1,62
 309 188 309 188 291 172.5 c 128,-1,63
 273 157 273 157 265 139 c 0,64,65
 249 107 249 107 261 84.5 c 128,-1,66
 273 62 273 62 317 63 c 0,67,68
 344 63 344 63 361 70.5 c 128,-1,69
 378 78 378 78 387.5 88 c 128,-1,70
 397 98 397 98 401 109.5 c 128,-1,71
 405 121 405 121 407 129 c 2,72,-1
 459 376 l 2,73,74
 463 391 463 391 475 398.5 c 128,-1,75
 487 406 487 406 502 406 c 0,76,77
 518 406 518 406 527 398.5 c 128,-1,78
 536 391 536 391 532 376 c 2,79,-1
 480 129 l 2,0,1
212 267 m 256,80,81
 214 278 214 278 207 285 c 128,-1,82
 200 292 200 292 185 292 c 256,83,84
 170 292 170 292 159 285 c 128,-1,85
 148 278 148 278 146 267 c 0,86,87
 144 257 144 257 151.5 250 c 128,-1,88
 159 243 159 243 174 243 c 0,89,90
 188 243 188 243 199 249.5 c 128,-1,91
 210 256 210 256 212 267 c 256,80,81
EndSplineSet
EndChar
StartChar: uni0E04
Encoding: 3588 3588 215
Width: 494
Flags: W
Fore
450 28 m 2,0,1
 447 13 447 13 435 6 c 128,-1,2
 423 -1 423 -1 408 -1 c 256,3,4
 393 -1 393 -1 384 6 c 128,-1,5
 375 13 375 13 378 28 c 0,6,7
 393 100 393 100 401.5 138.5 c 128,-1,8
 410 177 410 177 414 195 c 2,9,-1
 419 219 l 2,10,11
 426 253 426 253 422.5 276 c 128,-1,12
 419 299 419 299 406.5 312.5 c 128,-1,13
 394 326 394 326 373.5 332 c 128,-1,14
 353 338 353 338 325 338 c 256,15,16
 297 338 297 338 271.5 332 c 128,-1,17
 246 326 246 326 225.5 312 c 128,-1,18
 205 298 205 298 190 275 c 128,-1,19
 175 252 175 252 168 218 c 2,20,-1
 165 204 l 1,21,22
 176 214 176 214 192 227.5 c 128,-1,23
 208 241 208 241 227.5 253 c 128,-1,24
 247 265 247 265 268.5 273.5 c 128,-1,25
 290 282 290 282 313 282 c 0,26,27
 349 282 349 282 369.5 259 c 128,-1,28
 390 236 390 236 383 204 c 256,29,30
 376 172 376 172 346 149 c 128,-1,31
 316 126 316 126 280 126 c 0,32,33
 254 126 254 126 237.5 139 c 128,-1,34
 221 152 221 152 214 171 c 1,35,36
 185 149 185 149 162 117 c 128,-1,37
 139 85 139 85 131 47 c 2,38,-1
 127 28 l 2,39,40
 124 13 124 13 111.5 6 c 128,-1,41
 99 -1 99 -1 84 -1 c 256,42,43
 69 -1 69 -1 60 6 c 128,-1,44
 51 13 51 13 54 28 c 2,45,-1
 95 218 l 2,46,47
 113 302 113 302 172 350 c 0,48,49
 238 404 238 404 339 404 c 0,50,51
 432 404 432 404 472 352 c 0,52,53
 485 335 485 335 493.5 302.5 c 128,-1,54
 502 270 502 270 491 218 c 2,55,-1
 450 28 l 2,0,1
332 204 m 0,56,57
 334 216 334 216 325.5 224.5 c 128,-1,58
 317 233 317 233 303 233 c 0,59,60
 288 233 288 233 276 224.5 c 128,-1,61
 264 216 264 216 262 204 c 0,62,63
 259 192 259 192 267.5 183.5 c 128,-1,64
 276 175 276 175 291 175 c 0,65,66
 305 175 305 175 317 183.5 c 128,-1,67
 329 192 329 192 332 204 c 0,56,57
EndSplineSet
EndChar
